<svg xmlns="http://www.w3.org/2000/svg" version="1.1" xmlns:xlink="http://www.w3.org/1999/xlink" width="1000" height="1000"><g clip-path="url(#SvgjsClipPath1140)"><rect width="1000" height="1000" fill="#ffffff"></rect><g transform="matrix(3.3333333333333335,0,0,3.3333333333333335,0,0)"><svg xmlns="http://www.w3.org/2000/svg" version="1.1" xmlns:xlink="http://www.w3.org/1999/xlink" width="300" height="300"><svg data-v-fde0c5aa="" viewBox="0 0 300 300" class="iconAboveSlogan" version="1.1" id="svg1" sodipodi:docname="favicon.svg" inkscape:version="1.4.2 (ebf0e940, 2025-05-08)" xmlns:inkscape="http://www.inkscape.org/namespaces/inkscape" xmlns:sodipodi="http://sodipodi.sourceforge.net/DTD/sodipodi-0.dtd" xmlns="http://www.w3.org/2000/svg" xmlns:svg="http://www.w3.org/2000/svg">
  <defs id="defs1"><clipPath id="SvgjsClipPath1140"><rect width="1000" height="1000" x="0" y="0" rx="500" ry="500"></rect></clipPath></defs>
  <sodipodi:namedview id="namedview1" pagecolor="#ffffff" bordercolor="#666666" borderopacity="1.0" inkscape:showpageshadow="2" inkscape:pageopacity="0.0" inkscape:pagecheckerboard="0" inkscape:deskcolor="#d1d1d1" inkscape:zoom="0.95144928" inkscape:cx="148.72049" inkscape:cy="149.77152" inkscape:window-width="1456" inkscape:window-height="704" inkscape:window-x="0" inkscape:window-y="38" inkscape:window-maximized="0" inkscape:current-layer="svg1"></sodipodi:namedview>
  <rect data-v-fde0c5aa="" fill="transparent" x="0" y="0" width="300px" height="300px" class="logo-background-square" id="rect1"></rect>
  <polygon class="cls-1" points="158.09,95.24 153.99,97.3 153.99,146.47 114.12,166.54 114.12,209.91 118.22,211.98 122.32,209.91 122.32,176.36 153.99,192.31 153.99,230 158.09,232.06 162.18,230 162.18,192.31 193.86,176.36 193.86,209.91 197.95,211.98 202.05,209.91 202.05,166.54 202.05,135.38 193.86,143.57 193.86,162.42 162.18,146.47 162.18,132.05 162.18,116.5 188.56,129.72 177.76,140.48 168.25,127.65 162.18,132.05 177.25,151.24 193.86,134.64 202.05,126.46 202.05,126.45 213.18,115.31 208.06,110.3 201.19,117.14 " id="polygon1" style="fill:#fb5e5d" transform="matrix(2.0503915,0,0,2.00632,-178.1849,-177.24566)"></polygon>
</svg></svg></g></g></svg>