<svg data-v-423bf9ae="" xmlns="http://www.w3.org/2000/svg" viewBox="0 0 375.3501552318217 60" class="font"><!----><!----><!----><g data-v-423bf9ae="" id="12c7cc3f-6f8d-4cc6-86af-878a6b7af20a" fill="black" transform="matrix(5.836575485636349,0,0,5.836575485636349,-5.486381944863211,-14.766535573255624)"><path d="M9.47 9.93L9.47 9.93Q9.47 11.24 8.49 11.96Q7.51 12.67 5.76 12.67L5.76 12.67L0.94 12.67L0.94 3.04L5.35 3.04Q7.11 3.04 8.02 3.65Q8.92 4.27 8.92 5.46L8.92 5.46Q8.92 6.28 8.47 6.85Q8.01 7.41 7.08 7.61L7.08 7.61Q8.25 7.75 8.86 8.34Q9.47 8.94 9.47 9.93ZM6.89 5.74L6.89 5.74Q6.89 5.09 6.48 4.81Q6.06 4.54 5.25 4.54L5.25 4.54L2.95 4.54L2.95 6.92L5.26 6.92Q6.12 6.92 6.50 6.63Q6.89 6.33 6.89 5.74ZM7.45 9.77L7.45 9.77Q7.45 8.42 5.51 8.42L5.51 8.42L2.95 8.42L2.95 11.18L5.58 11.18Q6.56 11.18 7.00 10.82Q7.45 10.47 7.45 9.77ZM13.01 3.94L11.09 3.94L11.09 2.53L13.01 2.53L13.01 3.94ZM13.01 12.67L11.09 12.67L11.09 5.28L13.01 5.28L13.01 12.67ZM16.87 12.80L16.87 12.80Q16.02 12.80 15.57 12.34Q15.11 11.87 15.11 10.94L15.11 10.94L15.11 6.58L14.17 6.58L14.17 5.28L15.20 5.28L15.80 3.54L17.01 3.54L17.01 5.28L18.41 5.28L18.41 6.58L17.01 6.58L17.01 10.42Q17.01 10.96 17.21 11.21Q17.42 11.47 17.85 11.47L17.85 11.47Q18.07 11.47 18.49 11.38L18.49 11.38L18.49 12.56Q17.78 12.80 16.87 12.80ZM22.67 12.81L22.67 12.81Q21 12.81 20.10 11.82Q19.21 10.83 19.21 8.94L19.21 8.94Q19.21 7.11 20.12 6.13Q21.03 5.14 22.70 5.14L22.70 5.14Q24.29 5.14 25.13 6.20Q25.97 7.25 25.97 9.29L25.97 9.29L25.97 9.34L21.23 9.34Q21.23 10.42 21.63 10.98Q22.03 11.53 22.76 11.53L22.76 11.53Q23.78 11.53 24.05 10.64L24.05 10.64L25.86 10.80Q25.07 12.81 22.67 12.81ZM22.67 6.35L22.67 6.35Q21.99 6.35 21.63 6.82Q21.26 7.29 21.24 8.14L21.24 8.14L24.11 8.14Q24.06 7.25 23.68 6.80Q23.30 6.35 22.67 6.35ZM41.06 12.67L39.27 12.67L39.27 6.84Q39.27 6.64 39.28 6.44Q39.28 6.24 39.34 4.74L39.34 4.74Q38.86 6.58 38.62 7.30L38.62 7.30L36.89 12.67L35.45 12.67L33.71 7.30L32.98 4.74Q33.07 6.32 33.07 6.84L33.07 6.84L33.07 12.67L31.27 12.67L31.27 3.04L33.97 3.04L35.70 8.43L35.85 8.95L36.18 10.24L36.61 8.70L38.38 3.04L41.06 3.04L41.06 12.67ZM46.01 12.81L46.01 12.81Q44.34 12.81 43.44 11.82Q42.55 10.83 42.55 8.94L42.55 8.94Q42.55 7.11 43.46 6.13Q44.37 5.14 46.03 5.14L46.03 5.14Q47.63 5.14 48.47 6.20Q49.31 7.25 49.31 9.29L49.31 9.29L49.31 9.34L44.56 9.34Q44.56 10.42 44.96 10.98Q45.36 11.53 46.10 11.53L46.10 11.53Q47.12 11.53 47.39 10.64L47.39 10.64L49.20 10.80Q48.41 12.81 46.01 12.81ZM46.01 6.35L46.01 6.35Q45.33 6.35 44.96 6.82Q44.60 7.29 44.58 8.14L44.58 8.14L47.45 8.14Q47.39 7.25 47.02 6.80Q46.64 6.35 46.01 6.35ZM56.63 12.67L54.61 12.67L54.61 3.04L56.63 3.04L56.63 12.67ZM65.25 12.67L63.33 12.67L63.33 8.52Q63.33 6.58 62.02 6.58L62.02 6.58Q61.32 6.58 60.89 7.17Q60.46 7.77 60.46 8.71L60.46 8.71L60.46 12.67L58.54 12.67L58.54 6.93Q58.54 6.34 58.53 5.96Q58.51 5.58 58.49 5.28L58.49 5.28L60.32 5.28Q60.34 5.41 60.38 5.97Q60.41 6.54 60.41 6.75L60.41 6.75L60.44 6.75Q60.83 5.90 61.41 5.52Q62.00 5.13 62.82 5.13L62.82 5.13Q63.99 5.13 64.62 5.86Q65.25 6.58 65.25 7.98L65.25 7.98L65.25 12.67Z"></path></g><!----><!----></svg>