<?xml version="1.0" encoding="UTF-8"?>
<svg id="Livello_1" data-name="Livello 1" xmlns="http://www.w3.org/2000/svg" viewBox="85 50 167.31 237.31">
  <defs>
    <style>
      .cls-1 {
        fill: #fb5e5d;
      }

      .cls-2 {
        fill: #f2e7e7;
      }

      .cls-3 {
        fill: #eb9c99;
      }

      .cls-4 {
        fill: #eba09d;
      }

      .cls-5 {
        fill: #f3efef;
      }

      .cls-6 {
        fill: #f4f0f0;
      }

      .cls-7 {
        fill: #f3eaea;
      }

      .cls-8 {
        fill: #f4f1f1;
      }

      .cls-9 {
        fill: #f4f2f2;
      }

      .cls-10 {
        fill: #f3ecec;
      }

      .cls-11 {
        fill: #f3efee;
      }

      .cls-12 {
        fill: #eb9d9a;
      }

      .cls-13 {
        fill: #fdf6f5;
      }

      .cls-14 {
        fill: #eb9e9b;
      }

      .cls-15 {
        fill: #f4f3f3;
      }
    </style>
  </defs>
  <path class="cls-1" d="M178.01,126.39c-.39,1.71-2.99,2.54-4.47,3.14-5.79,2.35-9.92,2.58-15.95.75-4.49-1.37-7.33-4.38-12.84-4.27-2.41.05-5.45,3.31-5.75-2.58-3.32.42-4-2.44-1.48-4.28-1.45-.61-6.44-4.69-3.07-5.69,1.35-.4,7.39,1.89,9.39,2.35,1.58.36,9.96,2,10.78,1.48.34-.22.44-.93.74-1.13.71-.47,1.77.47,2.78.59,1.94.22,6.19.18,8.15-.05,3.54-.41,18.24-6.68,21.88-8.59.57-.3.95-.75,1.38-1.21-5.02-2.52-7.25-5.07-5.67-10.88.52-1.92,2.65-5.16,2.7-6.63.04-1.24-1.66-2-1.87-3.65-.4-3.12,1.42-8.59,5.58-6.52,1.18-4.84,9.4-5.4,10.05,0,4.54-1.48,8.46.86,8.57,5.76.02.78-.46,1.56-.4,2.21.08.86,1.46,2.03,1.36,3.67-.14,2.38-3.05,4.03-3.15,4.55-.08.42.36,1.65.31,2.55-.22,3.32-2.97,3.17-3.3,4.15-.3.91.04,6.29.37,7.32.29.92,1.56.47,2.28.69.93.29,4.8,2.82,5.66,3.62,3.06,2.83,5.32,8.36,6.66,12.28.89,2.61,3.35,10.06,3.55,12.43.29,3.39-3.29,10.43-5.13,13.44-1.21,1.98-3.09,5.5-5.65,4.94l3.24,17.34c.1,1.39-1.9,2.21-2.31,3.09-.67,1.47,1.32,11.84,1.62,14.34,1.7,14.3,4.01,29.83,4.52,44.14.05,1.53-.72,3.13-.68,3.66.12,1.47,1.85,4.74,1.97,6.56l9.22,2.58c1.04,1.01.39,2.27-.12,3.37h-2.6l.74-1.85c-2.04-.6-7.61-1.33-8.93-2.78-1.3-1.42-1.25-4.85-1.84-6.71-.15-.48.28-.6-.57-.56-1.44.06-3.3,1.51-5.01,1.13l.37,10.77h-2.6c.06-2.66-.08-5.34-.02-8,.02-.73.48-1.74.42-2.16-.04-.29-.99-.53-1.36-.95-1.47-1.71-4.48-15.13-5.18-18.23-2.77-12.34-4.64-24.8-6.53-37.3-.04-.29-.25-1.34-.52-1.34l-.56,17.27c-2.3,12.15-1.25,25.84-3.79,37.81-.17.81-.91,1.17-1.05,2.29-.41,3.22.34,7.28.02,10.6h-2.23l.55-10.4c-2.2.81-4.51,1.29-6.87,1.12.6,3.71-1.35,3.53-3.61,5.12-1.91,1.35-3.81,2.75-5.68,4.17h-3.34c2.83-2.9,6.55-5.18,10.04-7.24,1.56-1.78-.5-9.35-.75-11.89-1.27-12.87-1.27-28.62-.76-41.61.1-2.59.65-5.5.78-8.12-.14-.52-2.01.03-2.81-1.71-1.5-3.24.16-18.7.56-23.21.19-2.15,1.1-5.1,1.1-7.12,0-.92-.93-1.49-.72-2.14.14-.43,1.02-.42,1.12-.84.32-1.29.19-4.54.41-6.19.75-5.69,1.74-10.06,1.81-15.83.05-3.71-.03-7.43,0-11.14-4.08,1.69-8.08,4.08-12.63,4.08.17,1.05-.21,5.27-1.34,5.53l-1.27-.57c0-1.83-.19-3.67.76-5.32h-7.62c-.14,0-.54-.51-.93-.37l-2.19,8.13c.87.21,1.61.8,2.45,1.08,1.42.48,8.33,2.02,9.57,1.96,1.69-.09,5.66-1.6,7.45-2.24.92-.33,2.39-1.34,3.06-1.44,1.03-.16,1.09.65,1.21.69ZM198.91,81.73c-1.22-1.3.15-5.67-4.86-4.12-2.49.77-1.82,3.57-2.88,3.81-.86,0-1.43-1.03-2.22-1.1-2.04-.19-3.46,5.66-.14,6.87,3.73,1.35,8.79-5.72,12.82-1.3.8.88,1.64,3.5,1.67,4.68.01.62-1.04,3.85.16,3.5s3.5-1.87,3.84-3.24c.45-1.82-.66-1.02-1.42-1.75-1.2-1.16,2.08-5.51-1.51-7.41-2.75-1.46-4.34,1.26-5.45.07ZM199.98,97.75c-.84-.97,3.05-10.78-1.74-11.09-2.58-.17-6.11,4.06-9.41,3.01-.94,4.2-5.35,10.65-.4,13.86,2.83,1.84,4.07.5,6.59.27,1.53-.14,1.55,1.04.44,1.96-1.33,1.1-4.1.67-4.4,1.95-.2.84,3.56,5.56,3.31,7.17l.94-.36,6.32-6.7c.11-1.68-.16-4.84.33-6.33.46-1.4,2.78-1.73,3.11-2.83.25-.81,0-1.86.07-2.71-2.52.14-2.51,3.17-5.15,1.81ZM193.67,118.53l-3.78-8.48-5.51,2.29,1.11,12.15,13.48-.3c.82-2.44,1.03-5.08,1.81-7.53.34-1.07,2.56-5.36,2.5-5.67-.05-.27-.59-.58-.93-.58-.85,0-6.63,6.6-6.93,8.12h-1.74ZM196.98,149.44c1.27-.61,6.93-.43,7.38-1.75.15-.44-.38-4.02-.35-5.16.07-2.75.92-7.01.75-9.6-.14-2.11-2.26-5.14-2.23-7.45.02-1.65.83-5.59,1.3-7.27s3.45-6.19.94-6.68c-.89,2.5-1.93,4.96-2.71,7.51-1.16,3.76.12,6.05-4.57,6.95-2.16.41-6.24.71-8.5.79-1.02.04-5.22.2-5.61-.36-.52-3.92-.74-7.79-.91-11.73-.02-.57.35-1.47-.55-1.29-.66.43-.53,1-.58,1.65-.34,4.23.57,8.93.39,13.39-.24,5.82-1.57,11.68-1.85,17.46-.05.98.02,1.96-.03,2.94l2.24.61v1.09s-2.6.63-2.6.63c-1.05,9.51-2.49,19.07-2.17,28.66,1.24.86,2.34.08,3.48.06,8.61-.22,17.41.02,25.73-2.5,1.08-.33,5.49-1.93,5.86-2.7l-2.06-14.48-2.23,3.53c0,1.1,3.46,2.72,2.27,4.1-1.45,1.69-3.4-.6-4.75-1.27-1.17-.1-1.13,2.58-4.93.48-2.22-1.23-3.36-2.74-1.96-5.19l-.28-.34c-2.23-1.36-4.93-3.25-7.3-4.24-1.41-.59-2.83-.68-4.24-1.33-6.31-2.92-3.02-10.36,2.6-6.69,2.29,1.5,3.06,4.32,5.04,6.1,1.45,1.3,4.27,3.18,6.12,3.72.25-1.3-.83-.36-1.52-.98-3.04-2.75,5.17-4.17,6.35-5.51l-1.73-2.07c-2.22.66-4.58.5-6.82.02v-1.09ZM212.93,154.62c2.5-5.21,5.34-10.37,6.62-16.07-3.78-8.41-4.12-19.01-11.81-25.16-.4,2.08-1.56,3.88-2.07,5.92-.29,1.16-1.03,5.47-.9,6.49.43,3.2,4.99,7.62,5.76,10.23,1.26,4.25-2.29,10.28-4.28,13.95l6.68,4.64ZM153.86,118.96c-6.12.2-12.04-1.46-17.83-3.16l4.45,2.98-2.6,2.78c3.34-.39,2.28,1.39,3.54,3.34,3.44-2.35,6.82.06,10.53-.04l1.9-5.9ZM206.99,134.93v7.8c.64-.36,1.05-1.99,1.22-2.68.56-2.29.91-3.44-1.22-5.12ZM190.15,152.14c-.75-.85-4.03-3.21-4.65-1.37-1.05,3.1,4.39,4.51,6.64,4.59-.79-.94-1.18-2.31-1.99-3.21ZM203.91,165.64c.29-.25,2.3-2.95,2.65-3.48.71-1.08,3.52-5.81,2.88-6.81-3.1-2.39-2.63-1.06-5.15.07-1.02.46-2.15.75-3.23,1.05.07.72,1.29.47,1.68,1.1,1.13,1.85-2.33,4.33-2.69,6.14.89,1.05,2.43,3.13,3.87,1.92ZM209.96,178.76c-2.65.73-5.18,1.71-7.87,2.35-1.38.33-3.47.36-4.52.68-.41.13-.64.39-.6.83,3.41,18.79,6.19,37.82,11.83,56.09.58.83,7.39-.3,7.46-2.15l-6.31-57.8ZM193.25,182.47l-13.01.37c-.03,14.13-.89,28.38-.38,42.54.12,3.4.31,7.79.76,11.12.1.71.48,3.81.98,3.93l7.22-1.37,4.43-56.59Z"/>
  <path class="cls-1" d="M118.19,251.93l-1.86-5.2,4.46-.56-3.76-22.06-4.05-.41c1-2.75-.14-6.42.37-9.1.1-.56.17-.59.62-.86,1.58-.96,5.12-1.12,7-1.56.44-.1.69.27.52-.5-.35-1.6-2.67-5.99-3.61-7.54-.37-.61-2.3-3.44-2.67-3.67-.59-.38-1.54.26-2.36.19-3.41-.29-12.99-4.59-14.74-7.58-1.85-3.14,3.26-3.98,5.41-3.95,4.88.06,10.27,1.32,12.65,5.95,1.22,2.38.34,3.68.72,4.83.37,1.11,2.42,2.53,2.85,3.86l3.28,7.3c-.68-2.56.91-7.66.38-9.77-.1-.4-.88-.44-1.13-.79-2.17-3.02-1.59-8.33-.55-11.72.37-1.2,1.73-3.31,1.67-4.24-.05-.73-1.42-3.36-1.75-4.59-.73-2.74-3.15-11.19,2.39-9.07,4.11,1.57,8.74,9.33,9.01,13.64.24,3.79-1.76,5.08-1.89,7.41-.14,2.54.79,6.27.81,8.92,0,1.23-.4,2.25-.42,3.33-.03,2.42.05,4.84.02,7.26l2.99-.53c.56-3.71.64-7.67,1.14-11.49s1.86-7.95,2.17-11.57c.11-1.24.21-7.7-.36-8.17-.34-.28-1.15-.28-1.62-.61-3.67-2.52-6.29-12.02-5.19-16.22s3.04-4.01,5.89-1.19c3.67,3.62,5.56,13.34,2.4,17.66l.74,2.78c0-2.96,2.68-6.95,2.91-9.56.09-1-.78-1.93-.96-2.96-1.02-5.91,5.56-16.73,10.56-19.72,6.38-3.82,4.64,2.76,3.65,6.62-1.21,4.73-4.69,13.66-9.13,16.13-.76.42-2.38.48-2.61.81-1.1,1.55-2.31,7.71-2.93,9.8,1.25-1.5,2.94-1.39,4.43-2.07.7-.32.92-1.17,2.23-1.49,1.86-.45,3.37.25,5.17.54,1.55-1.9-.22-2.33.22-4.44.8-3.79,4.49-7.37,7.52-9.57,2.03-1.48,8.93-6.36,7.84-.71-.96,4.95-6.67,11.71-11.42,13.47-1.38.51-2.46-.44-2.98,1.81,1.56.94,2.21,2.06,3.15,3.55,3.25-2.69,7.7-4.97,12.03-3.67.17,5.06-5.97,8.19-9.8,10.37l-.93,4.27c2.72.06,9.6-1.44,9.11,2.78-5.28,3.14-9.21,10.28-16.16,8.71l-4.09,4.85c-.09.75.02.49.55.55,1.18.15,7.83.28,8.02.97-.32,2.24.66,8.95-.85,10.46-.41.41-1.57.18-1.59,1.18l-3.52,21.19c.85.1,3.44-.38,3.71.57l-2.6,5.37h-1.86l1.86-4.08c-4.15,0-8.31-.01-12.46-.02-1.74,0-3.44,0-5.17,0-5.14,0-10.29.03-15.43.02l1.86,4.08h-1.86ZM153.86,150.9c-5.36,3.19-10.58,11.25-10.4,17.65.01.44-.27,1.38.37,1.29,1.47-4.15,3.38-8.5,5.95-12.09.34-.48,1.05-.46,1.12-.54.76.36.18,1.14-.06,1.61-2.15,4.17-4.73,8.25-5.88,12.88,3.72-1.63,5.76-6,7.37-9.52,1.68-3.66,3.38-7.98,3.4-12.02-1.33-.43-1.41.48-1.86.74ZM133.8,161.67c-2.9-.22-1.68,5.65-1.31,7.44.61,2.95,2.04,7.66,5.03,8.9-.85-4.26-2.39-8.2-3.93-12.22-.44-1.14.23-.74.96-.77,1.04,4.01,3.39,7.67,3.72,11.89.75.91,1.09-2.12,1.11-2.42.19-3.09-1.87-12.52-5.57-12.81ZM166.87,164.27c-2.13.31-8.22,5.42-9.65,7.25-1.13,1.45-2.63,3.85-2.43,5.75l9.1-9.28c-.56.84-.64,2.34-1.49,3.16l-5.94,6.13c-.07.74.67.22,1,.08,3.37-1.42,5.45-4.13,7.32-7.17.46-.75,3.07-5.6,2.81-5.91-.24.01-.51-.04-.74,0ZM124.51,173.19c-.73-.48-1.06-1.5-2.6-1.11.08,3.23.86,6.7,1.94,9.76.23.65,3.39,8.45,4.74,6.96-.39-3.08-1.39-6.29-2.53-9.17-.35-.89-2.33-2.69-.07-2.34.61,1.16,1.76,2.4,2.25,3.51,1.08,2.43,1.11,5.38,2.21,7.82.48.5.53-.56.62-.86,1.49-4.92-2.46-11.87-6.57-14.55ZM157.21,194.36c1.63-6.01-1.95-13.95-9.11-13-.51.07-1.11.22-.55.74,4.99.81,7.46,5.27,8.92,9.66l-1.11,1.11c-1.39-4.69-4.46-9.3-9.66-10.03-1.96,2.07,8.84,11.75,10.97,12.62.9.26.43-.68.55-1.11ZM166.87,181.73c-1.91-.08-8.61,2.01-8.92,3.9-.07.57-.01.65.57.57,1.64-.23,4.02-3,6.13-2.61-.06.07,0,.56-.37.92-1.67,1.6-7.02,1.83-5.02,5.39,2.4-1.44,7.89-4.96,8.73-7.62.26-.82-.6-.53-1.11-.55ZM144.57,183.22c-5.89,1.61-6.06,10.14-7.05,15.23.49.05.66-.85.8-1.23.47-1.26.56-2.32,1.26-3.57,1.26-2.24,3.67-4.71,5.94-5.96l-.95-4.47ZM123.76,199.56c0-1.74.16-3.62.43-5.33.44-2.79,1.74-5.41.31-8.04-.55-.05-.58.87-.74,1.3-1.25,3.3-1.92,6.36-1.4,9.94.04.27.76,2.95,1.4,2.13ZM146.8,189.16c-.89-.94-3.78,1.72-4.08,2.42-.2.46.08.7.55.55l2.05-1.11s.5.33.22.72c-.48.65-2.69,1.9-3.19,2.99,1.99.02,6.17-3.76,4.46-5.57ZM128.53,190.7c-.71-.15-1.79-1.25-2.35-.43l-1.67,9.65c2.87.5,4.67-8.19,4.02-9.22ZM100.73,191.02c-.4.12-1.69-.04-1.48.92.45,2.04,11.44,7.85,14.11,6.69-2.42-2.78-5.82-3.8-8.85-5.46-.18-.1-.03-.65-.06-.67,1.44.13,3.3.57,4.6,1.16,2.38,1.08,4.11,3.41,6.54,4.41.58-.6-2.77-4.65-3.53-5.2-2.34-1.68-8.68-2.67-11.33-1.86ZM146.81,195.84l3.31-3.21c.14-.76-1.18-1.2-1.65-1.62l-1.67,4.83ZM130.08,211.44c-.6-4.29-.28-8.53.01-12.83l-.75-5c-.19,2.96-1.1,7.54-4.82,7.44-.04,3.68-.7,7.07-.02,10.76l5.57-.37ZM156.09,197.32l-5.01-3.72c-.83,0-5.3,5.06-5.84,6.07-1.69,3.18-2.36,8.3-3.64,11.77l4.46.21c.58-2.11,3.49-4.19,4.25-5.79.41-.87.38-2.26.77-3.32.77-2.11,2.82-4.51,5.01-5.21ZM140.48,211.44l4.65-16.7c-1.11,1.57-3.92,1.48-5.05,2.38-3.43,2.69-3.89,10.35-4.06,14.33h4.46ZM164.64,196.59c-5.63-.44-10.9,1.49-12.26,7.43,2.81-1.91,5.36-4.74,8.91-5.2-.03.03.43.24-.14.73-2.19,1.89-6.03,3.32-8.03,5.77,5.27.72,8.96-5.18,13.2-7.6l-.03-.76c-.54-.23-1.08-.32-1.66-.37ZM130.08,212.56c-1.5.45-3.1.21-4.56.47-.64.12-1.23.16-1.01,1.01l5.57-.37v-1.11ZM134.54,212.56c-1.16.1-3.34-.58-3.34,1.11h3.34s0-1.11,0-1.11ZM139.75,212.56h-4.09v1.11h4.09v-1.11ZM145.31,212.93h-4.46s0,1.11,0,1.11c1.27-.12,2.65-.19,3.9-.38.65-.1.63.19.56-.73ZM138.26,215.9c-7.37.26-14.79,0-22.11-.74-.4-.04-1.68-.16-1.67.19,1.1,1.51.19,5.78,1.38,6.42.73.39,5.4.77,6.6.83,4.97.26,10.8.12,15.81-.02,5.05-.14,10.12-.56,15.15-.99.91-.41.87-6.09.63-7.19-5.22.69-10.51,1.31-15.79,1.49ZM138.63,246.36c3.07-.02,6.17.06,9.24-.05l4.14-22.23c-11.13.27-22.34,1.39-33.44.37-.02.52.27.99.37,1.48,1.33,6.76,2.22,13.62,3.36,20.41,5.44.02,10.89.05,16.33.02Z"/>
  <path class="cls-6" d="M120.05,251.93l-1.86-4.08c5.14,0,10.29-.01,15.43-.02,1.73,0,3.43,0,5.17,0,4.15,0,8.31.03,12.46.02l-1.86,4.08h-29.35Z"/>
  <path class="cls-9" d="M211.08,251.93l-.37-10.77c1.71.38,3.57-1.07,5.01-1.13.85-.03.42.09.57.56.59,1.86.54,5.28,1.84,6.71,1.32,1.45,6.89,2.17,8.93,2.78l-.74,1.85h-15.23Z"/>
  <path class="cls-9" d="M172.07,251.93c1.86-1.42,3.76-2.82,5.68-4.17,2.26-1.59,4.22-1.41,3.61-5.12,2.36.18,4.67-.3,6.87-1.12l-.55,10.4h-15.61Z"/>
  <path class="cls-12" d="M179.5,126.02c-.38.03-1.23.46-1.49.37-.11-.04-.18-.86-1.21-.69-.66.1-2.13,1.12-3.06,1.44-1.79.63-5.76,2.14-7.45,2.24-1.24.07-8.15-1.48-9.57-1.96-.84-.28-1.58-.87-2.45-1.08l2.19-8.13c.38-.14.79.37.93.37h7.62c-.95,1.65-.76,3.49-.76,5.32l1.27.57c1.13-.25,1.52-4.48,1.34-5.53,4.55,0,8.56-2.39,12.63-4.08-.03,3.71.05,7.43,0,11.14Z"/>
  <path class="cls-9" d="M196.98,149.44v1.09c2.23.48,4.58.64,6.8-.02l1.73,2.07c-1.18,1.34-9.39,2.77-6.35,5.51.69.62,1.77-.32,1.52.98-1.86-.54-4.67-2.42-6.12-3.72-1.98-1.78-2.75-4.61-5.04-6.1-5.62-3.67-8.91,3.77-2.6,6.69,1.41.65,2.83.74,4.24,1.33,2.37.99,5.08,2.89,7.3,4.24l.28.34c-1.39,2.45-.26,3.96,1.96,5.19,3.79,2.09,3.75-.58,4.93-.48,1.35.67,3.3,2.96,4.75,1.27,1.19-1.38-2.28-3-2.27-4.1l2.23-3.53,2.06,14.48c-.37.77-4.78,2.37-5.86,2.7-8.32,2.52-17.12,2.29-25.73,2.5-1.14.03-2.24.8-3.48-.06-.32-9.59,1.11-19.15,2.17-28.66l2.61-.63v-1.09s-2.25-.61-2.25-.61c.05-.98-.02-1.96.03-2.94.28-5.79,1.61-11.65,1.85-17.46.18-4.46-.73-9.15-.39-13.39.05-.65-.08-1.22.58-1.65.9-.18.53.72.55,1.29.17,3.94.39,7.8.91,11.73.39.56,4.59.4,5.61.36,2.26-.08,6.34-.38,8.5-.79,4.69-.9,3.41-3.18,4.57-6.95.78-2.55,1.82-5,2.71-7.51,2.5.48-.45,4.92-.94,6.68s-1.28,5.62-1.3,7.27c-.03,2.32,2.09,5.34,2.23,7.45.17,2.59-.67,6.85-.75,9.6-.03,1.14.5,4.73.35,5.16-.45,1.32-6.11,1.14-7.38,1.75ZM198.45,130.85c-1.21-.37-2.73,1.48-3.53,1.48-.84,0-3.2-2.41-4.64-1.69-1.73.87-.08,4.69-.54,5.41-4.1,1.7-4.72,3.93-3.53,8.15l1.12-.2.34-2.75c2.35.77,1.17,2.48,1.64,4.48.29,1.24,1.55,2.98,1.97.81.38-1.98-.69-3.95,1.78-4.92.7-.28.47.27.56.54.27.9.43,1.9.74,2.8,1.13.89,1.77-7.87,1.48-8.54-1.07.44-2.08,1.18-2.77,1.03-1.19-.24-1.67-1.95-1.68-4.01.91.53.7,3,2.33,2.55.74-.35,5.51-4.42,4.72-5.15Z"/>
  <path class="cls-12" d="M209.96,178.76l6.31,57.8c-.07,1.86-6.88,2.98-7.46,2.15-5.64-18.27-8.42-37.29-11.83-56.09-.04-.44.19-.71.6-.83,1.04-.32,3.13-.36,4.52-.68,2.69-.64,5.22-1.61,7.87-2.35Z"/>
  <path class="cls-12" d="M193.25,182.47l-4.43,56.59-7.22,1.37c-.51-.12-.89-3.22-.98-3.93-.46-3.33-.64-7.72-.76-11.12-.5-14.17.35-28.42.38-42.54l13.01-.37Z"/>
  <path class="cls-12" d="M212.93,154.62l-6.68-4.64c1.99-3.67,5.55-9.7,4.28-13.95-.78-2.61-5.33-7.03-5.76-10.23-.14-1.02.61-5.32.9-6.49.51-2.05,1.66-3.84,2.07-5.92,7.69,6.14,8.03,16.75,11.81,25.16-1.28,5.7-4.12,10.86-6.62,16.07Z"/>
  <path class="cls-8" d="M199.98,97.75c2.64,1.36,2.63-1.67,5.15-1.81-.07.85.18,1.91-.07,2.71-.34,1.11-2.65,1.43-3.11,2.83-.49,1.49-.23,4.65-.33,6.33l-6.32,6.7-.94.36c.25-1.61-3.51-6.32-3.31-7.17.31-1.28,3.07-.84,4.4-1.95,1.11-.92,1.09-2.1-.44-1.96-2.52.23-3.76,1.57-6.59-.27-4.95-3.22-.54-9.66.4-13.86,3.29,1.05,6.82-3.17,9.41-3.01,4.79.31.9,10.11,1.74,11.09ZM196.08,90.76c-.97.28-1.73,3.19.32,2.97,1.83-.2,1.49-3.49-.32-2.97ZM193.99,96.3c.06-.06-.26-1.39-.38-1.66-1.15-2.68-3.56,2.52.38,1.66Z"/>
  <path class="cls-12" d="M193.67,118.53h1.74c.3-1.52,6.08-8.12,6.93-8.12.34,0,.88.31.93.58.06.3-2.16,4.59-2.5,5.67-.77,2.45-.99,5.1-1.81,7.53l-13.48.3-1.11-12.15,5.51-2.29,3.78,8.48Z"/>
  <path class="cls-3" d="M198.91,81.73c1.12,1.19,2.7-1.53,5.45-.07,3.59,1.91.31,6.25,1.51,7.41.76.73,1.87-.07,1.42,1.75-.34,1.37-2.59,2.87-3.84,3.24s-.15-2.88-.16-3.5c-.02-1.18-.86-3.8-1.67-4.68-4.03-4.41-9.09,2.65-12.82,1.3-3.32-1.2-1.9-7.06.14-6.87.78.07,1.36,1.1,2.22,1.1,1.06-.24.39-3.05,2.88-3.81,5.01-1.55,3.64,2.82,4.86,4.12Z"/>
  <path class="cls-11" d="M153.86,118.96l-1.9,5.9c-3.71.11-7.09-2.31-10.53.04-1.26-1.96-.21-3.73-3.54-3.34l2.6-2.78-4.45-2.98c5.78,1.71,11.7,3.37,17.83,3.16ZM143.09,120.44c-.06-1.01,1.45-1.33.18-2.23-1.22-.31-3.12,2.2-2.03,3.52,2.79,3.36,9.71-2.98,1.85-1.3Z"/>
  <path class="cls-8" d="M203.91,165.64c-1.45,1.21-2.98-.87-3.87-1.92.37-1.81,3.82-4.29,2.69-6.14-.39-.63-1.61-.38-1.68-1.1,1.08-.3,2.2-.59,3.23-1.05,2.52-1.13,2.06-2.46,5.15-.07.64,1-2.16,5.73-2.88,6.81-.35.53-2.35,3.23-2.65,3.48Z"/>
  <path class="cls-11" d="M190.15,152.14c.8.9,1.19,2.27,1.99,3.21-2.25-.07-7.68-1.49-6.64-4.59.62-1.83,3.9.53,4.65,1.37Z"/>
  <path class="cls-13" d="M206.99,134.93c2.13,1.68,1.78,2.83,1.22,5.12-.17.69-.57,2.32-1.22,2.68v-7.8Z"/>
  <path class="cls-15" d="M118.94,225.93c4.14.76,8.28.63,12.46.73.8.02,1.54.39,2.23.4,1.71.02,3.86-.77,5.74-.39l-.75,19.69c-5.44.03-10.89,0-16.33-.02-1.15-6.79-2.04-13.65-3.36-20.41Z"/>
  <path class="cls-12" d="M118.94,225.93c-.1-.5-.39-.96-.37-1.48,11.1,1.02,22.31-.1,33.44-.37l-4.14,22.23c-3.07.11-6.16.04-9.24.05l.75-19.69c-1.88-.38-4.04.4-5.74.39-.69,0-1.43-.38-2.23-.4-4.18-.09-8.33.03-12.46-.73Z"/>
  <path class="cls-9" d="M138.26,215.9v6.69c-5.01.14-10.83.27-15.81.02-1.2-.06-5.87-.44-6.6-.83-1.19-.64-.27-4.91-1.38-6.42,0-.34,1.28-.23,1.67-.19,7.32.73,14.75,1,22.11.74Z"/>
  <path class="cls-12" d="M138.26,215.9c5.27-.19,10.56-.8,15.79-1.49.24,1.1.28,6.78-.63,7.19-5.03.43-10.1.85-15.15.99v-6.69Z"/>
  <path class="cls-12" d="M153.86,150.9c.45-.27.53-1.17,1.86-.74-.01,4.04-1.72,8.36-3.4,12.02-1.61,3.52-3.66,7.89-7.37,9.52,1.14-4.63,3.73-8.7,5.88-12.88.24-.47.83-1.25.06-1.61.88-.97,2.48-4.9,2.97-6.31Z"/>
  <path class="cls-3" d="M157.21,194.36c-.12.43.35,1.37-.55,1.11-2.12-.87-12.93-10.55-10.97-12.62,5.21.73,8.27,5.33,9.66,10.03l1.11-1.11c.29.88.44,1.74.74,2.6Z"/>
  <path class="cls-12" d="M126,177.27c-2.26-.34-.28,1.45.07,2.34,1.14,2.88,2.14,6.09,2.53,9.17-1.36,1.49-4.51-6.31-4.74-6.96-1.08-3.06-1.86-6.52-1.94-9.76,1.53-.39,1.87.64,2.6,1.11.18,1.39.84,2.86,1.49,4.09Z"/>
  <path class="cls-6" d="M153.86,150.9c-.5,1.41-2.1,5.35-2.97,6.31-.07.08-.78.06-1.12.54-2.57,3.59-4.47,7.94-5.95,12.09-.64.09-.35-.85-.37-1.29-.18-6.4,5.04-14.46,10.4-17.65Z"/>
  <path class="cls-12" d="M133.8,161.67c.29,1.1.46,2.24.74,3.34-.73.04-1.4-.37-.96.77,1.55,4.02,3.08,7.96,3.93,12.22-2.99-1.24-4.42-5.94-5.03-8.9-.37-1.79-1.59-7.67,1.31-7.44Z"/>
  <path class="cls-3" d="M100.73,191.02c1.05.57,2.74.94,3.72,1.49.03.02-.11.57.06.67,3.03,1.66,6.44,2.68,8.85,5.46-2.67,1.16-13.67-4.65-14.11-6.69-.21-.96,1.08-.8,1.48-.92Z"/>
  <path class="cls-5" d="M133.8,161.67c3.7.29,5.76,9.72,5.57,12.81-.02.3-.36,3.33-1.11,2.42-.33-4.22-2.68-7.87-3.72-11.89-.29-1.1-.45-2.24-.74-3.34Z"/>
  <path class="cls-10" d="M124.51,173.19c4.1,2.68,8.05,9.63,6.57,14.55-.09.31-.14,1.37-.62.86-1.09-2.45-1.13-5.39-2.21-7.82-.49-1.1-1.64-2.35-2.25-3.51-.64-1.22-1.31-2.7-1.49-4.09Z"/>
  <path class="cls-11" d="M157.21,194.36c-.31-.86-.45-1.72-.74-2.6-1.46-4.39-3.93-8.86-8.92-9.66-.56-.52.04-.67.55-.74,7.16-.95,10.74,6.99,9.11,13Z"/>
  <path class="cls-12" d="M164.64,196.59c.58.05,1.12.14,1.66.37l.03.76c-4.24,2.42-7.93,8.33-13.2,7.6,2-2.45,5.84-3.87,8.03-5.77.58-.5.12-.71.14-.73,1.1-1.19,2.53-1.03,3.34-2.23Z"/>
  <path class="cls-5" d="M163.89,167.99l-9.1,9.28c-.21-1.89,1.3-4.3,2.43-5.75,1.43-1.83,7.52-6.94,9.65-7.25-.53,1.4-2.27,2.66-2.97,3.71Z"/>
  <path class="cls-10" d="M100.73,191.02c2.65-.81,8.99.18,11.33,1.86.76.55,4.11,4.6,3.53,5.2-2.43-1.01-4.16-3.34-6.54-4.41-1.3-.59-3.17-1.03-4.6-1.16-.98-.55-2.66-.92-3.72-1.49Z"/>
  <path class="cls-8" d="M164.64,196.59c-.81,1.2-2.24,1.04-3.34,2.23-3.55.46-6.1,3.29-8.91,5.2,1.36-5.94,6.63-7.87,12.26-7.43Z"/>
  <path class="cls-3" d="M128.53,190.7c.64,1.04-1.15,9.72-4.02,9.22l1.67-9.65c.55-.82,1.64.28,2.35.43Z"/>
  <path class="cls-12" d="M166.87,164.27c.23-.03.5.01.74,0,.25.31-2.35,5.16-2.81,5.91-1.87,3.03-3.95,5.74-7.32,7.17-.33.14-1.07.66-1-.08l5.94-6.13c.84-.81.93-2.31,1.49-3.16.7-1.05,2.44-2.31,2.97-3.71Z"/>
  <path class="cls-5" d="M123.76,199.56c-.64.82-1.36-1.86-1.4-2.13-.52-3.58.15-6.64,1.4-9.94.16-.43.18-1.35.74-1.3,1.42,2.62.12,5.25-.31,8.04-.27,1.71-.42,3.59-.43,5.33Z"/>
  <path class="cls-14" d="M166.87,181.73c.51.02,1.37-.27,1.11.55-.83,2.65-6.32,6.18-8.73,7.62-2-3.57,3.35-3.79,5.02-5.39.37-.35.3-.85.37-.92.78-.85,1.27-1.23,2.23-1.86Z"/>
  <path class="cls-6" d="M166.87,181.73c-.96.63-1.45,1.01-2.23,1.86-2.11-.39-4.49,2.37-6.13,2.61-.58.08-.64,0-.57-.57.31-1.88,7.01-3.98,8.92-3.9Z"/>
  <path class="cls-12" d="M146.8,189.16c1.71,1.81-2.46,5.59-4.46,5.57.49-1.09,2.71-2.34,3.19-2.99.28-.39-.23-.68-.22-.72.19-.67,1.22-1.15,1.49-1.86Z"/>
  <path class="cls-7" d="M130.08,212.56v1.11s-5.57.37-5.57.37c-.21-.85.37-.9,1.01-1.01,1.46-.26,3.06-.02,4.56-.47Z"/>
  <path class="cls-10" d="M146.8,189.16c-.27.71-1.3,1.19-1.49,1.86l-2.05,1.11c-.46.15-.74-.09-.55-.55.3-.7,3.19-3.36,4.08-2.42Z"/>
  <rect class="cls-10" x="135.65" y="212.56" width="4.09" height="1.11"/>
  <path class="cls-2" d="M145.31,212.93c.07.93.09.64-.56.73-1.25.18-2.63.26-3.9.38v-1.11s4.46,0,4.46,0Z"/>
  <path class="cls-6" d="M134.54,212.56v1.11s-3.34,0-3.34,0c0-1.7,2.18-1.01,3.34-1.11Z"/>
  <path class="cls-4" d="M198.45,130.85c.79.73-3.98,4.8-4.72,5.15-1.63.44-1.42-2.02-2.33-2.55,0,2.03.52,3.74,1.68,4.01.7.16,1.68-.58,2.77-1.03.29.67-.35,9.43-1.48,8.54-.31-.9-.47-1.9-.74-2.8-.08-.27.15-.82-.56-.54-2.47.97-1.4,2.94-1.78,4.92-.41,2.17-1.68.43-1.97-.81-.47-2,.7-3.72-1.64-4.48l-.34,2.75-1.12.2c-1.19-4.22-.57-6.45,3.53-8.15.46-.71-1.19-4.54.54-5.41,1.44-.72,3.8,1.69,4.64,1.69.8,0,2.31-1.85,3.53-1.48Z"/>
  <path class="cls-1" d="M196.22,98.16c.29,4.38-8.15,3.56-7.82-.18.13-1.44,1.43.79,2.06,1.05,3.09,1.31,5.57-1.07,5.76-.87Z"/>
  <path class="cls-1" d="M196.08,90.76c1.81-.52,2.15,2.77.32,2.97-2.05.22-1.28-2.69-.32-2.97Z"/>
  <path class="cls-1" d="M190.85,90.74c1.26-.37,1.51,1.94.22,2.08-1.44.16-.9-1.88-.22-2.08Z"/>
  <path class="cls-1" d="M193.99,96.3c-3.94.86-1.53-4.34-.38-1.66.12.27.44,1.6.38,1.66Z"/>
  <path class="cls-1" d="M143.09,120.44c7.86-1.68.94,4.66-1.85,1.3-1.09-1.32.81-3.83,2.03-3.52,1.27.89-.23,1.22-.18,2.23Z"/>
  <rect class="cls-1" x="102.91" y="251.93" width="137.64" height="1.73" rx=".87" ry=".87"/>
</svg>