<?xml version="1.0" encoding="UTF-8"?>
<svg id="Livello_1" data-name="Livello 1" xmlns="http://www.w3.org/2000/svg" viewBox="0 0 327.31 327.31">
  <defs>
    <style>
      .cls-1 {
        fill: #fefdfd;
      }

      .cls-2 {
        fill: #fb5e5d;
      }

      .cls-3 {
        fill: #ea6f69;
      }

      .cls-4 {
        fill: #ea6c67;
      }

      .cls-5 {
        fill: #ed928f;
      }

      .cls-6 {
        fill: #fdfaf9;
      }

      .cls-7 {
        fill: #f1b0ae;
      }

      .cls-8 {
        fill: #fdfbfb;
      }

      .cls-9 {
        fill: #fdf7f6;
      }

      .cls-10 {
        fill: #f1afad;
      }

      .cls-11 {
        fill: #eb7e79;
      }

      .cls-12 {
        fill: #ed9391;
      }

      .cls-13 {
        fill: #ed9492;
      }

      .cls-14 {
        fill: #fefcfc;
      }

      .cls-15 {
        fill: #f1b0ad;
      }

      .cls-16 {
        fill: #fcf4f4;
      }

      .cls-17 {
        fill: #fefbfb;
      }

      .cls-18 {
        fill: #fcf1f1;
      }
    </style>
  </defs>
  <path class="cls-2" d="M205.39,150.92c-1.53-2.07-3.28-4-4.7-6.16-.74-1.13-3.29-6.19-3.78-6.57-.25-.19-5.53-2.07-5.87-2.1-1.19-.12-2.23.83-3.45,1-1.62.23-6.29.19-7.2-1.37-.85-1.47-1.63-10.88-1.15-12.5.42-1.46,4.09-2.33,5.45-2.66-1.79-2.44,1.7-4.23,1.7-5.69,0-1.54-2.95-3.05-3.51-4.4-.69-1.69-.41-3.65,1.81-3.36.18.67-.68.89-.63,1.49.19,2.15,5.67,3.93,4.17,7.39-.59,1.35-3.05,2.13-1.75,4.18,2.69.28,8.24.42,6.5,4.53,1.64-.16,3.24.31,4.72.98,2.48,1.12,3.81,3.05,5.31,4.01.48.31,1.28.24,1.84.57,2.99,1.73,7.37,5.63,9.7,8.24,1.34,1.51,2.3,3.31,3.61,4.83-.12-5.75,2.52-10.56,5.88-14.99.61-.81,3.06-3.21,3.26-3.64.83-1.85-.92-3.5,2.6-4.37l.29-2.81c-9.48-3.67-9.47-16.02-5.19-23.74.39-.7,2.39-3.23,2.42-3.44.18-.97-1.59-1.19.57-3.22,2.53-2.37,8.65-4.22,12.08-4.17,8.37.14,11.95,7.86,11.17,15.33-.14,1.32-1.73,5.26-1.66,5.54s.8.47,1.13.98c2.2,3.41-1.98,6.21-4.89,6.85l-.69,5.9c4.9,5.8,8.08,12.85,8.28,20.56,7.79,2.87,4.71,15.8,3.64,22.19-1.23,7.35-5.26,27.2-9.9,32.43-2.24,2.52-5.45,2.82-8.63,3.21l13.78,47.21c-.53.88-3.49.76-3.95.21l-14.5-37.59c-1.01-2.24-4.22-8.52-6.38-9.49-1.37-.61-7.2-.75-8.77-.51-2.21.35-6.81,6.75-8.14,8.77-.72,1.1-3.47,5.38-3.7,6.3-.25.98-.14,2.96-.08,4.05.39,7.77,1.74,16.29,2.41,24.15.13,1.53.11,3.14.2,4.68l-4.29.62c-1.2-8.18-2.75-16.43-2.81-24.78l-13.45,22.6c-1.1,1.56-5.57,1.95-5.12-.61.13-.75,1.9-4.5,2.36-5.6,4.26-10.26,9.3-20.21,13.78-30.3l-1.35-10.57-18.13-.02-1.62,1.48-19.79,29.22c-.14.53.69.76.85,1.3.3,1-1.84,6.78-2.36,8.21-.57,1.56-3.96,10.26-4.83,10.69-.27.14-.55.21-.86.2l-12.77-4.53c-3.85,1.06-7.56,2.57-11.5,3.36-1.63.33-6.32,1.41-7.51.49-.88-.68-2.38-6.46-2.55-7.8-.07-.56.11-2.44-.02-2.57-.08-.07-.93.02-1.35-.19-.88-.43-2.65-6.36-3.02-7.69-2.24-8.14-2.49-16.73-4.42-24.55-.53-2.14-2.1-7.27-4.82-7.26l-7.57,48.29c-.53.88-4.44.99-4.88.37l4.16-48.32c-2.52.94-6.05.25-8.46.86-3.86.98-7.61,8.81-9.12,12.26-4.78,10.9-8.69,22.55-12.86,33.7-.61,1.15-3.83,1.65-4.41.43l14.71-47.78-.07-.46c-7.79-2.83-10.73-11.39-11.93-18.95-1.4-8.88-1.25-19.88.81-28.63,1.1-4.66,2.88-10.42,8.38-11.11-.03-3.37-.89-6.41-.69-9.83.43-7.29,3.83-8.48,9.68-11.36.57-.28,1.67-.36,1.98-.61.16-.13,1.97-3.37,2.06-3.63.19-.49.63-3.26.43-3.53-6.58,5.92-13.6-5.1-5.17-7.94-3.88-7.7,3.3-17.07,11.21-17.93,1.15-.13,5.43-.16,6.31.25.55.26.63.89.86,1.03.4.24,1.1.09,1.53.36,5.28,3.32,6.33,7.71,5.96,13.7-.08,1.35-.74,3.19-.7,4.48.05,1.59,1.35,2.77,1.4,4.32-.97.36-2.1-2.14-2.24-2.07-1.08,1.4-1.55,3.16-2.75,4.49-.83.92-3.46,2.28-3.57,2.46-.08.12-.41,2.62-.39,2.86.06.82,1.05,1.84.68,2.95,2.66-.48,4.75-.46,7.24.69,1.04-4.9,3.4-1.03,6.56-2.42-.7-5.24,5.64-6.13,2.02-12.19-.69-1.15-2.09-1.39-2.36-2.64,3.02-.79,5.01,4.43,4.81,6.68-.27,3.02-3.91,5-3.44,8.15h1.73c-.57-3.62,3.39-5.67,3.79-9.14.11-.9.12-2.87-.07-3.72-.37-1.67-2.27-2.09-2.34-3.69,2.28-.65,4.09,3.19,4.15,5.01.16,4.61-4.01,7.22-3.81,11.54,1.13.27.55-1.2.85-2.08s1.48-2.47,2.6-2.4c.33,1.81-1.71,2.68-1.36,4.46,2.49.78,3.58-1.48,6.55-.51,1.77.58.57,1.76.85,2.28.08.15.64.29.86.59,1.58,2.12-.59,2.18-.71,2.74-.31,1.4.79,2.24-.72,4.36-.88,1.25-2.11,1.11-3,2.17-.27,7.45-3.3,15.36-6.65,21.98-.52,1.03-1.43,1.87-1.68,2.97h30.36l-.67-10.48-2.28-.89c-1.13-5.79,1.19-4.87,5.71-4.67l-1.37-2.08c-2.11.05-7.06-1.24-7.21-3.78s3.65-.55,4.92-.13c.36.12.69.7.55-.2-.28-1.75-2.24-1.77-3.55-2.66-1.08-.74-3.96-3.95-3.63-5.22.68-2.66,5.31,1.91,6.16,2.86-.32-.99-.15-2.61-.52-3.44-.54-1.21-2.46-2.27-3.04-4.55-.42-1.67-.69-5.07,1.84-4.26l2.06,3.28c-.62-2.24,1.58-9.9,4.31-9.68,2.49.2-.66,5.37-1.26,6.35-.6.97-1.86,1.58-1.66,2.99,1.45-1.61,2.71-3.4,5.17-3.11.47,2.39-1.63,3.86-2.41,5.86l1.57.33,2.56,3.12c.84-2.11-1.06-3.74-1.34-6.07-.22-1.79-.2-3.71.99-5.15h1.05s2.06,3.98,2.06,3.98c1.02-1.54.06-2.85.08-4.31.03-2.61.81-6.47,3.9-6.76,1.4.08.72,4.4.48,5.35-.38,1.55-1.44,2.88-2.04,4.34,1.37-.22,2.4-1.27,3.63,0,1.44,2.32-5.06,4.34-5.87,5.18-.35.36-1.4,3.55-1.21,3.79,1.56-1.52,5.32-3.27,4.21.48l2.33,4c2.39-3.51-3.49-6.92-.81-9.98l.81.14,2.07,3.28c.37-2.01.89-8.29,3.62-8.31,1.57,0,1.39,1.62,1.13,2.89-.51,2.44-3.46,4.05-3.71,6.63,1.25-.31,3.45-1.93,4.13-.02,0,1.27-2.48,3.67-3.47,4.48-1.09.89-2.96.82-2.74,2.95.9-.41,2.08-.64,2.96-.02,1.04,1.42-2.17,3.53-3.19,4.1-1.93,1.07-3.58.81-4.59,3.34l4.61.22c1.12.37.49,3.81-.02,4.69-.32.54-.96.59-1.09,1-.31.99-.25,3.39-.5,4.68-.36,1.84-.83,3.64-1.28,5.45h46.58ZM81.18,96.08c1.48-1.79,2.51-3.99,4.17-5.66,2.9-2.9,7.25-4.47,9.96-7.63-7.53-.56-14.42,5.71-14.14,13.28ZM97.74,82.63c-.48-.03-.66-.1-1.05.23-.87.76-1.81,2.29-2.93,3.21-4.05,3.33-10.55,5.72-11.2,11.73.69-.46,1.06-1.49,1.99-1.66.69-.13,1.21.3,1.79.11.8-.26,5.4-4.01,6.24-4.82,2.28-2.22,4.85-5.54,5.16-8.8ZM104.99,92.97c-.15-3.82-1.97-7.23-5.17-9.31.07,2.59,1.67,4.76,2.96,6.87l2.21,2.44ZM245.99,87.23c-3.85-3.87-13.76-2.01-17.46,1.48,3.06,4.96,7.28-.57,12.08,2.01,5.96,3.21-.69,11.12,1.55,13.97.49.63,1.65.42,1.54,1.39.84-.59,1.18-1.62,2.08-2.23.55-.37,1.52-.43,1.74-.75,1.08-1.51,1.66-8.35,1.27-10.22-.17-.84-2.2-5.05-2.8-5.65ZM90.5,107.8l.34-.86c.96-.64,4.23,3.34,7.84,1.98,3.75-1.41,7.18-9.92,6.22-13.62-.6-2.33-6.69-6.35-6.13-9.91l-1.58,2.73c-2.69,3.47-6.02,6.99-10.15,8.66l.69,2.06c-1.06-.01-1.36-1.32-2.54-1.29-1.42.03-2.04,2.83-1.08,4.05,1.15,1.45,2.8-.43,3.46,2.75.47,2.28,0,4.07-.54,6.23l7.24.69-3.79-3.45ZM237.48,119.19c1.93-.37,3.89-.62,5.8-1.1.61-.41-.77-6.68,1.67-8.16,1.54-.94,4.18-.94,3.87-3.6l-.64-.77c-2.02-1.01-3.43,2.85-6.69,1.17-4.69-2.42,2.17-11.69-1.26-14.26-2.81-2.11-5.39.69-8.06.5-.83-.06-3.76-1.5-3.98-1.35-4.41,7.1-6.46,20.56,3.43,23.95,3.77,1.29,5.7-.29,9.31-.85.11.11-.2,1.43-.34,1.72-3.03.92-5.66,2.2-8.97,1.72v2.07c.31.31,5.06-.88,5.87-1.04ZM80.14,106.43c-.8-2.94,2.32-3.98,2.07-6.55-3.19.79-5.14,4.38-2.07,6.55ZM86.01,103.67c-1.42.08-2.67.08-3.28-1.38-1.46,1.77-2.23,3.02-.02,4.5,1.63,1.09,3.75-2.69,3.29-3.12ZM157.43,109.53c.34-1.44,1.31-3.04,1.58-4.47.34-1.77-.65-1.6-1.3-.26-.68,1.41-.44,3.1-.97,4.55l.69.18ZM153.64,116.08c-.15-1.75.58-4.27-1.03-5.52-.61,1.7-.41,3.13.25,4.76.21.52-.21.94.77.76ZM90.15,111.95c-3.04-.62-4.29-.82-5.1,2.53.28,3.11,8.87,4.71,11.23,3.76,2.62-1.06,1.89-4.24-.25-5.26.12,1.81-.38,3.89-2.07,4.83l.99-5.14-3.56-.39c-.28.05-.74,5.14-2.61,4.84l1.38-5.17ZM165.02,116.08c.49-1.41,1.71-2.49,1.38-4.14-.67.39-1.34,1.71-1.56,2.4-.11.35-.53,1.74.18,1.73ZM143.28,118.15c-.04-1.67-.09-5.21-2.06-5.86-.21,1.56.3,2.99.98,4.37.2.41.63,1.4,1.09,1.49ZM146.05,117.46c1.38-1.43,3.24-3.19,3.62-5.17-1.41,1.48-3.47,2.96-3.62,5.17ZM160.19,112.64c-1.63.22-2.73,1.48-3.79,2.59l1.77-.64,2.01-1.95ZM126.03,115.39c-.23-1.13-3.47-.8-3.44-.17,1.02,1.54,2.07.41,3.44.17ZM99.81,141.26c.97-2.53,3.66-8.42,2.53-10.96-.26-.59-7.37-3.13-7.7-2.83-.82,3.61-1.88,7.2-3.39,10.58-.36.81-1.91,4.19-2.31,4.59-.45.44-1.36.71-1.17-.13.59-2.56,2.49-6.3,3.43-9,.49-1.4,1.71-7.48,2.96-7.7.35-.06,1,.38,1.16.28,1.07-4.85,5.19-6.79,9.67-7.6-1.13-1.81-3.7-.57-5.5-1.37-2.65,6.64-13.56,4.47-15.56-1.72l-.5-.02c-3.31,2.3-8.57,3.3-9.42,7.85-.9,4.87,1.02,14.32,2.29,19.28.73,2.84,1.95,5.55,2.46,8.4l-1.72-.35c-.35,2.65-5.04,13.04-4.45,14.95.22.73,2.59,1.21,3.41,1.44,5.17,1.45,11.55,2.09,16.91,1.89.93-.03,5.32-.11,5.72-.67l1.21-9.81c-.16-.85-6.36-.58-7.47-.58-.44,0-.79.36-.84.36-1.33,0-2.47-.34-3.61-.36-2.13-.03-5.73.36-7.6,0-.38-.07-1.22-.6-1.22-.85v-5.69h8.63l-3.28-3.1c-2.4-3.11-4.71-6.54-5.86-10.35-.32-1.05-1.18-3.07.51-3.1,1.66,3.85,3.29,7.86,5.88,11.2.5.65,1.2.99,1.72,1.56.09.1.1.67.49,1.05.33.32,2.79,2.48,2.97,2.56.36.16,3.48.15,3.77.02,1.49-.66,4.73-6.35,5.46-8.03.29-.66.25-1.37.42-1.82ZM113.61,123.67h-5.87l.52-1.03h6.38c-1.57-1.4-4.55-1.27-6.55-1.38-.3-.58.59-1.03.86-1.03h5.18c.16,0,.53-.43.86-.35v-.34c-.43.13-1-.35-1.21-.35h-5.69c-.4-.99.62-1,.68-1.27.16-.71.19-2.27-.68-2.53-1.3,7.26-7.58,3.05-10.88,9.3-.24.45-1.06,1.58-.52,1.91l5.33,1.88c.75-.17,1-2.73.89-3.44.8,0,.98.67,1.89.72.94.05,7.11-.79,7.86-1.15.38-.18.85-.53.94-.96ZM113.53,115.85c-.84-.46-2.4.13-3.33.27l-.04,1.69c3.95-.19,8.72,1,12.08-1.55-.51-.16-1.48-.51-1.95-.51-.73,0-1.1.56-1.33.56-.56,0-2.79-.63-3.81-.61-.64.01-.52.7-.68.74-.98.24-.78-.49-.95-.59ZM127.07,118.15c-.16-3.05-6.84-.16-5.86.69,2.04.14,3.93-.06,5.86-.69ZM148.12,117.81c-.19-.22-3.06,2.12-3.11,2.31-.29,1.02.25,2.5.35,3.55.62-.33.79-1.39,1.23-2.05.88-1.33,2.09-1.5,1.53-3.81ZM119.78,118.53l-3.75.32c.68,1.11-.35,1.48-1.03,2.24l.9,1.57c-.66,1.21-2.02.74-1.94,2.74,2.02.69,3.87.36,5.87-.16.47-.12.87-.71,1.26-.77.49-.08.98.33,1.85.11,2.06-.52,3.18-2.69,2.76-4.68-1.14-.27-.55,1.2-.84,2.09-.89,2.7-4.16,1.41-2.6-1.74-1.64.38-2.05-1.39-2.47-1.7ZM151.91,124.71c.23-2.36-.69-4.92-2.75-6.21-.54,1.44.8,1.41.98,1.94.44,1.33-.44,3.35,1.77,4.27ZM162.95,124.01c1.13.34,4.2-3.36,3.79-3.79-1.79.63-3.16,2-3.79,3.79ZM221.61,177.48c-.99-.19-2.04-.53-2.97-.65-.37-.05-1.25-.29-1.17.31,4.12,1.68,9.27,4.2,13.72,4.75,2.12.26,2.7-.12,4.05-1.63,8.98-10,17.43-34.03,14.78-47.2-.61-3.01-1.99-6.98-3.44-9.67-.48-.9-1.4-3.05-2.38-3.15l-15.01,2.07c.6,3.26-.57,2.9-2.06,4.67-3.24,3.86-5.91,8.88-6.82,13.87-.38,2.08.4,3.59-1.65,5.26-2.8-2.42-4.88-5.63-7.57-8.29-1.57-1.55-4.86-4.68-6.56-5.86-.29-.2-.34-.48-.87-.34.09,2.97-2.34,5.74-4.83,7.07,2.19,2.91,3.78,6.05,6.55,8.45,2.58,3.87,5.8,7.17,9.15,10.36.3.37.03,1.82-.18,2.06-.04.04-.68.14-1.04.49l-4.13,3.99,6.93-1.54c.37.04.84-.5,1.01-.53,1.76-.33,4.36-.22,6.21-.35-.36-2.19-.89-4.32-1.03-6.55-.38-6.1.19-15.8,3.65-21.01,1.49-2.24,5.36-5.45,8.16-5.12,7.15.84,8.38,8.2,8.89,14.06-1.04-.19-.67.53-.69,1.19-.19,5.87-.68,9.77-2.17,15.44-.77,2.94-3.82,13.61-5.98,15.06-3.19,2.13-8.96,1.68-12.55,2.8ZM157.43,120.57c-.56-.53-3.4,2.28-3.45,3.1.58.49,3.91-2.67,3.45-3.1ZM146.4,126.43c1.61-1.21,2.61-3.54,2.75-5.52-1.77,1.16-2.98,3.36-2.75,5.52ZM143.63,125.74c.48-.51-3.04-4.33-4.14-4.14.69,1.93,2.34,3.3,4.14,4.14ZM183.14,123.33c2.55.36,5.82-.26,8.45,0-.2-.58-1.76-.95-2.27-1.01-2.26-.26-4.8.01-7.04.32-.13.35.72.67.86.69ZM157.78,130.92c2.33-1.5.05-3.18-.27-4.73-.22-1.06.13-2.18-.25-3.2l-3.88,2.5-.43,3.36c.74-.53,1-1.53,1.94-2.02,2.88-1.51,1.84.82,1.99,1.87.06.41,1.34,1.19.9,2.22ZM151.56,128.85c.42-2.56-.28-3.15-1.89-4.82l-1.16,2.19,3.05,2.63ZM181.93,134.02c.02.19-.09.45.05.63,1.43.53,6.45,1.04,7.36-.3.3-.44.87-4.41.84-5.01s-.75-1.01-.69-2.05c.05-.87.87-1.34.73-2.24-.46-.02-.92.02-1.38,0-2.63-.15-5.31.11-7.93-.34.59,3.07.71,6.21,1.03,9.31ZM191.59,124.71h-.69v.69h.69v-.69ZM114.99,127.12c-.75-.02-1.35-.18-2.07-.35l-3.53,16.31c-1.22,1.62-1.23-.02-1.3-.09,0-1.51.18-3.07.45-4.56.75-4.21,3-7.49.54-11.61-.2-.13-3.18-.11-3.75-.05-.43.05-.89-.12-1.2.34-1.42,2.21.03,3.86-.22,6.35-.59,5.94-4.03,13.58-8.24,17.8h10.35c-.49-1.25-1.38-2.13-1.89-3.46-.3-.76-1.29-4.39-.87-4.82.59-.07.77-.05,1.2.35.38.36,1.9,3.59,2.44,4.46.34.54,1.05.85,1.18,1.06.06.09.03.83.26,1.28.7,1.35,3.82,1.64,4.92.97.32-.2,1.92-3.64,2.23-4.33.22-.49,1.1-1.99.53-2.4,2.73-4.01,4.7-11.76,5.52-16.56.09-.51.66-1.25.34-2.07-1.21.45-1.98,1.08-3.37,1.29-1.13.17-2.39.13-3.53.09ZM200.22,135.05c.05-.06.61-.02.84-.35.94-1.28,1.62-2.37.83-3.92-.14-.28-1.49-2.02-1.68-2.11-.67-.34-4.82-2.07-5.42-2.16-1.83-.3-5.66.28-2.75,2.06,2.28,1.39,6.18,1.63,5.76,5.45-1.14-.23-1.45-1.5-2.44-2.22s-2.23-1.01-3.27-1.56c-.56-.01-.47,2.6-.51,3.09-.01.2-.46.65-.35,1.03,1.63.31,3.38.87,4.93,1.46,1.9.73,1.71,2.11,3.55.27.38-.38.4-.93.49-1.04ZM151.22,131.95c.76-1.18-2.66-4.61-3.1-4.14.01,1.89,1.84,3.03,3.1,4.14ZM151.46,133.44c-.55-.75-2.92-1.72-3.52-2.86l-1.19-2.43c-.21,1.14,1.93,5.98,2.58,6.56.7.62,1.74.28,2.59.34.09-.08-.28-1.37-.46-1.61ZM145.36,131.26c-.91-1.38-2.94-2.02-4.48-2.41-.7.66,3.76,2.8,4.48,2.41ZM208.23,173.27c5.18.93,10.33,2.08,15.64,1.81,2.61-.13,7.94-.69,9.63-2.79,1.41-1.74,3.86-10.69,4.57-13.36,1.46-5.5,3.22-15.68,2.42-21.2-.44-3.06-4.32-8.94-7.83-7.67-.77.28-3.93,3.36-4.5,4.13-3.2,4.3-4.08,14.06-3.79,19.31.1,1.79,1.59,7.57.72,8.66-.76.96-16.62,3.54-19.01,4.28l2.14,6.82ZM155.66,135.01c.8-.74-.25-3.84-1.11-3.71-1.87.86-1.72,1.88-1.6,3.76l2.71-.05ZM160.54,136.09h-16.91s0,2.76,0,2.76h16.05s.81-.57.81-.57l.05-2.2ZM73.25,140.57c-.11-1.12.22-2.36-.17-3.45-4.3,2.19-5.56,5.53-6.57,9.99-2.44,10.76-3.28,33.51,4.49,42.09,3.26,3.6,5.82,4.74,10.71,5.16,1.76.15,5.19.36,6.86.32,2.25-.07,5.1-.84,7.42-1.04.03-1.82.15-3.68.38-5.48.09-.68.62-1.53.34-2.41-5.98.71-12.06,1.3-17.94-.34-5.37-3.71-6.09-5.6-6.9-12.07l1.41-5.64c-.08-.39-2.49-.72-2.03-2.01,1.33-5.68,2.62-11.37,5.1-16.68-.81-2.45-1.49-4.93-2.24-7.4-.17-.57.07-1.23-.85-1.03ZM253.35,141.95c-.05.45.02.93,0,1.38-1.11-.19-.58.56-.68,1.2-1.88,12.52-5.68,23.14-13.33,33.25-2.46,3.25-4.8,6.1-7.16,9.39-1.76,2.46-3.6,4.9-6.08,6.68,1.92.31,3.92.17,5.86.17,4.26,0,11.37.46,14.15-3.28,4.04-5.43,7.7-24.95,8.86-32.18.82-5.1,2.9-14.7-1.27-18.34-.19-.17-.27-.72-.69-.69l.34,2.41ZM159.16,140.57l-13.11-.35,1.03,10.69,9.96-.05c.88-3.39,1.81-6.79,2.12-10.3ZM80.49,156.44h130.08l-3.27-3.48c-19.45-.04-38.89.14-58.34.04-1.06,0-2.01-.37-3.07-.38-21.8-.1-43.61.11-65.4.01v3.8ZM107.75,157.82h-6.56c-1.01,11.78-1.92,23.59-3.11,35.35-1.66,16.5-3.93,32.98-5.17,49.5h1.53s13.31-84.85,13.31-84.85ZM108.1,166.09l8.47-4.13-1.91-3.98-5.52-.17-1.04,8.27ZM116.72,158.51c.04.37,1.32,2.61,1.45,2.69.53.31,3.71-.04,4.85.15,5.45.91,8.69,9.32,10.67,13.83,4.66,10.64,7.9,21.87,11.15,33,2.24-2.38,1.55-5.98,1.9-9.14,1.2-10.73,2.5-24.14,7.69-33.7,1.46-2.69,5.42-6.39,8.53-6.83,6.25-.88,19.21,3.12,26.1,4.09.5.07,4.25.59,4.27.21l-.69-5c-9.89,0-19.79,0-29.67,0-15.41-.01-30.83,0-46.23,0l-.34.51.34.18ZM205.39,165.41c1.39-2.81,4.77-4.53,7.02-6.61.28-.26.91-.44.23-.81-1.35-.75-6.7.16-8.46.21-1.28.04-2.53-.82-3.97-.03l1.21,4.82,3.96,2.42ZM198.84,158.16h-4.83l.7,4.81c1.78.27,3.39-.81,5.16-.68l-1.03-4.14ZM229.2,187.48c1.18-1.01,2.46-2.14,2.76-3.79-3.29-.27-7.02-1.27-10.09-2.5-3.43-1.37-6.66-4.06-9.92-5.26-1.4-.52-3.23-.56-4.4-1.11-.47-.22-.4-.82-.61-.81-.47,0-2.11.89-3.13,1.02-3.99.48-7.78-.1-10.67-3.05-2.47-2.52-1.03-4.62-1.19-4.83-.29-.37-3.71-1.2-1.72-3.12-3.06-.54-6.42-.61-9.45-1.08-4.83-.75-10.09-2.3-14.92-2.67-7.66-.58-9.91,5.67-11.95,11.76-3.53,10.56-4.04,22.02-5.43,33.03h6.21l9.86-28.6c2.09-3.05,9.23-3.84,12.75-4.16,2.46-.22,4.87-.01,7.24,0,.95,0,4.62-.39,5,0,.66.7-1.28.94-1.59.99-4.51.67-18.25.36-21.2,3.4-1.2,1.24-2.91,8.48-3.69,10.71-4.05,11.68-8.14,23.33-11.76,35.16.02,1.03,3.81,2.22,4.77,2.51.31.1.73.66,1.34.3l20.22-30.32c.59-1.5-2.83-2.65-3.97-3.43-.66-.46-3.24-2.23-2.41-3.1.92-.97,7.89,6.17,7.05-1.4l1.57-.32c-.12.72.29,1.43.35,2.07.07.8-.18,4.64.56,4.85,10.3-.57,20.69-.44,31.03-.38,3.38.02,8.23.86,11.44-.26,2.35-.82,5.38-3.05,5.97-5.59ZM117.06,163.68l-8.97,3.96c-.47.4-.53,2.21-.69,2.93-.92,4.32-1.05,8.8-2.07,13.1.39.41,9.05-4.25,10.09-4.84,1.29-.73.85-.32,1.98-.68.67,2.66,2.38,4.83,3.63,7.24,4.84,9.34,9.37,18.84,14.69,27.92.43.28.92-.32,1-.32,2.73-.2,6.62.39,6.89-3.29.12-1.71-2.19-9.16-2.85-11.27-2.32-7.43-10.31-30.07-16.15-34.22-1.92-1.36-5.85-2.31-7.56-.55ZM205.74,171.61c-.39-1.69-.64-3.42-1.12-5.09l-5.26-2.52-7.42,1.4,2.39,1.59c.27.89-.83,1.2-.98,1.75-.29,1.09,2.15,2.61,3.07,2.86-.15.75,1.38,1.33,1.82,1.45,2.59.72,5.22-.39,7.84-.42.12-.43-.28-.76-.34-1.03ZM74.63,170.23c-2.92,14.88,11.62,15.74,22.38,13.75.86-3.61.68-7.32,1.08-10.99l.34-3.1c-7.88,1.32-15.71.84-23.28-1.73-.15,0-.44,1.68-.52,2.07ZM109.13,184.72c-.33,1.1-.38,1.35-.34,2.59.21,6.44,1.53,15.16,2.46,21.68,1.19,8.33,2.78,16.73,5.5,24.68,1.67-.01,3.25-.46,4.8-1.01.72-.25,1.92.01,2.07-1.21.17-5.05-.23-10.15-.01-15.19.23-5.38,2.01-14.15.97-19.22-.56-2.74-5.95-11.17-7.46-14.61-.36-.82-.73-1.62-.74-2.54-1.32,1.57-5.87,2.55-6.9,3.63-.46.48-.23.83-.34,1.2ZM103.96,193l3.63-1.72-.18-4.49-2.71.74-.73,5.47ZM107.75,193l-3.1,1.21,3.45,2.59-.34-3.79ZM201.94,195.07c-.68-.04-1.39.03-2.07,0-.28.27.53,6.82.72,7.74.09.41.16.82.66.89.38-1.66,1.63-2.65,1.38-4.48,1.48-.25,1.64-2.42,2.42-3.44-1.11-.33-1.91-.62-3.11-.69ZM81.18,196.1c-.73-.08-4.21-.97-4.49-.69-1.53,9.37-5.25,18.2-8.18,27.18-1.88,5.77-4.6,12.82-5.9,18.6-.31,1.37.89.98,1.39,0,.87-1.7,1.71-6.35,2.34-8.53.93.2.66-.47.86-1.02,2.88-8.11,6.54-18.67,10.35-26.23,1.72-3.42,3.88-6.56,6.74-9.13-.93-.4-2.12-.06-3.1-.17ZM186.76,239.91c-.44,1.04.09,1.96.84,1.01l21.65-38.37,5.45-6.97c-.8-.33-1.88-.16-2.76-.17-1.34-.02-4.77-.37-5.48.55-4,9.29-8.71,18.28-12.86,27.5-1.21,2.68-2.08,5.48-3.22,8.16-1.17,2.74-2.98,5.32-3.62,8.28ZM231.96,196.1c-.51.01-1.36-.17-1.72.17,1.94,1.72,3.43,4.16,4.55,6.49,2.21,4.59,4.22,10.48,6.06,15.33,2.94,7.77,5.46,15.75,8.38,23.53.5-.04,1.11.35.97-.45-1.05-5.93-4.61-14.03-6.59-19.97-1.01-3.03-1.52-6.17-2.67-9.23l-4.17-15.83c-1.59-.04-3.21-.08-4.8-.04ZM134.31,214.04l-7.93-13.45c-.26,3.13-.15,6.36-.35,9.48-.28,4.34-.94,8.75-1.05,13.1-.11,4.2-.38,8.59,1.09,12.56,1.14.74,15.26-4.49,17.59-5l2.38-7.37c-2.01.43-4.27,2.63-6.31,2-1.26-.39-1.74-3.54-2.54-4.1-1.87-1.31-6.55-2.62-8.86-3.82-1.1-.58-2.59-.95-2.27-2.5l.55-.5c2.61.02,5.14-1.32,7.71-.4ZM151.22,207.14c-2.87.04-4.68-.57-5.13,3.05,1.15.56,2.86,1.3,2.71,2.81-1.73.44-2.42-1.18-3.95-1.4-2.54,3.15,2.27,2.31,2.57,5.19-2.52.44-3.64-2.14-5.72-2.75l-11.87,1.72,6.46,3.02,9.75,2.84.02.66.67.02c.48-2.12,1.51-2.73,3.11-1.03l4.14-13.98c.11-.85-.06-.36-.34-.35-.79.04-1.53.17-2.41.18ZM208.15,242.66c-1.26-8.17-2.01-16.42-2.76-24.66-.11-1.26.51-3.28-.69-3.96-.14,1.28-1.36,2.26-1.36,3.57,0,1.59.82,4.44,1.01,6.26.65,6.26,1.39,12.54,1.73,18.8h2.07ZM142.6,222.66l-3.45-.69,1.26,1.69c.34.1,2.07-.45,2.19-1ZM155.02,227.14c-1.46-.72-2.97-1.88-4.46-2.61l-2.09-2.22-1.04,3.79c1.7.57,4.53.38,4.48,2.76l-5.19-.89-.68,1.58c.98.31,4.12,1.48,4.15,2.59-1.81.86-3.13-.76-4.83-.86-.44.42,2.86,4.35,1.2,4.82-1.13.32-2.21-2.15-2.27-3.06-.9-.78-10.19,3.17-12.04,3.07.17.49,1.35.9,1.83,1.1,4.74,1.91,9.53,3.85,14.38,5.45.62.21,2.56,1.38,3.07,1.01l5.49-14.72c.45-1.86-1.25-1.43-2.01-1.81ZM124.31,233.35l-5.87,1.72,2.46,8.92c.73.47,8.35-1.04,9.74-1.38.76-.18,5.53-1.47,5.74-1.68.49-.51-.13-.59-.44-.76-.9-.5-6.2-2.77-7.05-2.95-3.06-.65-4.58,1.95-4.58-3.87Z"/>
  <path class="cls-3" d="M189.17,101.94c.2,1.04-.81,1.82-.97,2.67-.69,3.55,5.13,6.11,3.31,11.22-.54,1.51-1.74,2.72-3.37,3-.42-1.52,1.21-1.97,1.57-3.08,1.21-3.75-3.76-6.63-3.31-10.89.15-1.36,1.32-3,2.77-2.93Z"/>
  <path class="cls-1" d="M156.05,225.08c-.96-.29-4.75-1.48-4.77-2.51,3.62-11.83,7.71-23.48,11.76-35.16.77-2.22,2.49-9.47,3.69-10.71,2.94-3.04,16.69-2.72,21.2-3.4.31-.05,2.25-.29,1.59-.99-.38-.4-4.05,0-5,0-2.38,0-4.78-.21-7.24,0-3.52.31-10.66,1.11-12.75,4.16l-9.86,28.6h-6.21c1.39-11.01,1.9-22.47,5.43-33.03,2.04-6.09,4.29-12.34,11.95-11.76,4.83.37,10.09,1.92,14.92,2.67,3.03.47,6.39.54,9.45,1.08-1.99,1.91,1.43,2.74,1.72,3.12.16.21-1.28,2.31,1.19,4.83,2.89,2.95,6.68,3.53,10.67,3.05,1.02-.12,2.66-1.01,3.13-1.02.21,0,.14.6.61.81,1.17.54,3,.59,4.4,1.11,3.26,1.2,6.49,3.89,9.92,5.26,3.08,1.23,6.81,2.23,10.09,2.5-.3,1.65-1.58,2.78-2.76,3.79-6.72,5.75-17.09,3.9-25.37,4.12-5.24.14-11.06,1.04-16.2.64-3.5-.27-5.02-.77-7.42-3.38-.05-.64-.46-1.35-.35-2.07l-1.57.32c.84,7.57-6.13.44-7.05,1.4-.83.87,1.75,2.65,2.41,3.1,1.06,2.84-.66,5.51-1.89,7.94-3.83,7.52-9.68,17.57-14.59,24.39-.32.44-.56.92-1.11,1.13Z"/>
  <path class="cls-7" d="M92.91,168.86c-5.36.2-11.74-.44-16.91-1.89-.82-.23-3.19-.71-3.41-1.44-.59-1.91,4.1-12.3,4.45-14.95l1.72.35c-.51-2.85-1.73-5.56-2.46-8.4-1.27-4.96-3.19-14.41-2.29-19.28.84-4.55,6.11-5.55,9.42-7.85l.5.02c2,6.19,12.9,8.36,15.56,1.72,1.8.8,4.37-.43,5.5,1.37-4.48.81-8.6,2.75-9.67,7.6-.16.11-.8-.34-1.16-.28-1.25.22-2.48,6.3-2.96,7.7-.94,2.69-2.84,6.44-3.43,9-.19.83.72.57,1.17.13.4-.4,1.94-3.78,2.31-4.59,1.51-3.38,2.57-6.97,3.39-10.58.34-.3,7.44,2.24,7.7,2.83,1.13,2.54-1.56,8.44-2.53,10.96-3.38,4.6-6.92,8.26-13.11,6.21-.52-.57-1.22-.91-1.72-1.56-2.58-3.34-4.21-7.35-5.88-11.2-1.69.03-.83,2.05-.51,3.1,1.15,3.81,3.46,7.24,5.86,10.35l3.28,3.1h-8.63v5.69c0,.26.84.78,1.22.85,1.86.36,5.47-.03,7.6,0,1.14.02,2.28.35,3.61.36,1.66.59,1.86,2.05,2.03,3.66.25,2.36.07,4.78-.65,7.03Z"/>
  <path class="cls-15" d="M205.39,147.13c-2.78-2.4-4.37-5.54-6.55-8.45,2.49-1.33,4.92-4.09,4.83-7.07.52-.14.57.14.87.34,1.7,1.18,4.99,4.31,6.56,5.86,2.69,2.65,4.77,5.87,7.57,8.29,2.05-1.67,1.27-3.18,1.65-5.26.91-5,3.58-10.01,6.82-13.87,1.49-1.77,2.65-1.4,2.06-4.67l15.01-2.07c.97.1,1.9,2.25,2.38,3.15,1.45,2.69,2.83,6.66,3.44,9.67,2.65,13.17-5.8,37.2-14.78,47.2-1.36,1.51-1.93,1.89-4.05,1.63-4.44-.55-9.59-3.06-13.72-4.75-.09-.6.8-.35,1.17-.31.93.12,1.98.47,2.97.65.77.14,1.59.59,2.6.68,10.17.93,12.89-3.24,15.95-11.98,2.34-6.7,3.46-16.16,2.85-23.19-.51-5.86-1.75-13.22-8.89-14.06-2.8-.33-6.67,2.88-8.16,5.12-3.46,5.21-4.03,14.91-3.65,21.01-6.28-.48-11.58-3.81-16.23-7.75-.21-.18-.6-.12-.67-.19Z"/>
  <path class="cls-7" d="M208.23,173.27l-2.14-6.82c2.39-.74,18.25-3.32,19.01-4.28.87-1.1-.62-6.88-.72-8.66-.29-5.25.6-15.01,3.79-19.31.57-.77,3.73-3.85,4.5-4.13,3.51-1.27,7.39,4.61,7.83,7.67.8,5.52-.97,15.69-2.42,21.2-.71,2.68-3.17,11.62-4.57,13.36-1.7,2.1-7.03,2.65-9.63,2.79-5.31.27-10.46-.88-15.64-1.81Z"/>
  <path class="cls-1" d="M117.06,163.68c1.71-1.76,5.64-.82,7.56.55,5.83,4.14,13.82,26.79,16.15,34.22.66,2.11,2.97,9.55,2.85,11.27-.26,3.69-4.15,3.09-6.89,3.29-4.43-12.28-11.1-23.66-16.85-35.3l.98-1.6c-.69-.62-3.15,1.97-3.45,2.07-1.13.35-.7-.06-1.98.68-1.04.59-9.71,5.25-10.09,4.84,1.02-4.31,1.15-8.79,2.07-13.1,2.62-1.89,6.1-2.97,8.41-5.21.46-.44.8-1.22,1.25-1.69Z"/>
  <path class="cls-15" d="M73.25,140.57c.2,2.11,1.54,6.42,1.38,8.07-.15,1.55-2.55,6.49-3.19,8.56-.6,1.94-2.53,7.98-1.8,9.57.35.78,2.03,1.24,2.16,1.94.09.45-.36,2.45-.29,3.46.04.64.35,1,.37,1.16.81,6.47,1.53,8.36,6.9,12.07.81.56,1.15,1.18,2.32,1.65,4.46,1.81,10.61,1.73,15.28,1.11-.23,1.8-.35,3.66-.38,5.48-2.32.19-5.17.97-7.42,1.04-1.67.05-5.09-.16-6.86-.32-4.89-.42-7.45-1.57-10.71-5.16-7.77-8.58-6.93-31.33-4.49-42.09,1.01-4.45,2.27-7.8,6.57-9.99.39,1.09.06,2.32.17,3.45Z"/>
  <path class="cls-8" d="M80.49,156.44v-3.8c21.79.1,43.6-.12,65.4-.01,1.06,0,2.01.37,3.07.38,19.45.1,38.89-.08,58.34-.04l3.27,3.48H80.49Z"/>
  <path class="cls-1" d="M109.13,184.72l6.53-1.69c.84,2.09,1.18,4.4,1.94,6.51,1.21,3.34,2.65,5.32,2.93,9.14.71,9.49-.26,20.05.32,29.69.08,1.36.46,2.94.7,4.3-1.54.54-3.13.99-4.8,1.01-2.72-7.96-4.31-16.35-5.5-24.68-.93-6.52-2.25-15.24-2.46-21.68-.04-1.24,0-1.49.34-2.59Z"/>
  <path class="cls-14" d="M240.59,116.43c.14-.29.46-1.61.34-1.72-3.6.57-5.54,2.15-9.31.85-9.89-3.39-7.83-16.85-3.43-23.95.22-.15,3.15,1.29,3.98,1.35,2.68.19,5.25-2.6,8.06-.5,3.43,2.57-3.43,11.84,1.26,14.26,3.26,1.68,4.67-2.18,6.69-1.17l.64.77c.32,2.66-2.33,2.66-3.87,3.6-2.44,1.48-1.05,7.75-1.67,8.16-1.91.47-3.87.73-5.8,1.1.86-.99,2.52-1.55,3.11-2.76ZM228.03,98.18c-.8.24-1.34,2.44-.37,2.72,1.96.27,2.09-3.25.37-2.72ZM234.42,101.21c.63.97,3.17-.49,2.05-1.87-1.22-1.52-2.72.84-2.05,1.87ZM231.96,100.91c-.34-.4-2.7,1.97-2.77,2.6-.24,2.09,4.35,1.68,1.4-.01.81-.76,1.62-1.31,1.38-2.59ZM228.74,109.3c.53.74.39,1.35,1.51,2.11,3.42,2.31,6.62-.53,6.39-3.97-.74-1.05-4.21.71-5.54.71s-2.33-.91-3.62-1.03c-.45,1.57.85,1.61,1.27,2.18Z"/>
  <path class="cls-8" d="M107.75,157.82l-13.31,84.86h-1.53c1.25-16.53,3.51-33.01,5.17-49.51,1.19-11.76,2.1-23.57,3.11-35.35h6.56Z"/>
  <path class="cls-17" d="M231.96,194.03c9.5-8.86,16.1-21.51,19.22-34.07,1.49-5.99,1.91-10.51,2.17-16.63.02-.45-.05-.93,0-1.38.04-.31.67-1.07.35-1.72,4.17,3.64,2.09,13.25,1.27,18.34-1.16,7.23-4.82,26.75-8.86,32.18-2.78,3.74-9.89,3.28-14.15,3.28Z"/>
  <path class="cls-15" d="M105.33,126.78c.83,5.3,2.32,10.55,2.06,15.98.1.38.65.18.7.23.07.07.09,1.72,1.3.09l3.53-16.31c.71.17,1.32.32,2.07.35.69,2.38,4.82,1.33,6.56.69-.82,4.8-2.79,12.54-5.52,16.56-1.37,2.01-5.33,5.71-7.94,4.48-.14-.21-.85-.52-1.18-1.06-.55-.87-2.06-4.1-2.44-4.46-.43-.4-.61-.42-1.2-.35-.42.43.57,4.06.87,4.82.51,1.33,1.4,2.21,1.89,3.46h-10.35c4.21-4.22,7.65-11.86,8.24-17.8.25-2.49-1.21-4.13.22-6.35.31-.46.77-.3,1.2-.34Z"/>
  <path class="cls-14" d="M90.5,107.8l3.79,3.45-7.24-.69c.53-2.16,1.01-3.95.54-6.23-.66-3.18-2.32-1.29-3.46-2.75-.96-1.22-.35-4.02,1.08-4.05,1.18-.03,1.48,1.28,2.54,1.29l-.69-2.06c4.13-1.67,7.45-5.18,10.15-8.66l1.58-2.73c-.56,3.56,5.53,7.58,6.13,9.91.96,3.7-2.48,12.2-6.22,13.62-3.61,1.36-6.88-2.61-7.84-1.98l-.34.86ZM99.47,97.11c-1.82.1-.66,1.51-.68,2.22,0,.2-.53.19-.58.29-.95,1.73,1.13,1.6,1.92.37l-.66-2.87ZM100.85,102.29c-2.36.57-3.72.34-5.86-.69-.94,1.07,2.03,2.64,2.96,2.75,1.33.16,3.04-.42,2.9-2.06Z"/>
  <path class="cls-14" d="M98.09,172.99c-.41,3.67-.22,7.38-1.08,10.99-10.76,1.99-25.3,1.13-22.38-13.75,7.28,2.7,15.77,4.21,23.46,2.76Z"/>
  <path class="cls-12" d="M253.35,143.33c-.26,6.12-.68,10.64-2.17,16.63-3.12,12.57-9.72,25.22-19.22,34.07-1.94,0-3.95.14-5.86-.17,2.48-1.78,4.32-4.22,6.08-6.68,2.36-3.3,4.7-6.14,7.16-9.39,7.65-10.11,11.46-20.73,13.33-33.25.1-.64-.43-1.4.68-1.2Z"/>
  <path class="cls-12" d="M121.55,232.66c-.25-1.36-.62-2.94-.7-4.3-.58-9.64.4-20.2-.32-29.69-.29-3.82-1.72-5.8-2.93-9.14-.76-2.11-1.1-4.42-1.94-6.51l-6.53,1.69c.11-.38-.12-.72.34-1.2,1.04-1.08,5.58-2.06,6.9-3.63.01.92.39,1.72.74,2.54,1.51,3.45,6.9,11.87,7.46,14.61,1.04,5.07-.74,13.85-.97,19.22-.21,5.04.19,10.14.01,15.19-.15,1.22-1.35.95-2.07,1.21Z"/>
  <path class="cls-10" d="M245.99,87.23c.6.61,2.63,4.81,2.8,5.65.39,1.87-.19,8.72-1.27,10.22-.23.32-1.2.38-1.74.75-.9.61-1.23,1.64-2.08,2.23.11-.97-1.05-.76-1.54-1.39-2.24-2.85,4.41-10.76-1.55-13.97-4.8-2.59-9.02,2.95-12.08-2.01,3.71-3.49,13.61-5.34,17.46-1.48Z"/>
  <path class="cls-10" d="M148.46,242.67c-4.86-1.6-9.64-3.54-14.38-5.45-.48-.19-1.66-.61-1.83-1.1,1.85.1,11.14-3.85,12.04-3.07.07.92,1.15,3.39,2.27,3.06,1.66-.48-1.65-4.4-1.2-4.82,1.7.1,3.02,1.72,4.83.86-.02-1.11-3.17-2.28-4.15-2.59l.68-1.58,5.19.89c.05-2.38-2.79-2.19-4.48-2.76l1.04-3.79,2.09,2.22c1.49.73,3,1.89,4.46,2.61-2.36,5-5.27,10.14-6.56,15.52Z"/>
  <path class="cls-7" d="M159.16,140.57c-.3,3.51-1.23,6.91-2.12,10.3l-9.96.05-1.03-10.69,13.11.35Z"/>
  <path class="cls-12" d="M211.95,195.41c.88.01,1.95-.16,2.76.17l-5.45,6.97-21.65,38.37c-.75.95-1.28.03-.84-1.01,3.64-8.65,9.14-18.86,13.74-27.14,3.37-6.07,6.95-12.05,11.45-17.36Z"/>
  <path class="cls-7" d="M124.31,233.35c0,5.82,1.53,3.22,4.58,3.87.85.18,6.15,2.45,7.05,2.95.31.17.93.26.44.76-.21.21-4.98,1.5-5.74,1.68-1.39.34-9.01,1.84-9.74,1.38l-2.46-8.92,5.87-1.72Z"/>
  <path class="cls-12" d="M117.41,178.17c.3-.09,2.76-2.69,3.45-2.07l-.98,1.6c5.75,11.64,12.43,23.02,16.85,35.3-.09,0-.57.61-1,.32-5.32-9.08-9.84-18.58-14.69-27.92-1.25-2.4-2.96-4.57-3.63-7.24Z"/>
  <path class="cls-17" d="M113.61,123.67c-.09.43-.57.78-.94.96-.76.36-6.92,1.2-7.86,1.15-.91-.05-1.1-.73-1.89-.72.11.7-.14,3.27-.89,3.44l-5.33-1.88c-.55-.33.28-1.46.52-1.91,3.3-6.25,9.58-2.04,10.88-9.3.87.26.84,1.82.68,2.53-.06.27-1.08.28-.68,1.27h5.69c.21,0,.78.48,1.21.35v.34c-.33-.08-.7.35-.86.35h-5.18c-.27,0-1.16.46-.86,1.03,2,.11,4.98-.02,6.55,1.38h-6.38l-.52,1.03h5.87Z"/>
  <path class="cls-13" d="M229.2,187.48c-.58,2.54-3.62,4.77-5.97,5.59-3.22,1.12-8.07.28-11.44.26-10.33-.06-20.73-.19-31.03.38-.73-.2-.49-4.04-.56-4.85,2.4,2.61,3.91,3.11,7.42,3.38,5.14.4,10.97-.49,16.2-.64,8.28-.23,18.65,1.62,25.37-4.12Z"/>
  <path class="cls-5" d="M231.96,196.1c1.31,1.63,2.76,3.14,3.85,4.94,1.71,2.82,3.95,7.81,5.12,10.92,1.15,3.06,1.66,6.2,2.67,9.23,1.98,5.95,5.55,14.04,6.59,19.97.14.8-.46.4-.97.45-2.92-7.78-5.44-15.76-8.38-23.53-1.84-4.85-3.85-10.73-6.06-15.33-1.12-2.33-2.61-4.77-4.55-6.49.36-.34,1.21-.16,1.72-.17Z"/>
  <path class="cls-11" d="M222.3,155.06c.14,2.23.68,4.36,1.03,6.55-1.85.12-4.44.02-6.21.35-1.04-.65-2.13-1.32-2.76-2.41.21-.24.48-1.69.18-2.06-3.35-3.18-6.57-6.49-9.15-10.36.07.06.46,0,.67.19,4.65,3.94,9.96,7.27,16.23,7.75Z"/>
  <path class="cls-9" d="M211.95,195.41c-4.5,5.31-8.07,11.29-11.45,17.36-4.6,8.28-10.11,18.48-13.74,27.14.64-2.96,2.45-5.54,3.62-8.28,1.14-2.68,2.01-5.49,3.22-8.16,4.15-9.21,8.86-18.21,12.86-27.5.72-.92,4.14-.57,5.48-.55Z"/>
  <path class="cls-17" d="M196.42,171.61c-.92-.26-3.36-1.77-3.07-2.86.15-.55,1.25-.86.98-1.75l-2.39-1.59,7.42-1.4,5.26,2.52c.49,1.66.73,3.4,1.12,5.09-2.88.17-6.49.78-9.32,0Z"/>
  <path class="cls-10" d="M151.22,207.14l-5.18,14.49-9.75-2.84-6.46-3.02,11.87-1.72c2.08.61,3.2,3.19,5.72,2.75-.3-2.88-5.1-2.04-2.57-5.19,1.53.22,2.22,1.84,3.95,1.4.14-1.51-1.56-2.25-2.71-2.81.45-3.62,2.26-3.01,5.13-3.05Z"/>
  <path class="cls-11" d="M243,142.99c.61,7.03-.5,16.5-2.85,23.19-3.06,8.74-5.77,12.91-15.95,11.98-1.01-.09-1.82-.54-2.6-.68,3.59-1.12,9.36-.67,12.55-2.8,2.17-1.45,5.21-12.12,5.98-15.06,1.49-5.66,1.97-9.57,2.17-15.44.02-.66-.35-1.38.69-1.19Z"/>
  <path class="cls-13" d="M74.63,170.23c.08-.4.37-2.08.52-2.07,7.57,2.57,15.4,3.05,23.28,1.73l-.34,3.1c-7.69,1.45-16.18-.06-23.46-2.76Z"/>
  <path class="cls-11" d="M91.53,158.16s.39-.36.84-.36c1.11,0,7.31-.27,7.47.58l-1.21,9.81c-.39.56-4.79.63-5.72.67.72-2.25.9-4.67.65-7.03-.17-1.62-.37-3.07-2.03-3.66Z"/>
  <path class="cls-12" d="M81.18,196.1c.98.11,2.18-.23,3.1.17-2.86,2.57-5.02,5.72-6.74,9.13-3.81,7.57-7.47,18.12-10.35,26.23-.19.55.08,1.22-.86,1.02,2.59-8.92,5.85-20.17,9.49-28.62,1.18-2.75,3.09-5.98,5.34-7.94Z"/>
  <path class="cls-13" d="M173.65,191.62c1.13.78,4.56,1.93,3.97,3.43l-20.22,30.32c-.61.36-1.03-.21-1.34-.3.55-.21.79-.68,1.11-1.13,4.91-6.82,10.76-16.87,14.59-24.39,1.24-2.43,2.95-5.1,1.89-7.94Z"/>
  <path class="cls-10" d="M97.74,82.63c-.31,3.26-2.88,6.59-5.16,8.8-.83.81-5.44,4.56-6.24,4.82-.58.19-1.11-.24-1.79-.11-.93.17-1.29,1.2-1.99,1.66.65-6.01,7.15-8.4,11.2-11.73,1.11-.91,2.06-2.45,2.93-3.21.39-.34.57-.26,1.05-.23Z"/>
  <path class="cls-8" d="M200.22,135.05c-3.09.44-5.66-1.34-8.63-1.72.03-.48-.05-3.1.51-3.09,1.04.55,2.31.86,3.27,1.56s1.29,1.99,2.44,2.22c.42-3.82-3.49-4.05-5.76-5.45-2.91-1.78.92-2.36,2.75-2.06.6.1,4.76,1.83,5.42,2.16.19.1,1.54,1.83,1.68,2.11.79,1.54.11,2.64-.83,3.92-.24.32-.8.29-.84.35Z"/>
  <path class="cls-15" d="M188.83,125.05c-.27,4.36-1.05,10.19-6.9,8.97-.33-3.1-.44-6.24-1.03-9.31,2.63.45,5.3.19,7.93.34Z"/>
  <path class="cls-16" d="M81.18,196.1c-2.25,1.95-4.16,5.19-5.34,7.94-3.64,8.45-6.91,19.7-9.49,28.62-.63,2.18-1.46,6.83-2.34,8.53-.5.98-1.7,1.37-1.39,0,1.3-5.78,4.01-12.82,5.9-18.6,2.93-8.97,6.65-17.81,8.18-27.18.27-.28,3.75.61,4.49.69Z"/>
  <path class="cls-10" d="M90.15,111.95l-1.38,5.17c1.87.3,2.32-4.79,2.61-4.84l3.56.39-.99,5.14c1.69-.94,2.19-3.02,2.07-4.83,2.14,1.01,2.87,4.2.25,5.26-2.35.95-10.94-.65-11.23-3.76.82-3.35,2.06-3.15,5.1-2.53Z"/>
  <path class="cls-11" d="M155.02,227.14c.76.38,2.46-.05,2.01,1.81l-5.49,14.72c-.51.37-2.45-.8-3.07-1.01,1.28-5.38,4.2-10.52,6.56-15.52Z"/>
  <path class="cls-11" d="M73.25,140.57c.93-.2.68.46.85,1.03.75,2.47,1.44,4.95,2.24,7.4-2.48,5.31-3.77,11-5.1,16.68-.46,1.29,1.95,1.62,2.03,2.01l-1.41,5.64c-.02-.16-.33-.53-.37-1.16-.06-1,.38-3,.29-3.46-.13-.69-1.81-1.16-2.16-1.94-.73-1.59,1.2-7.63,1.8-9.57.64-2.08,3.04-7.02,3.19-8.56.16-1.66-1.17-5.97-1.38-8.07Z"/>
  <path class="cls-9" d="M208.15,242.66h-2.07c-.34-6.26-1.08-12.54-1.73-18.79-.19-1.82-1-4.67-1.01-6.26,0-1.31,1.21-2.3,1.36-3.57,1.2.68.57,2.7.69,3.96.75,8.24,1.5,16.5,2.76,24.66Z"/>
  <path class="cls-8" d="M119.78,118.53c.41.3.82,2.07,2.47,1.7-1.55,3.15,1.71,4.43,2.6,1.74.29-.88-.29-2.36.84-2.09.42,1.99-.7,4.17-2.76,4.68-.87.22-1.36-.19-1.85-.11-.39.06-.78.64-1.26.77-1.99.52-3.84.86-5.87.16-.08-2,1.28-1.52,1.94-2.74l-.9-1.57c.68-.76,1.71-1.13,1.03-2.24l3.75-.32Z"/>
  <polygon class="cls-10" points="108.1 166.09 109.13 157.82 114.65 157.99 116.57 161.97 108.1 166.09"/>
  <path class="cls-10" d="M81.18,96.08c-.29-7.58,6.61-13.84,14.14-13.28-2.72,3.15-7.06,4.72-9.96,7.63-1.66,1.66-2.69,3.86-4.17,5.66Z"/>
  <path class="cls-11" d="M151.22,207.14c.88-.01,1.62-.14,2.41-.18.28-.02.45-.5.34.35l-4.14,13.98c-1.6-1.69-2.63-1.09-3.11,1.03l-.67-.02-.02-.66,5.18-14.49Z"/>
  <polygon class="cls-10" points="160.54 136.09 160.49 138.28 159.68 138.85 143.63 138.85 143.63 136.09 160.54 136.09"/>
  <path class="cls-11" d="M105.33,126.78c.57-.06,3.54-.09,3.75.05,2.46,4.12.2,7.4-.54,11.61-.26,1.48-.45,3.04-.45,4.56-.04-.04-.59.15-.7-.23.26-5.43-1.23-10.69-2.06-15.98Z"/>
  <path class="cls-11" d="M86.7,147.47c6.19,2.05,9.73-1.61,13.11-6.21-.17.45-.14,1.16-.42,1.82-.73,1.68-3.96,7.36-5.46,8.03-.3.13-3.42.14-3.77-.02-.18-.08-2.64-2.24-2.97-2.56-.38-.38-.39-.95-.49-1.05Z"/>
  <path class="cls-11" d="M78.77,185.41c5.88,1.65,11.96,1.06,17.94.34.28.88-.26,1.74-.34,2.41-4.67.62-10.83.7-15.28-1.11-1.16-.47-1.51-1.1-2.32-1.65Z"/>
  <path class="cls-9" d="M231.96,196.1c1.59-.04,3.21,0,4.8.04l4.17,15.83c-1.17-3.11-3.4-8.1-5.12-10.92-1.09-1.8-2.54-3.32-3.85-4.94Z"/>
  <path class="cls-11" d="M188.83,125.05c.46.03.92-.02,1.38,0,.14.9-.68,1.38-.73,2.24-.06,1.04.66,1.46.69,2.05s-.54,4.57-.84,5.01c-.91,1.34-5.93.83-7.36.3-.14-.17-.03-.43-.05-.63,5.85,1.22,6.63-4.6,6.9-8.97Z"/>
  <path class="cls-8" d="M198.84,158.16l1.03,4.14c-1.78-.13-3.38.95-5.16.68l-.7-4.81h4.83Z"/>
  <path class="cls-6" d="M113.53,115.85c.16.09-.04.83.95.59.16-.04.03-.72.68-.74,1.02-.02,3.25.6,3.81.61.23,0,.6-.56,1.33-.56.46,0,1.44.35,1.95.51-3.36,2.56-8.13,1.37-12.08,1.55l.04-1.69c.93-.14,2.49-.73,3.33-.27Z"/>
  <path class="cls-11" d="M108.09,148.85c2.61,1.23,6.57-2.48,7.94-4.48.57.41-.31,1.92-.53,2.4-.31.68-1.9,4.13-2.23,4.33-1.1.67-4.22.38-4.92-.97-.23-.45-.2-1.19-.26-1.28Z"/>
  <path class="cls-13" d="M117.06,163.68c-.45.46-.79,1.25-1.25,1.69-2.32,2.24-5.8,3.32-8.41,5.21.15-.73.22-2.53.69-2.93l8.97-3.96Z"/>
  <path class="cls-10" d="M104.99,92.97l-2.21-2.44c-1.29-2.1-2.89-4.28-2.96-6.87,3.2,2.08,5.02,5.49,5.17,9.31Z"/>
  <path class="cls-9" d="M201.94,195.07c-.49,1.49.54,3.07.69,4.14.25,1.84-1.01,2.82-1.38,4.48-.5-.07-.57-.47-.66-.89-.19-.91-1-7.47-.72-7.74.69.03,1.39-.04,2.07,0Z"/>
  <polygon class="cls-10" points="103.96 193 104.69 187.53 107.4 186.79 107.58 191.28 103.96 193"/>
  <path class="cls-10" d="M214.36,159.54c.63,1.1,1.72,1.76,2.76,2.41-.17.03-.64.56-1.01.53l-6.93,1.54,4.13-3.99c.37-.35,1.01-.45,1.04-.49Z"/>
  <path class="cls-5" d="M240.59,116.43c-.58,1.21-2.25,1.77-3.11,2.76-.8.15-5.56,1.34-5.87,1.04v-2.07c3.31.47,5.94-.8,8.97-1.72Z"/>
  <path class="cls-10" d="M86.01,103.67c.46.43-1.66,4.22-3.29,3.12-2.21-1.49-1.44-2.74.02-4.5.61,1.46,1.85,1.46,3.28,1.38Z"/>
  <path class="cls-13" d="M200.22,135.05c-.1.11-.11.66-.49,1.04-1.84,1.84-1.65.46-3.55-.27-1.55-.59-3.3-1.15-4.93-1.46-.12-.39.33-.83.35-1.03,2.97.39,5.53,2.16,8.63,1.72Z"/>
  <path class="cls-5" d="M205.74,171.61c.06.27.47.6.34,1.03-2.62.03-5.25,1.14-7.84.42-.44-.12-1.97-.7-1.82-1.45,2.82.78,6.43.17,9.32,0Z"/>
  <path class="cls-10" d="M80.14,106.43c-3.07-2.17-1.12-5.77,2.07-6.55.25,2.57-2.87,3.62-2.07,6.55Z"/>
  <path class="cls-11" d="M114.99,127.12c1.14.04,2.41.08,3.53-.09,1.38-.21,2.15-.84,3.37-1.29.32.82-.26,1.55-.34,2.07-1.73.64-5.87,1.69-6.56-.69Z"/>
  <path class="cls-6" d="M127.07,118.15c-1.94.64-3.82.83-5.86.69-.97-.85,5.7-3.74,5.86-.69Z"/>
  <path class="cls-5" d="M201.94,195.07c1.19.07,2,.36,3.11.69-.78,1.02-.93,3.2-2.42,3.44-.15-1.07-1.18-2.64-.69-4.14Z"/>
  <path class="cls-10" d="M183.14,123.33c-.14-.02-.99-.34-.86-.69,2.24-.31,4.78-.58,7.04-.32.51.06,2.07.42,2.27,1.01-2.64-.26-5.9.36-8.45,0Z"/>
  <path class="cls-16" d="M151.91,124.71c-2.21-.92-1.33-2.94-1.77-4.27-.18-.53-1.52-.5-.98-1.94,2.06,1.29,2.98,3.85,2.75,6.21Z"/>
  <path class="cls-9" d="M143.28,118.15c-.46-.1-.88-1.08-1.09-1.49-.68-1.38-1.19-2.8-.98-4.37,1.98.65,2.02,4.19,2.06,5.86Z"/>
  <path class="cls-9" d="M146.4,126.43c-.23-2.16.98-4.36,2.75-5.52-.15,1.98-1.14,4.31-2.75,5.52Z"/>
  <path class="cls-9" d="M157.43,109.53l-.69-.18c.52-1.46.29-3.14.97-4.55.65-1.34,1.64-1.51,1.3.26-.27,1.42-1.24,3.02-1.58,4.47Z"/>
  <polygon class="cls-16" points="107.75 193 108.09 196.79 104.65 194.2 107.75 193"/>
  <path class="cls-9" d="M153.64,116.08c-.98.18-.56-.24-.77-.76-.67-1.63-.87-3.05-.25-4.76,1.61,1.24.87,3.77,1.03,5.52Z"/>
  <path class="cls-18" d="M143.63,125.74c-1.8-.84-3.44-2.2-4.14-4.14,1.09-.19,4.62,3.63,4.14,4.14Z"/>
  <path class="cls-9" d="M151.22,131.95c-1.26-1.11-3.09-2.25-3.1-4.14.44-.48,3.86,2.96,3.1,4.14Z"/>
  <path class="cls-16" d="M162.95,124.01c.63-1.79,2-3.16,3.79-3.79.41.43-2.66,4.13-3.79,3.79Z"/>
  <path class="cls-18" d="M146.05,117.46c.15-2.21,2.21-3.69,3.62-5.17-.39,1.98-2.24,3.74-3.62,5.17Z"/>
  <path class="cls-9" d="M145.36,131.26c-.72.39-5.19-1.75-4.48-2.41,1.55.39,3.57,1.03,4.48,2.41Z"/>
  <path class="cls-18" d="M157.43,120.57c.46.43-2.87,3.59-3.45,3.1.05-.82,2.89-3.63,3.45-3.1Z"/>
  <path class="cls-9" d="M126.03,115.39c-1.37.24-2.43,1.37-3.44-.17-.03-.63,3.21-.97,3.44.17Z"/>
  <path class="cls-18" d="M165.02,116.08c-.71,0-.29-1.38-.18-1.73.22-.7.88-2.01,1.56-2.4.33,1.64-.89,2.73-1.38,4.14Z"/>
  <path class="cls-10" d="M142.6,222.66c-.12.56-1.84,1.11-2.19,1l-1.26-1.69,3.45.69Z"/>
  <path class="cls-16" d="M160.19,112.64l-2.01,1.95-1.77.64c1.05-1.11,2.16-2.37,3.79-2.59Z"/>
  <path class="cls-12" d="M253.7,140.23c.32.66-.31,1.42-.35,1.72l-.34-2.41c.41-.03.5.52.69.69Z"/>
  <rect class="cls-11" x="190.9" y="124.71" width=".69" height=".69"/>
  <path class="cls-18" d="M116.72,158.51l-.34-.18.34-.51c.01.23-.02.46,0,.69Z"/>
  <path class="cls-2" d="M228.74,109.3c-.42-.57-1.72-.61-1.27-2.18,1.29.12,2.23,1.02,3.62,1.03s4.8-1.75,5.54-.71c.23,3.45-2.97,6.28-6.39,3.97-1.12-.76-.98-1.37-1.51-2.11Z"/>
  <path class="cls-2" d="M231.96,100.91c.24,1.27-.56,1.83-1.38,2.59,2.95,1.69-1.64,2.1-1.4.01.07-.63,2.43-3,2.77-2.6Z"/>
  <path class="cls-2" d="M234.42,101.21c-.66-1.03.83-3.39,2.05-1.87,1.12,1.38-1.43,2.85-2.05,1.87Z"/>
  <path class="cls-2" d="M228.03,98.18c1.72-.52,1.59,3-.37,2.72-.97-.29-.43-2.48.37-2.72Z"/>
  <path class="cls-4" d="M100.85,102.29c.15,1.63-1.57,2.22-2.9,2.06-.93-.11-3.9-1.67-2.96-2.75,2.14,1.03,3.5,1.26,5.86.69Z"/>
  <path class="cls-3" d="M99.47,97.11l.66,2.87c-.79,1.23-2.87,1.37-1.92-.37.06-.1.58-.09.58-.29.02-.7-1.14-2.12.68-2.22Z"/>
  <ellipse class="cls-4" cx="94.62" cy="95.92" rx="1.11" ry="1.2"/>
  <ellipse class="cls-4" cx="102.4" cy="95.92" rx="1.11" ry="1.2"/>
  <path class="cls-7" d="M230.55,109.49s1.45,1.14,2.38,1.03,1.81-.41,2.22-2.07c0,0-2.79,1.03-4.6,1.03Z"/>
</svg>