<?xml version="1.0" encoding="UTF-8"?>
<svg id="Livello_1" data-name="Livello 1" xmlns="http://www.w3.org/2000/svg" viewBox="59 30 197.31 277.31">
  <defs>
    <style>
      .cls-1 {
        fill: #fb5e5d;
      }

      .cls-2 {
        fill: #f2e7e7;
      }

      .cls-3 {
        fill: #eb9c99;
      }

      .cls-4 {
        fill: #eba09d;
      }

      .cls-5 {
        fill: #f3efef;
      }

      .cls-6 {
        fill: #f4f0f0;
      }

      .cls-7 {
        fill: #f3eaea;
      }

      .cls-8 {
        fill: #f4f1f1;
      }

      .cls-9 {
        fill: #f4f2f2;
      }

      .cls-10 {
        fill: #f3ecec;
      }

      .cls-11 {
        fill: #f3efee;
      }

      .cls-12 {
        fill: #eb9d9a;
      }

      .cls-13 {
        fill: #fdf6f5;
      }

      .cls-14 {
        fill: #eb9e9b;
      }
    </style>
  </defs>
  <path class="cls-1" d="M97.93,271.27c-.38-2.49,1.18-12.8,3.29-13.85.73-.36,1.85.36,1.86.04-1.37-4.5-2.32-9.37-2.8-14.06-1.86-18.46-1.24-39.52-.45-58.07.59-13.94,1.5-23.68,6.78-36.79.43-1.07,2.77-4.9,2.46-5.53-.04-.09-.74-.06-.83-.41-.42-1.64,3.2-11.17,3.63-14.1.17-1.13.16-2.26.12-3.39-.76.26-.84,1.2-1.63,1.87-7.18,6.12-20.43,4.47-18.94-6.76.65-4.87,5.99-10.58,6.43-15.15.14-1.53-1.31-3.73-1.31-5.51,0-2.07,1.82-6.45,3.28-7.96.91-.94,3.35-1.84,3.67-2.91.54-1.75-1.55-3.52-1.68-5.64-.28-4.56,4.95-9.07,9.24-9.5-2.61-9,4.49-11.86,12.13-11.77,1.99-5.87,7.8-8.03,11.99-2.71,3.45,4.38,2.66,8.7,5.33,12.94.96,1.52,3.47,3.2,3.77,4.71.48,2.38-1.81,2.11-2.2,3.24-.36,1.05.07,2.82-.12,4.1-.42,2.97-2.37,5.53-4.65,7.3,5.62,1.89,9.17,8.09,11.72,13.12l5.95-13.48c4.32-.5,8.7-1.13,13.03-1.5,4.58-.4,9.47-.8,14.05-.97.7-.03,3.35.02,3.54.81.17,2.25-.42,4.39-.89,6.54-1.34,6.15-3.28,13.28-4.96,19.4-1.36,4.96-4.21,2.4-6.8,3.98-.48.29-.66,1.2-1.19,1.63-3.52,2.89-7.25,6.14-11.06,8.62-3.48,2.27-8.29,5.51-12.49,4.13-2.09-.69-2.76-2.63-4.34-3.85.26,2.56,2.53,7.13,1.78,9.51-.23.73-1.33,1.11-1.33,1.96,0,.37,2.7,5.3,3.16,6.7,1.45,4.4,2.47,10.36,3.28,15,4.54,25.99,7.26,54.09,8.59,80.43.15,3.06-.63,9.18-.03,11.64.12.51,1.3.47,1.77,1.61.7,1.7.46,4.33.64,6.15.33.53,10.31,3,11.66,4.51,1,1.12.31,2.75,0,3.99h-2.81v-2.57c-5.34-2.11-14.1-2.04-12.66-10.08l-8.23,1.84.27,10.81h-3.28c-2.58-3.85.55-9.43-.09-12.77-.54-2.8-4.31-9.81-5.54-13.22-4.88-13.58-8.68-29.09-11.56-43.26-1.94-9.53-2.97-19.25-5.07-28.67-1.78,13.21-4.16,26.43-5.79,39.66-1.41,11.43-3.18,24.63-3.81,36.01-.1,1.85-.36,7.87-.01,9.27.1.41,1.09.57,1.53,1.38,1.63,3.04.75,8.39-.12,11.6h-2.81c.05-3.56,1.31-6.74.46-10.3l-11-.95-2.12,11.25h-2.81ZM130.74,60.91c-7.7,1.98-7.86,13.28-9.12,19.7-.68,3.47-3.86,5.47-4.36,8.29-.6,3.38,1.3,5.61-.58,9.5-.63,1.31-2.72,2.8-2.58,4.68,1.7-2.27,7.54-3.14,7.73-6.34.13-2.25-1.8-3.09.08-6.47,1.47-2.64,6.48-3.68,6.89-4.82,1.23-3.45-4.28-3.65-4.16-7.87.16-5.8,7.64-5.16,8.96-8.42,1.17-2.87.2-6.02-1.03-8.65-.76-.49-1.42.31-1.82.41ZM120.43,65.6c-2.33,0-6.28.72-6.56,3.56-.21,2.13,1.79,3.38.2,5.79-1.34,2.03-6.65,2.24-8.58,5.94-1.53,2.94.33,3.58.77,5.67.56,2.61-.79,5.08-2.71,6.69-.21.13-.64.01-1.14.48-.82.75-3.15,6.01-1.9,6.09,1.88-4.19,6.29-3.99,9.38-6.56.36-4.37.61-10.96,4.48-13.79,2.18-1.59,4.77-1.41,5.92-4.39,1.1-2.86.39-6.64,2.02-9.45-.62,0-1.25,0-1.87,0ZM141.52,77.31l-4.45-6.55c-1.2,1.65-.06,5.78-3.08,4.97-.95-.26-.71-1.27-1.58-1.26-.82.01-2.91.69-3.52,1.23-2.74,2.42,1.33,3.88,2.26,5.66,1.37,2.64-.11,6.25-2.75,7.44,3.22,1.81,8.85.59,10.31-3.04-2.65.2-5.31-1.89-5.15-4.69l5.61,2.34c.84-2.56-1.59-5.65,2.35-6.09ZM107.3,99.8c-.12.59-.96,1.74-.24,2.34,2.31-2.12,4.97-4.59,8.15-5.2.55-2.56-.68-5.07-.31-7.56.57-3.76,3.64-6.38,4.57-9.96-.83.35-2.91.75-3.46,1.13-.52.37-.22.93-.28.98-.15.12-.86.03-1.42.67-2.8,3.15-.43,9.67-3.71,12.71-2.51,2.33-2.36.34-3.31,4.89ZM168.7,119.01l-15.93.72c-3.27-4.14-4.02-9.61-6.47-14.17-1.59-2.95-8.16-12.29-11.2-13.16-1.36-.39-3.1.08-4.56-.13-1.96-.29-4.9-3.16-6.01-.79-1.21,2.57.71,3.13,1.04,4.82.21,1.08.14,3.4-.19,4.46-.79,2.58-5.55,3.19-6.26,6.89-.52,2.67,3.6,5.34-.55,6.67l-3.52-7.5-.71,6.56-2.34-.47c.5,2.97,2.35,5.53,3.06,8.42,1.73,7.05-.19,13.74-4,19.69,10.79,3.68,23.12,4.28,32.78-2.38-4.63-8.63-5.71-18.47-8.87-27.6,1.18-.24,1.18.16,1.8.77,3.83,3.78,6.92,12.19,10.46,16.71,2.32,2.96,4.11,2.68,7.51,1.21,2.03-.88,10.34-7.35,12.52-9.13.53-.43,1.23-.93,1.45-1.6ZM182.29,91.84l-26.2,1.45-5.2,14.29,2.86,9.04c7.4-1.21,14.89-.8,22.38-.94l6.16-23.83ZM105.43,97.93c-3.59.72-2.99,6.55-3.97,8.44-.49.94-1.78.66-2.13,1.26-.41.7-1.05,3.92-1.63,5.29-1.51,3.51-5.91,10.31-.82,13.02,2.75,1.46,5.5,1.73,8.42.67,2.44-.88,3.83-3.35,6.7-1.97l-1.41-7.49c-1.72,1.23-1.8,4.16-4.69,3.04-.18-2.99,3.64-6.24,4.14-8.53.32-1.47-.39-2.56-.29-3.97.08-1.11,2-5.72,1.78-5.99-2.58.17-4.21,6.21-6.3,5.62-2.27-2.91-.63-6.25.21-9.36ZM123.24,99.33l-6.34,4.21.25,3.75c.79-.45.68-1.6,1.4-2.58,1.46-1.98,4.4-2.81,4.69-5.38ZM117.15,146.65c-1.4-.44-4.94-2.57-5.85-1.41-1,1.27-4.14,10.98-4.7,13.11-4.27,16.25-3.34,32.37-3.49,48.98-.12,13.32-.61,25.92.98,39.28.43,3.64,1.75,7.54,1.35,11.07,1.08.07,2.2-.08,3.28,0,.62.05,1.27-.07,1.87,0,.3.04.84.65,1.4.47.46-11.36,1.78-22.66,2.81-33.97,1.74-19.03,2.76-38.44,7.97-56.92.21-.76.68-1.42.47-2.34.13-.06.28-.35.47-.47,2-.29,2.87,2.19,3.28,3.75,2.55,9.64,3.37,21.38,5.37,31.41,3.92,19.58,9.18,39.12,16.7,57.57,1.13.34,2.45-.75,3.23-.9,1.04-.19,1.51-.1,2.81-.47.41-.12,1.28.31,1.43-.26.54-6.21-.57-12.2-.96-18.25-1.55-24.08-4.65-49.18-8.52-73-1.05-6.48-2.25-12.78-4.14-19.05-.16-.54-.29-2.83-.71-2.82-4.15,1.99-8.46,3.83-13.1,4.24l-11.97-.02Z"/>
  <path class="cls-1" d="M199.27,271.27l-1.44-3.91,3.77-1.26c.11-1.58-.47-12.11-.97-12.57-.24-.22-1.33.08-1.83-.26-1.04-.69-1.67-7.45.71-7.76l11.96-.46c.71-3.63-.68-9.27-4.23-11.04-.73-.37-1.93.65-3.03.75-3.81.38-14.05-5.57-8.17-9.12,3.82-2.31,7.95-.82,10.2,2.85.94,1.53.77,2.94,1.46,4.16.64,1.13,2.91,2.14,3.31,3.72.47.69.51.03.46-.45-.63-5.75-1.78-11.51-3.32-17.07-8.03.12-12.81-8.04-13.09-15.26-.4-10.4,5.73-5.95,10.79-1.89l3.75,5.85c-.6-5.03,3.64-16.97,9.18-17.77,2.48-.36,2.89.18,3.7,2.33,1.93,5.15,1.14,13.6-1.79,18.32-1.21,1.95-4.13,3.79-4.86,5.44-.63,1.41-.87,5.13-1.06,6.91-.3,2.78-.4,5.86-.47,8.67,3.24-1.75,2.9-5.44,5.37-7.98,3.2-3.3,10.54-5.28,14.56-2.8,6.7,4.13-7.02,9.75-10.44,10.19-2.36.3-5.27-.77-6.71.33-4.04,3.07-3.39,9.34-3.72,13.85h11.25c.23,1.9,1.54,5.03.49,6.71-.32.51-1.23.34-1.44,1.48-.67,3.61.35,9.07-.93,12.89l2.97.07.81,1.11-2.85,3.97h-3.28l2.81-3.27c-2.32-1.1-4.41-.08-6.56,0-5.31.18-10.62.46-15.93.47l.94,2.81h-2.34ZM218.95,191.63c-5.95,1.99-10.66,18.4-4.69,22.96-.27-5.88,2.45-11.45,3.75-16.87,1.51-.19.81.44.62,1.32-.93,4.37-2.32,8.68-2.49,13.2,5.53-4.85,6.54-14.44,3.74-20.89-.67-.49-.82.23-.93.27ZM197.4,200.06c-2.25,5.93,2.86,16.36,9.84,16.86-1.21-3.42-3.97-6.18-5.41-9.37-.3-.65-.81-1.14-.21-1.87.3.38,1.07.74,1.6,1.44,2.12,2.79,3.66,6,5.67,8.87.24-4.59-1.63-9.69-4.91-12.9-.97-.95-4.72-3.77-5.87-3.98-1.15-.2-.54.51-.71.95ZM210.98,213.18v-.93h-.46v.93h.46ZM212.57,215.35c-.47-.6-.79-1.48-1.57-1.71.64,1.72-1.18,3.37-1.29,4.52-.21,2.08,3.49,8.34,2.23,11.41l1.85-12.93c.09-.86-.92-.91-1.22-1.29ZM229.26,223.95c-1.95,1.23-1.87.87-4.08,1.78-1.75.71-3.9,1.84-5.29,3.15,2.58,1.81,12.65-2.74,14.09-4.66,1.33-1.77-.07-1.64-.97-2.14-4.39-2.44-12.06.45-13.83,5.14,3.14-1.76,6.29-3.79,10.08-3.27ZM203.95,229.11c.97-.91-4.41-3.82-5.62-2.33l5.62,2.33ZM204.89,232.85c.25-2.21-7.92-5.15-8.43-4.68-.12,2.25,7.38,5.59,8.43,4.68ZM215.2,247.85c-4.99.04-10.01-.03-15,0l.76,3.78c4.68-.62,9.5-.66,14.24-.97,2.66-.17,5.42.27,7.99-.73l-.02-2.54c-2.57.75-5.3.45-7.96.47ZM218.02,266.12c.78-.03,1.56.05,2.34,0-.06-1.52.45-2.92.51-4.44.05-1.24-.51-2.52-.45-3.31s2.15-5.02,1.35-5.83l-18.75.94c-.38.79.44,1.58.47,1.87.44,3.71.54,7.5.47,11.25,4.7.2,9.38-.27,14.06-.47Z"/>
  <path class="cls-12" d="M170.57,271.27h-20.62l-.27-10.81,8.23-1.84c-1.44,8.03,7.31,7.97,12.67,10.08v2.57Z"/>
  <path class="cls-12" d="M100.74,271.27l2.12-11.25,11,.95c.84,3.56-.41,6.74-.46,10.3h-12.65Z"/>
  <path class="cls-8" d="M216.61,267.99l-.94,3.28h-14.06l-.94-2.81c5.31,0,10.62-.29,15.93-.47Z"/>
  <path class="cls-12" d="M216.61,267.99c2.16-.07,4.25-1.1,6.56,0l-2.81,3.27h-4.69l.94-3.28Z"/>
  <path class="cls-9" d="M117.15,146.65c9.38,2.96,16.7,2.18,25.78-1.41,1.89,6.27,3.09,12.57,4.14,19.05,3.87,23.83,6.97,48.92,8.52,73,.39,6.05,1.5,12.04.96,18.25-.15.57-1.02.14-1.43.26-9.86-28.25-12.82-58.21-18.78-87.4l.08-.63c1.14-.36,2.8-.9,2.76-2.4-4.08,1.54-7.17,1.26-11.1-.39-1.2-.5-1.97-1.88-3.59-1.42-.59.16-.67.81-.78.87-.19.11-.34.4-.47.47-4.83,2.35-8.5,1.97-13.59.94-.22,2.01,2.94,1.85,3.52,2.8l-2.11,18.99c-.58,15.34-1.91,30.65-2.84,45.89-.47,7.75.04,16.42.49,24.15-1.08-.08-2.2.06-3.28,0,.41-3.53-.91-7.42-1.35-11.07-1.59-13.36-1.1-25.96-.98-39.28.15-16.61-.78-32.73,3.49-48.98.56-2.13,3.69-11.84,4.7-13.11.92-1.17,4.45.96,5.85,1.41ZM129.41,161.57c2.39.5,3.69,3.33,6.22,2.89,1.43-.25,4.08-3.95,6.13-4.2.79-1.14-1.3-10.71-2.59-11.52-.83-.52-9.17,1.51-9.37,2.37.51,2.91,7.67-.58,7.96-.24l1.3,7.68-3.93,3.54c-1.8-1.05-3.59-2.47-5.79-2.31l.08,1.8ZM109.18,159.3c.16,2.53,2.81,6.14,5.62,5.42.43-.11,4.61-1.98,4.87-2.2,1.39-1.13,3.91-10.23,2.89-11.69l-10.57-1.37c-1.93,1.89,6.76,3.77,7.97,3.28.3.29-1.85,7.76-2.18,8-.27.2-3.76,1.42-4.13,1.38-1.61-.16-2.46-3.26-4.47-2.82Z"/>
  <path class="cls-12" d="M168.7,119.01c-.22.67-.92,1.16-1.45,1.6-2.18,1.78-10.49,8.26-12.52,9.13-3.4,1.47-5.19,1.75-7.51-1.21-3.54-4.52-6.64-12.93-10.46-16.71-.62-.62-.62-1.01-1.8-.77,3.16,9.13,4.24,18.97,8.87,27.6-9.65,6.66-21.99,6.06-32.78,2.38,3.81-5.95,5.73-12.63,4-19.69-.71-2.89-2.56-5.44-3.06-8.42l2.34.47.71-6.56,3.52,7.5c4.15-1.33.03-4,.55-6.67.71-3.69,5.47-4.3,6.26-6.89.32-1.06.4-3.38.19-4.46-.33-1.69-2.25-2.25-1.04-4.82,1.11-2.36,4.05.5,6.01.79,1.46.21,3.2-.26,4.56.13,3.05.87,9.62,10.21,11.2,13.16,2.45,4.56,3.2,10.03,6.47,14.17l15.93-.72Z"/>
  <path class="cls-9" d="M126.99,168.2l7.05.77c1.91,16.34,5.78,32.34,9.13,48.41,2.72,13.04,4.36,26.4,9.13,38.9-.79.15-2.1,1.25-3.23.9-7.53-18.45-12.79-38-16.7-57.57-2.01-10.03-2.82-21.77-5.37-31.41Z"/>
  <path class="cls-8" d="M182.29,91.84l-6.16,23.83c-7.49.15-14.97-.27-22.38.94l-2.86-9.04,5.2-14.29,26.2-1.45ZM158.42,101.7c-1.54,1.32,2.17,9.94,4.8,9.28.95-.24,3.56-4.31,4.54-5.34,1.57-1.65,8.57-7.17,7.96-9.31-.13-.45-.67-.79-1.16-.79-3.78.59-8.02,9.29-10.86,10.27-.33.11-.72.19-1.03.01-.38-1.15-2.66-5.49-4.25-4.13Z"/>
  <path class="cls-6" d="M122.77,167.26c-5.21,18.47-6.23,37.89-7.97,56.92-1.04,11.31-2.35,22.61-2.81,33.97-.56.18-1.1-.43-1.4-.47.32-1.86-.4-3.62-.49-5.37-.79-16.13.17-34.56,1.9-50.61,1.18-11.01,3.83-21.9,3.74-33.04,2.53.29,4.76-.39,7.03-1.4Z"/>
  <path class="cls-3" d="M105.43,97.93c-.84,3.11-2.49,6.45-.21,9.36,2.09.59,3.72-5.44,6.3-5.62.22.27-1.7,4.88-1.78,5.99-.1,1.41.61,2.5.29,3.97-.5,2.29-4.32,5.54-4.14,8.53,2.89,1.12,2.97-1.81,4.69-3.04l1.41,7.49c-2.87-1.37-4.26,1.09-6.7,1.97-2.93,1.05-5.67.79-8.42-.67-5.09-2.7-.69-9.51.82-13.02.59-1.37,1.22-4.59,1.63-5.29.35-.6,1.64-.32,2.13-1.26.98-1.89.39-7.72,3.97-8.44Z"/>
  <path class="cls-4" d="M123.71,164.45c.11-.06.2-.71.78-.87,1.62-.45,2.39.92,3.59,1.42,3.93,1.65,7.02,1.92,11.1.39.05,1.5-1.62,2.03-2.76,2.4l-.08.63c5.96,29.19,8.92,59.15,18.78,87.4-1.3.37-1.78.27-2.81.47-4.77-12.49-6.41-25.86-9.13-38.9-3.35-16.07-7.21-32.07-9.13-48.41l-7.05-.77c-.41-1.56-1.28-4.04-3.28-3.75Z"/>
  <path class="cls-4" d="M123.24,164.92c.21.92-.26,1.59-.47,2.34-2.27,1.02-4.5,1.69-7.03,1.4.09,11.14-2.56,22.02-3.74,33.04-1.72,16.05-2.69,34.48-1.9,50.61.09,1.75.81,3.51.49,5.37-.61-.07-1.26.05-1.87,0-.44-7.73-.96-16.39-.49-24.15.92-15.24,2.25-30.55,2.84-45.89l2.11-18.99c-.58-.95-3.74-.78-3.52-2.8,5.09,1.03,8.76,1.41,13.59-.94Z"/>
  <path class="cls-6" d="M141.52,77.31c-3.94.44-1.51,3.54-2.35,6.09l-5.61-2.34c-.15,2.8,2.5,4.89,5.15,4.69-1.45,3.63-7.09,4.84-10.31,3.04,2.63-1.19,4.12-4.8,2.75-7.44-.93-1.78-5.01-3.25-2.26-5.66.61-.54,2.7-1.21,3.52-1.23.86-.01.62,1,1.58,1.26,3.02.81,1.88-3.32,3.08-4.97l4.45,6.55Z"/>
  <path class="cls-11" d="M130.74,60.91c-.06,1.42.91,2.61.96,4,.25,6.51-13.58,8.94-8.19,17.06.67,1,2.27,1.58,1.9,2.87-.32,1.65-6.64,2.76-6.88,8.19-.11,2.49,1.77,4.15-1.85,5.37,1.88-3.89-.02-6.11.58-9.5.5-2.82,3.68-4.81,4.36-8.29,1.26-6.42,1.42-17.72,9.12-19.7Z"/>
  <path class="cls-14" d="M120.43,65.6c.62,0,1.25,0,1.87,0-1.63,2.82-.92,6.6-2.02,9.45-1.15,2.98-3.74,2.8-5.92,4.39-3.87,2.84-4.12,9.43-4.48,13.79-3.09,2.57-7.49,2.37-9.38,6.56-1.25-.08,1.08-5.34,1.9-6.09.5-.46.93-.35,1.14-.48.72-.45,1.63-.66,2.32-1.2,4.03-3.15,2.39-10.66,6.8-14.75,1.58-1.47,3.83-2.16,5.16-4.22,1.34-2.08,1.57-5.19,2.6-7.47Z"/>
  <path class="cls-5" d="M120.43,65.6c-1.03,2.28-1.26,5.39-2.6,7.47-1.32,2.06-3.57,2.75-5.16,4.22-4.41,4.09-2.77,11.61-6.8,14.75-.69.54-1.59.75-2.32,1.2,1.92-1.61,3.27-4.08,2.71-6.69-.45-2.09-2.31-2.72-.77-5.67,1.93-3.7,7.24-3.91,8.58-5.94,1.59-2.41-.41-3.66-.2-5.79.28-2.84,4.23-3.55,6.56-3.56Z"/>
  <path class="cls-14" d="M117.15,146.65l11.97.02c4.64-.41,8.94-2.25,13.1-4.24.42-.01.55,2.28.71,2.82-9.08,3.59-16.4,4.37-25.78,1.41Z"/>
  <path class="cls-12" d="M115.74,81.53c.06-.05-.24-.61.28-.98.55-.39,2.63-.79,3.46-1.13-.93,3.58-4,6.2-4.57,9.96-.38,2.49.85,5,.31,7.56-3.18.61-5.84,3.08-8.15,5.2-.72-.61.11-1.75.24-2.34,2.62-2.35,6.14-4.93,6.56-8.67.39-3.43-.32-6.33,1.87-9.6Z"/>
  <path class="cls-2" d="M115.74,81.53c-2.19,3.28-1.49,6.18-1.87,9.6-.42,3.73-3.94,6.32-6.56,8.67.95-4.56.79-2.57,3.31-4.89,3.28-3.03.91-9.55,3.71-12.71.57-.64,1.27-.55,1.42-.67Z"/>
  <path class="cls-2" d="M123.24,99.33c-.29,2.57-3.22,3.4-4.69,5.38-.72.98-.61,2.13-1.4,2.58l-.25-3.75,6.34-4.21Z"/>
  <path class="cls-14" d="M130.74,60.91c.4-.1,1.06-.9,1.82-.41,1.22,2.63,2.19,5.78,1.03,8.65-1.32,3.25-8.8,2.61-8.96,8.42-.12,4.22,5.39,4.42,4.16,7.87-.41,1.14-5.42,2.18-6.89,4.82-1.88,3.37.06,4.21-.08,6.47-.19,3.21-6.03,4.08-7.73,6.34-.14-1.88,1.95-3.37,2.58-4.68,3.63-1.22,1.74-2.88,1.85-5.37.24-5.44,6.56-6.54,6.88-8.19.37-1.29-1.23-1.86-1.9-2.87-5.39-8.12,8.45-10.55,8.19-17.06-.05-1.39-1.02-2.58-.96-4Z"/>
  <path class="cls-6" d="M203.49,255.34l14.53.47c.14,1.61-1.61,1.64-.93,3.74l.93-.93v7.49c-4.68.2-9.35.67-14.06.47.07-3.74-.03-7.53-.47-11.25Z"/>
  <path class="cls-14" d="M203.49,255.34c-.03-.29-.85-1.08-.47-1.87l18.75-.94c.8.81-1.3,5.04-1.35,5.83s.5,2.07.45,3.31c-.06,1.52-.57,2.92-.51,4.44-.78.05-1.56-.03-2.34,0v-7.49s-.93.93-.93.93c-.67-2.1,1.08-2.14.93-3.74l-14.53-.47Z"/>
  <path class="cls-8" d="M218.95,191.63c-.58,2.1-.41,3.91-.94,6.09-1.3,5.42-4.02,10.98-3.75,16.87-5.97-4.55-1.26-20.96,4.69-22.96Z"/>
  <path class="cls-6" d="M201.61,205.68c-.6.73-.09,1.21.21,1.87,1.45,3.19,4.2,5.96,5.41,9.37-6.99-.5-12.09-10.93-9.84-16.86,1.2,2.07,2.74,3.78,4.22,5.62Z"/>
  <path class="cls-12" d="M218.95,191.63c.12-.04.27-.76.93-.27,2.8,6.45,1.79,16.04-3.74,20.89.17-4.52,1.56-8.83,2.49-13.2.19-.88.88-1.51-.62-1.32.52-2.19.36-4,.94-6.09Z"/>
  <path class="cls-3" d="M197.4,200.06c.17-.44-.44-1.15.71-.95,1.15.21,4.9,3.03,5.87,3.98,3.28,3.2,5.15,8.31,4.91,12.9-2.01-2.86-3.55-6.08-5.67-8.87-.53-.7-1.3-1.06-1.6-1.44-1.48-1.85-3.02-3.55-4.22-5.62Z"/>
  <path class="cls-7" d="M215.2,247.85v2.81c-4.74.31-9.56.35-14.24.97l-.76-3.78c4.99-.02,10.01.04,15,0Z"/>
  <path class="cls-3" d="M233.01,222.08c.9.5,2.29.36.97,2.14-1.44,1.92-11.5,6.46-14.09,4.66,1.39-1.31,3.54-2.43,5.29-3.15,2.21-.9,2.13-.54,4.08-1.78,1.19-.75,2.62-1.04,3.75-1.87Z"/>
  <path class="cls-3" d="M215.2,247.85c2.66-.02,5.39.28,7.96-.47l.02,2.54c-2.57,1-5.33.56-7.99.73v-2.81Z"/>
  <path class="cls-10" d="M204.89,232.85c-1.05.91-8.55-2.43-8.43-4.68.51-.47,8.68,2.47,8.43,4.68Z"/>
  <path class="cls-3" d="M203.95,229.11l-5.62-2.33c1.2-1.49,6.58,1.43,5.62,2.33Z"/>
  <rect class="cls-13" x="210.52" y="212.24" width=".46" height=".93"/>
  <path class="cls-6" d="M233.01,222.08c-1.13.83-2.56,1.13-3.75,1.87-3.79-.52-6.94,1.51-10.08,3.27,1.77-4.7,9.44-7.59,13.83-5.14Z"/>
  <path class="cls-4" d="M129.41,161.57l-.08-1.8c2.21-.15,4,1.26,5.79,2.31l3.93-3.54-1.3-7.68c-.3-.34-7.46,3.15-7.96.24.21-.86,8.54-2.89,9.37-2.37,1.3.81,3.38,10.38,2.59,11.52-2.05.25-4.7,3.96-6.13,4.2-2.53.43-3.83-2.39-6.22-2.89Z"/>
  <path class="cls-4" d="M109.18,159.3c2.01-.44,2.86,2.66,4.47,2.82.37.04,3.86-1.18,4.13-1.38.33-.25,2.48-7.71,2.18-8-1.2.5-9.9-1.39-7.97-3.28l10.57,1.37c1.02,1.47-1.5,10.56-2.89,11.69-.26.21-4.45,2.09-4.87,2.2-2.81.71-5.46-2.9-5.62-5.42Z"/>
  <path class="cls-1" d="M158.42,101.7c1.59-1.36,3.87,2.99,4.25,4.13.31.18.7.1,1.03-.01,2.84-.98,7.08-9.68,10.86-10.27.48,0,1.03.34,1.16.79.62,2.14-6.38,7.66-7.96,9.31-.98,1.02-3.59,5.1-4.54,5.34-2.63.66-6.34-7.96-4.8-9.28Z"/>
  <rect class="cls-1" x="93.11" y="270.41" width="137.64" height="1.73" rx=".87" ry=".87"/>
</svg>