<?xml version="1.0" encoding="UTF-8"?>
<svg id="Livello_1" data-name="Livello 1" xmlns="http://www.w3.org/2000/svg" viewBox="55 80 227.31 167.31">
  <defs>
    <style>
      .cls-1 {
        fill: #fb5e5d;
      }

      .cls-2 {
        fill: #f9dddb;
      }

      .cls-3 {
        fill: #fdfafa;
      }

      .cls-4 {
        fill: #f1a6a3;
      }

      .cls-5 {
        fill: #f09e9b;
      }

      .cls-6 {
        fill: #fcf0f0;
      }

      .cls-7 {
        fill: #fdf8f8;
      }

      .cls-8 {
        fill: #fdf7f6;
      }

      .cls-9 {
        fill: #fdf9f9;
      }

      .cls-10 {
        fill: #f1a29f;
      }

      .cls-11 {
        fill: #f1a4a1;
      }

      .cls-12 {
        fill: #fdf4f3;
      }

      .cls-13 {
        fill: #f1a3a0;
      }

      .cls-14 {
        fill: #fcf2f2;
      }

      .cls-15 {
        fill: #f1a19d;
      }

      .cls-16 {
        fill: #f1a5a2;
      }

      .cls-17 {
        fill: #fdf6f5;
      }

      .cls-18 {
        fill: #fefbfb;
      }

      .cls-19 {
        fill: #fdf8f7;
      }

      .cls-20 {
        fill: #fdf9f8;
      }

      .cls-21 {
        fill: #fbeceb;
      }
    </style>
  </defs>
  <path class="cls-1" d="M256.26,223.02c-1.4,4.57-4.05-.68-5.17-2.41-3.56-5.5-6.5-11.39-9.48-17.24-.31-.31-2.81-.63-3.46-.68-7.11-.53-14.58-.29-21.73-.68-2.07-.11-4.41-.46-6.5-.68-.59.18-1.18,4.15-1.24,4.98-.26,3.34-.34,7.8-.35,11.2,0,1.08.36,1.98.36,2.92,0,5.45.24,10.99-.36,16.38-.65-.04-1.41.08-2.41,0-.02-.76-.69-2.38-.69-2.93v-9.65c0-2.16-.02-4.46,0-6.72.03-3.16-.1-6.34-.01-9.49.03-1.21.97-5.93.04-6.56l-30.84-4.3c-1.5,7.53-3.77,14.82-7.11,21.73-1.18,2.45-2.25,6.16-5.52,6.2-.77-.69-2.75-.74-2.26-3.11.2-.98,4.29-6.2,5.2-7.91,4.51-8.43,6.02-16.61,7.06-26.03.34-3.06,1.29-10.44,1.07-13.09-.08-.94-2.46-5.2-2.96-7.07-3.67-13.58,2.18-30.92,18.87-28.51,4.47.64,10.59,6.71,14.39.42-.31-16.77,5.1-37.72,20.81-46.41,9.15-5.06,17.48-5.12,25.58,1.77,14.02,11.94,9.4,28.88,2.29,43.32-4.43,9.01-15.91,21.43-15.95,31.65-.07,17.62,11.41,38.19,20.37,52.9ZM237.64,93.09c-.73.24-3.68.12-3.44,1.2l1.5,1.19c.37-.28,2.35-2,1.94-2.39ZM232.47,93.78c-.57-.08-1.05.16-1.56.33-1.31.42-3.38.8-1.38,2.1.33.22.59.42,1.03.35l1.92-2.78ZM238.51,94.13l-1.87,2.28,1.87,2.19,1.81-2.58-1.81-1.88ZM233.34,94.82l-2.21,2.63,1.52,1.84,2.19-2.64-1.5-1.83ZM244.53,97.91l.55-1.72c-.65-.68-1.64-1.36-2.62-.87-1.02.68,1.7,2.85,2.07,2.59ZM227.31,95.85l-2.09,3.27,1.56,1.89c1.45-2.08,4.36-3.67.52-5.16ZM241.26,96.89l-1.81,2.58,1.81,2.23,1.91-2.58-1.91-2.23ZM235.91,102.39c1.19-2.16,3.08-3.19-.13-4.81l-2.25,2.87c.37.42,1.88,2.29,2.38,1.94ZM246.65,100.97c.85.49,1.98-1,1.97-1.8-.82-1.31-2.74-2.54-3.4-.39l1.44,2.19ZM223.51,98.61c-.61-.58-4.64,1.8-2.41,2.94.94.48,2.77-2.61,2.41-2.94ZM230.23,98.61c-1.06,1.06-4.14,4.04-1.31,4.78.71.19,2.71-2.17,2.83-2.61.24-.89-1-1.55-1.52-2.17ZM224.37,99.99c-.75,1-2.34,2.12-1.73,3.43,1.09,2.34,2.27-.22,3.22-1.25l-1.5-2.19ZM243.86,99.99l-1.67,2.59,2.18,2.23,1.91-2.58c0-.58-1.98-2.54-2.42-2.24ZM238.52,100.67l-1.92,2.59,1.61,1.87c.69.12,2-1.9,2.2-2.56l-1.89-1.89ZM249.23,100.69c-1.84.39-.71,2.46.14,3.26,1.1,1.04,1.95-.15,1.66-1.29-.11-.45-1.27-2.08-1.8-1.97ZM219.54,101.02c-1.32,1.56-4.08,2.73-1.33,4.45l2.5-2.61-1.17-1.84ZM232.48,101.36l-2.08,3.28,1.9,2.23,2.56-3.32c.09-.49-1.95-2.48-2.38-2.19ZM225.93,107.22c2.33-.91,3.32-2.89.85-4.47l-1.86,2.3,1.01,2.17ZM247.17,103.46c-2.37,1.63-2.28,3.11.26,4.44,1.91-1.5,2.12-3.35-.26-4.44ZM221.28,103.77c-.61.97-2.27,2.25-1.75,3.43,1.13,2.53,2.58-.61,3.61-1.58l-1.86-1.85ZM241.31,103.8c-2.04,1.65-2.6,2.98-.35,4.78l2.52-2.62-2.16-2.16ZM251.95,104.13c-1.97.76.08,3.64,1.03,3.44,1.19-.25-.57-2.97-1.03-3.44ZM235.75,104.47l-2.54,3.33,1.53,1.82c1.89-1.59,3.84-3.31,1.01-5.15ZM215.59,104.81l-2.03,3.34,1.51,1.83,2.56-2.97c-.18-.52-1.51-2.56-2.04-2.19ZM229.21,105.84l-1.88,2.29,1.87,2.53,2.22-2.88-2.21-1.94ZM223.52,106.53l-1.68,2.64,1.5,2.17c1.65-1.88,3.59-3.6.18-4.82ZM244.39,106.89l-2.24,2.62,1.92,2.16c2.42-1.3,2.87-3.31.32-4.79ZM249.93,106.9l-1.61,1.87,1.91,2.23,1.88-2.23-2.18-1.87ZM238.17,107.57l-2.53,3.28,2.18,2.23,2.5-3.27c-.52-.44-1.47-2.41-2.15-2.24ZM218.98,107.96c-.72-.61-2.95,2.34-3.02,2.6-.24.89,1,1.54,1.52,2.17l2.52-3.27-1.01-1.5ZM232.3,108.95l-2.21,2.63c1.47,3,2.69,1.57,3.77-.75l-1.56-1.88ZM212.99,109.3c-.29,0-2.98,4.54-1.38,5.16,1.19-1.7,3.86-3.36,1.38-5.16ZM226.44,109.3l-2.13,2.93c-.03.51,1.6,2.36,2.12,2.24l1.86-2.65-1.85-2.52ZM246.96,109.98c-1.29,2.16-2.79,3.11.16,4.82l2.22-2.88c-.37-.42-1.88-2.29-2.38-1.94ZM252.69,110l-1.61,1.87,1.91,2.23,1.56-2.23c0-.49-1.37-1.96-1.86-1.87ZM220.92,110.33c-1.67,1.86-3.98,3.24-1.01,5.15l2.52-2.98-1.51-2.17ZM241.26,110.67l-2.54,3.33,1.87,2.16,2.89-3.26-2.23-2.23ZM214.55,112.05c-1.05,2.29-3.42,2.93-.52,5.16l2.54-3.33c.08-.52-1.6-2.11-2.02-1.83ZM234.75,112.06l-1.88,2.51,1.85,2.29,2.22-2.87-2.18-1.93ZM228.34,117.56c.64.45,2.37-2.34,2.67-2.93l-1.81-1.88c-1.51,1.94-2.6,2.52-.86,4.82ZM249.89,113.08l-1.92,2.58,1.91,2.23,2.22-2.62c.08-.44-1.77-2.3-2.21-2.19ZM223.34,113.43c-.57.74-2.26,2.42-2.24,3.28l1.89,2.23,2.24-3.27-1.9-2.23ZM244.08,114.15l-2.31,2.9,1.61,1.87c1.89-1.2,3.94-3.86.7-4.77ZM217.48,114.81l-2.5,3.27,1.81,1.88c1.77-1.9,3.49-3.21.69-5.16ZM237.82,115.16l-2.2,2.64,1.9,2.15c.63.11,1.91-1.96,2.21-2.56l-1.91-2.23ZM231.62,115.84l-1.86,2.64,1.85,2.52c1.97-2.2,3.37-3.43.01-5.16ZM211.61,116.19c-1.44,2.18-3.55,3.36-.69,5.5,1.41-2.2,3.68-3.43.69-5.5ZM252.48,116.18c-1.01,2.27-2.87,2.02-.53,4.48.31.32.92,1.13,1.38,1.03.97-1.63,1.72-5.06-.85-5.51ZM226.13,116.89l-2.29,2.91,1.59,1.88c.48.11,2.09-2.18,2.16-2.65.12-.72-.75-2.3-1.46-2.15ZM246.79,116.87c-1.52,2.11-3.74,3.06-.65,5.14l2.86-2.95-2.21-2.19ZM219.72,117.91l-2.04,3.22,2.17,1.93c1.94-1.75,3.02-4.12-.13-5.15ZM240.59,118.25l-2.16,2.93,1.47,1.89c1.97-1.44,3.97-3.42.7-4.83ZM234.71,118.95l-2.15,2.93,1.81,2.23c2.2-2.01,3.06-3.07.34-5.16ZM214.07,119.3l-2.24,2.98,1.51,2.18c.6.15,2.18-2.68,2.59-3.27l-1.87-1.88ZM228.67,125.14l2.03-2.99-1.85-2.2c-.76,0-2.11,2.22-2.47,2.95,0,.61,1.8,2.58,2.29,2.24ZM249.37,119.98l-2.02,3.22,2.53,2.63,2.25-2.92c-.32-.59-2.18-3.33-2.77-2.93ZM209.02,120.67l-.68.2-.69,5.31,2.37-3.35c.07-.36-.91-2.08-1-2.16ZM222.99,121.01c-1.47,2.01-3.69,3.1-1.03,5.16,1.85-1.52,3.7-3.36,1.03-5.16ZM243.33,121.01c-1.72,2.06-3.38,2.93-.65,5.15.8.17,2.2-2.43,2.88-2.91l-2.23-2.23ZM216.79,122.05l-2.19,3.33,1.51,2.18c.65.16,2.21-2.37,2.52-2.99l-1.84-2.52ZM237.52,122.41c-.37.07-2.19,2.25-2.19,2.56s1.12,1.57,1.45,1.89c.35.08,2.13-2.07,2.19-2.31.17-.63-.73-2.27-1.46-2.14ZM230.76,128.59l2.7-3.33-1.85-2.17-2.56,2.97,1.71,2.54ZM210.92,123.43c-1.55,2.09-3.5,3.39-.69,5.5l2.54-3.33-1.85-2.17ZM252.99,123.77c-.61.67-2.41,2.41-2.21,3.2,1.89,2.69,2-1.85,2.21-3.2ZM225.23,129.62l2.03-3.21-1.85-2.3-2.24,3.28,1.35,2.01.71.22ZM245.93,129.97c.65.44,2.42-2.58,3.07-2.97l-2.56-2.88-2.54,2.99,2.03,2.86ZM239.89,125.15l-1.92,2.58,1.58,2.24c.69.17,2.1-2.05,2.52-2.59l-2.18-2.23ZM219.54,125.49c-1.67,2.01-3.45,3.02-.69,5.16,1.47-2.06,3.6-3.1.69-5.16ZM233.85,131.34l2.09-3.27-1.56-1.89-2.56,2.97c.18.52,1.51,2.56,2.04,2.19ZM212.48,131.69c2.23-1.03,3.88-3.39,1.2-5.16l-2.51,3.27,1.31,1.89ZM227.98,132.72l2.02-2.99-1.84-2.52-2.48,3.27c.26.47,1.68,2.67,2.3,2.24ZM207.31,132.72c1.83-1.18,3.06-3.75.51-4.82-.74-.31-.45.52-.5.87-.19,1.35-.55,2.65-.01,3.95ZM249.6,127.93l-2.32,2.9,2.25,2.92c.38,0,1.96-3.71,1.91-4.29-.07-.7-1.1-1.73-1.84-1.53ZM221.99,128.6c-1.71,1.92-3.51,3.13-.68,5.13,2.13-1.49,3.74-3.52.68-5.13ZM242.48,133.76c.53.37,2.61-2.16,3.07-2.63-1.78-2.99-3.3-3.45-4.81.05l1.73,2.58ZM236.79,128.93l-2.49,3.27,1.82,2.23c2.24-1.74,3.75-3.68.67-5.5ZM216.61,129.63l-.71.22c-1.3,2.14-3.35,2.92-.48,4.94l2.49-2.92-1.3-2.24ZM230.41,130.66l-2.03,2.99,1.55,1.81c2.04-1.46,3.94-3.62.48-4.8ZM210.4,135.48l1.68-2.88-1.79-1.58-1.95,2.57c0,.58,1.64,2.19,2.07,1.89ZM224.72,131.7l-2.47,3.27,1.78,2.23,2.6-3.27-1.91-2.23ZM245.62,137.5c1,.58,2.6-2.16,3.07-2.88l-2.3-2.56c-.69-.12-2.22,2.24-2.55,2.9l1.78,2.54ZM239.59,132.41l-2.6,2.95c-.09.49,1.95,3.03,2.54,2.88l2.51-3.28-2.45-2.55ZM218.34,132.73l-2.04,2.98,1.86,2.53c.49-.92,2.27-2.29,2.24-3.28-.01-.44-1.57-2.56-2.06-2.23ZM233.85,133.42c-.71-.49-2.48,2.59-3.07,2.97l1.87,2.53,2.55-2.99-1.35-2.52ZM212.69,134.12c-2.07,1.79-1.79,2.61-.04,4.46l1.91-2.58c0-.49-1.4-1.98-1.87-1.88ZM206.62,139.27c2.36-.96,3.37-3.26.86-4.82-1.25,1.39-.82,3.1-.86,4.82ZM226.95,140.31c1.05-2.42,3.54-3.16.52-5.5-1.9,1.99-4.1,3.9-.52,5.5ZM221.09,141.34l1.96-2.93-1.78-2.23c-2.14,1.74-3.3,3.85-.18,5.16ZM242.69,136.2l-2.61,2.95,2.22,2.87,2.87-3.26c-.45-.56-1.74-2.69-2.48-2.56ZM236.09,136.52l-2.47,3.27,2.12,2.92,2.6-3.27-2.25-2.92ZM215.41,136.87l-1.85,2.64,1.85,2.17,1.86-2.53-1.86-2.28ZM209.9,137.55l-1.92,2.59,1.91,2.23c1.73-1.8,2.94-3.52.01-4.82ZM228.38,143.02c1.11.64,2.7-2.28,3.37-2.93l-1.54-2.19c-.56-.14-3.05,2.93-2.88,3.55.03.09.96,1.53,1.04,1.57ZM223.52,139.28l-2.04,3.22c1.07,2.81,4.16.88,4.1-.99-.01-.44-1.57-2.57-2.06-2.23ZM246.26,139.62c-.55-.63-2.98,3.01-3.42,3.32l.86,1.15c.65.14,3.13-3.83,2.56-4.47ZM218.33,144.79c1.49-2,1.98-3.3-.68-4.48l-1.34,2.53,1.3,1.72.71.22ZM239.2,140.31l-2.6,3.27c.61,1.07,1.53,3.09,2.94,1.89.2-.17,1.55-2.01,1.58-2.25.08-.88-1.35-2.19-1.92-2.91ZM213.16,140.65c-.6-.42-2.18,2.01-2.42,2.58l1.91,2.23,1.85-2.64-1.34-2.18ZM230.75,143.41c1.38-.04,2.98,1.48,4.13.18l-2.25-2.58-1.54,1.54-.34.86ZM206.62,141.34c.08.74-.33,4.48.52,4.47l1.86-2.53c-.25-.37-2.01-2.35-2.38-1.94ZM203.17,164.78c-1.86-7.32-7.29-20.74-15.78-21.97-14.94-2.16-17.19,14.16-13.54,24.93.42.3,4.21-1.27,5.11-1.48,7.99-1.85,16.05-1.5,24.2-1.48ZM221.78,145.13l-1.21-1.71c-.52.5-2.04,1.86-1.9,2.57.3,1.48,2.33-1.13,3.1-.86ZM215.41,143.76c-1.99,1.62-2.79,3.18-.01,4.47l1.58-2.57-1.57-1.9ZM242.47,144.1c-.49-.35-2.44,1.74-2.06,2.06l2.41-.35-.34-1.71ZM210.36,144.49c-.98-.57-1.72,1.36-2.34,1.9l1.89,2.18,1.85-1.93-1.4-2.14ZM203.51,144.79c-2.13.84-4.24,1.44-6.55,1.55,2.63,3.87,5.49,7.63,6.73,12.24l-.17-13.79ZM227.88,146.57c-2.11.73-1.07,3.92.94,4.41l2.25-2.87c-.77-1.06-1.75-2.05-3.19-1.54ZM206.62,153.06l2.69-3.28c-.2-.56-2.69-3.39-2.69-1.72v5ZM212.14,151.68c.58.41,1.61-1.57,2.01-1.95-.92-2.66-2.06-2.77-3.35-.23l1.34,2.17ZM223.07,147.6c-.43.09-1.54.79-1.62,1.2l1.53,2.19,1.88-2.54c-.44-.74-.94-1.02-1.8-.85ZM236.27,148.58l-3.45-1.04c.39,2.39,2.66,4.73,3.45,1.04ZM231.62,149.27c-1.82,2.34-3.39,2.85-.3,5.14l2.49-2.62c-.23-.58-1.59-2.67-2.19-2.52ZM237.98,153.75c-.06-1.02,2.89-3.86,1.16-4.43-1.79-.59-2.69.87-3.45,2.19.05.61,1.8,2.6,2.29,2.24ZM219.94,149.64c-2.06,1.33-2.05,3.4.25,4.43l1.96-2.21-2.2-2.21ZM226.26,154.44l1.4-2.24-2.23-2.57c-.57.48-1.58,1.39-1.51,2.18.05.49,1.84,2.99,2.34,2.64ZM215.23,150.3l-1.93,2.05.72,1.04c.77-.82,1.3-1.94,1.2-3.1ZM210.4,150.65c-.53-.13-.55.08-.83.36-.63.63-3.66,4.43-2.95,5.15,3.07.71,3.25-1.25,5.02-3.11l.14-.46-1.36-1.94ZM234.71,152.38l-2.54,3.21,2.88,3.67,1.89-3.97-2.24-2.91ZM223.16,152.72l-.71.22c-1.2,1.48-2.1,2.68-.22,4.15,1.28,1,2.61-.35,2.65-1.43s-1.62-1.83-1.73-2.94ZM217.48,153.07c-1.53,1.43-1.88,4.34.98,3.39,1.59-.53-.4-2.72-.98-3.39ZM228.34,157.88c3.26-1.27,1.95-2.85.17-4.82l-1.87,2.28,1.7,2.53ZM210.41,156.16c2.9.48,4.52-.81,1.73-2.76l-1.73,2.76ZM229.72,158.92l4.13.87-2.58-3.27-1.55,2.4ZM206.96,159.26v5c0,1.63,4.05,1.09,5.17,1.55-.54-1.96-.5-4.05.02-6-.05-.62-4.48-.59-5.19-.54ZM233.85,163.06c-3.01-.43-5.91-1.43-8.9-1.96-1.78-.32-8.58-1.51-9.84-1.09-.98.32-.7,5.7,0,6.19l16.18,4.44c.59.14.43-.06.58-.42.83-1.98,1.02-5.06,1.98-7.15ZM189.03,167.54c-2.92-.59-4.77,2.71-6.89,4.31l1.56-.51,5.33-3.8ZM194.2,167.54l-2.06.18-5.52,4.99c2.78-1.13,5.33-3.22,7.58-5.16ZM198.68,167.54c-.78-.73-6.45,4.52-7.23,5.34,1.17-.22,2.23-.98,3.2-1.62.47-.31,4.6-3.19,4.03-3.73ZM204.55,167.88c-.6-.05-1.14-.05-1.71.18-1.87.76-5.28,4.41-6.9,5.85,3.34-1.02,6.16-3.59,8.61-6.03ZM182.83,168.23c-1.01-.58-4.65,2.6-4.14,3.1,1.53-.37,3.12-1.9,4.14-3.1ZM209.72,168.57c-.71.03-1.33-.51-2.05-.19-.86.38-3.95,3.97-4.83,4.84,2.71-.55,4.94-2.78,6.89-4.65ZM208,173.74c1.13-.16,5.69-3.35,5.51-4.3-.2-1.04-1.54.32-1.89.52l-3.63,3.78ZM223.16,170.64c-1.45-.24-2.49.57-3.44,1.55-.04,1.33,3.25-.99,3.44-1.55ZM178.17,171.33v.34c.22-.11.22-.23,0-.34ZM215.58,172.02c-.65-.65-3.04,1.7-3.44,2.24.59.04,4.4-1.27,3.44-2.24ZM207.48,173.74v.34c.22-.11.22-.23,0-.34ZM180.75,176.5l-4.48-1.04-.34,6.55,2.22-3.46,2.6-2.05ZM234.54,184.42c-.49-1.49-.41-6.39-1.2-7.25-.59-.64-3.33.76-4.31.71l5.51,6.54ZM203.17,197.86l-12.4-13.62c-1.83-1.55-5.35-6.22-7.95-5.88-5.27.7-7.67,11.66-7.92,16.05l28.27,3.44ZM206.27,187.87c.16-2.57.76-5.35.96-7.86.03-.39.16-.67-.25-.94l-16.56-.84,15.85,9.65ZM223.43,178.63c-.54.06-3.7,1.48-3.7,1.83l17.75,14.64c-.68-1.95-1.73-3.72-2.79-5.48-1.81-3-7.33-11.45-11.26-10.99ZM214.72,178.91c-1.17-.33-3.64.24-5,0v11.72l2.7-5.4c.32-1.32,4.93-5.57,2.3-6.32ZM206.27,189.94c-4.95-2.16-8.99-6.2-14.13-8.1l14.13,14.31v-6.2ZM210.06,198.9l29.99,1.21-21.89-18.11c-1.2-.01-4.04,5.89-4.61,7.13-1.44,3.15-2.51,6.46-3.49,9.77Z"/>
  <path class="cls-1" d="M86.29,220.61c-.54-2.24.65-6.25,3.31-6.54,4.2-.46,5.75,5.65,10.67,1.04,7.93-7.42,9.91-24.66,7.85-34.76-.48-2.37-1.65-7.5-4.24-8.17-5.3-1.38-8.69,4.84-13.1,2.06-4.57-2.88-.35-7.52,2.4-9.8-7.79-1.99-19.62-1.29-23.4-9.87-3.6-8.17,2.1-10.22,8.66-12.28,7-2.2,15.02-3.16,22.33-3.7l-1.38-8.62c-.47-.5-5.17,2.47-5.17.52v-7.58c0-.18.47-2.16.58-2.52.65-2.19,1.98-3.84,3.9-5.06-.93-.85-5.47-4.38-5.14-5.47.18-.59,8.06-5.83,9.63-5.05-.82-2.61.79-5.24,1.36-7.78,3.69.15,7.78,2.69,9.34,6.06,3.14-1.62,6.79-2.48,10.36-1.91.61,2.08,1.29,4.26.67,6.4,6.13-.73,7.88,4.67,7.58,9.82-.09,1.45-.72,3.43-.71,4.83s.85,3.09.72,4.65l-3.79-.69-.35,11.72c7.73.56,15.68,1.11,23.1,3.45l-.16,1.04-.67.32c-7.41-1.2-15.09-1.59-22.62-1.7-.15.39.34.65.34.69.33,5.47-7.4,7.44-11.55,7.94-.65.08-1.4-.43-1.21.67-3.23-.04-8.46-.29-11.15-2.13-2.47-1.69-2.13-4.05-3.2-6.51-7.31,1.18-14.82,1.73-21.93,3.91-1.17.36-7.44,2.46-7.15,3.83,1.64,1.59,4.35,2.59,6.59,3.08,15.25,3.36,41.01,3.57,56.62,1.91,4.04-.43,14.41-1.79,17.23-4.49,2.58-2.47-1.06-5.23-.08-6.79,3.37-1.39,5.83,6.35,5.39,8.66-1.29,6.72-14.06,11.58-20.26,11.63.97,2.99.05,4.71-2.52,6.27-3.39,2.06-9.2.23-11.34,4.17-3.06,5.65-4.57,21.11-4.41,27.64.09,3.6,2.36,11.81,5.4,13.9,3.86,2.65,8.75.73,13.04.72,3.18-.01,3.47,2.13,4.66,4.16-.94,8.96-10.93,8.51-16.87,4.29-1.4-.99-2.95-3.5-3.93-4.2-.28-.2-.85-.03-.92-.09-.04-.03.34-.54.17-1-.04-.12-1.11-2.11-1.19-2.21-.27-.35-.66-.18-.71-.23-3.42-3.05-6.51-3.05-10.34-.69-4.28,2.63-4.51,6.68-7.92,9.49-3.97,3.27-9.84,1.79-12.76-2.08-.23-.31-1.68-2.76-1.72-2.93ZM109.73,104.12c.09.36.26.49.34.69.51,1.22,1.3,2,2.41,2.76,1.06-4.06.75-3.6-2.07-5.86-.19-.15-.33-.43-.69-.69-.68-.48-1.03-.45-1.47-.7-.41-.24-.07-.79-.6-.67-.52,1.53.49,3.89,2.07,4.48ZM104.56,102.74c.02.84.16.81.34,1.38.69,2.16.76,1.27,3.1,1.38.19-1.07-.32-.53-.69-.69.22-.87-.44-1.24-.69-1.72-.51-.99-1.08-2.02-1.38-3.1-.71.32-.7,2.07-.69,2.75ZM119.04,103.09c-.3.07-.76-.08-1.03,0-1.09.32-.75.32-1.38.69-.78.45-.67.16-1.38,1.03-.8.98-1.2,1.77-1.04,3.1h2.07c.29.45,1.25,1.02,1.72,1.38-.26-1.2.49-2.05.69-3.1l3.45-3.62c-1.02-.61-2.19.31-3.1.52ZM123.86,104.82c-2.92-.89-2.5,1.22-4.11,2.67l-.02,4.21c3.07-.76,4.11-4,4.13-6.88ZM101.89,108c.36-.2,4.45,1.03,4.05-.6s-7.6-1.47-6.89,1.54c.76-.17,1.79-.17,2.5-.37.29-.08.26-.53.34-.58ZM102.49,109.98c-1.04-.63-1.59-.03-2.07,0-1.33.09-2.64.14-3.96.34l-.17.68,3.48,2.9c2,.73,4.03,1.2,6.15,1.22.3-1.44,1.02-2.7.72-4.11-.39-1.79-.88-1.74-2.76-1.72-.87,0-1.6-.31-1.38.69ZM127.66,109.63c-.91-.31-1.29-.45-2.04.57-.28.96,1.53,3.23,2.73,3.22.13.48.08.87.69,1.03.1.7.5,1.47.87,2.08.26.44-.07.87.85.68.17-2.36.11-3.49-1.03-5.51-.66-1.17-.55-1.56-2.07-2.07ZM112.84,112.74c.08.52-.05,1.17,0,1.72.15,1.77-.26,3.77,0,5.17.05.29.67,1.37.86,1.37,1.2-.56,1.44-2.11,1.9-2.75.03-.05.63-.02.99-.54,1.94-2.76,1.17-8.9-2.81-8-2.51.57-1.13,1.85-.94,3.03ZM108.36,112.74c-.09.33-.29.61-.34,1.03s0,.94,0,1.38c0,.34-.04.71,0,1.03.11.85.45,1.36.69,2.07.56,1.64,1.23,3.34,2.59,4.48-.03-.86.48-1.96.52-2.76.02-.46,0-.92,0-1.38,0-.4-.33-.82-.34-1.03-.03-.45.05-.93,0-1.38-.08-.7-.26-1.19-.34-1.72-.09-.57.14-1.28,0-1.83-.09-.35-1.15-.01-.34-1.61l-1.7-.34c-.21.7-.52,1.35-.71,2.06ZM119.39,115.84c-.02.84.27,1,.34,1.38.12.64.04.68.34,1.38.48,1.09.49.49.69.69.07.07-.01.6.35.86s.93.11,1.03.18c.04.03.03.61.35.84,2.24,1.61,5.38,2.54,7.92,3.64-.38-2.06-.31-5.94-2.07-7.24-.75-.52-.94-1.1-1.38-1.72-.64-.9-.47-1.24-1.72-2.07-2.71-1.8-5.77-1.85-5.86,2.07ZM100.42,116.87c-3.01.51-3.91,4.22-3.79,6.89.84-.55.96-2.01,1.37-2.86.17-.36,1.16.03.34-1.27,1.54.07,2.19-1.36,2.07-2.76ZM96.98,127.21c-.13.29-1.07.4-.69,1.38,3.55-.84,6.89-2.53,9.93-4.55.09-2.02,1.1-5.54-1.11-6.85-2.4-1.42-3.02,1.04-3.99,2.44-.37.53-.99.94-1.38,1.72-.23.45-.38.86-.34,1.38-.13.05-.4-.09-.61.08-.18.14-.29.68-.43.96s-.16.67-.34,1.03c-.44.86-.68,1.64-1.03,2.41ZM116.97,119.97c-1.15.58-3.62,3.21-3.79,4.48-.05.39-.02.96,0,1.38.02.34-.05.72,0,1.03.2,1.38,1.11,2.38,1.38,3.1.28.76-.66,1.69,1.01,1.36-.18-.94.83-1.55,1.05-2.05,2.36-1.21,4.03-5.59,2.57-7.91-.18-.28-1.31-1.46-1.55-1.59-.63-.33-.55.13-.68.19ZM109.04,125.83c.05.15.31.26.34.34.07.19-.09.71.09,1.11.51,1.12,1.31,2.01,2.67,1.99l-.51-3.78-2.76-2.41c-1.05.73-.11,1.87.17,2.75ZM115.6,133.41c-1.71,1.44-2.95-.02-4.45-1.24-2-1.62-3.36-3.49-4.74-5.62l-4.09,2.04,2.07,16.55c.32.55,2.81,1.14,3.55,1.28,3.29.65,7.86.48,11.19,0,1.88-.27,5.09-1.24,5.91-3.05,1.03-2.25.22-3.29.2-5.29-.06-4.47.3-7.91.7-12.25,0-.04.4-.24.33-.48-.33-1.04-4.6.12-5.02.44-.46.36-1.13,2.62-1.71,3.46-.53.76-3.2,3.53-3.94,4.16ZM152.83,153.75c-5.67,2.53-11.94,3.52-18.1,4.13-3.26.32-7.06.59-10.33.71-16.36.59-33.13-.26-49.14-3.46-.48-.41-3.29-1.8-2.76-.52.75,1.8,4.96,4,6.82,4.56,11.15,3.35,31.12,3.31,43.01,2.87,8.01-.29,21.03-1.08,27.85-5.24,1.52-.93,4.08-2.53,4.2-4.41-.77.28-1.1.95-1.56,1.37ZM128.01,167.19c-1-.09-1.53.26-1.2,1.38,2.17-.96,6.32.65,7.75-1.73.64-1.06.15-1.97-.18-3.11-2.79.39-5.21.4-6.37,3.45ZM123.87,167.54c.62-.8,1.33-1.56,2.06-2.26.43-.42,1.53-.46.88-1.18-3.68.78-7.47.71-11.21.68-.32,1.11.26,2.3.35,3.1.66,6,.24,11.91,0,17.92-.79,3.18-.19,7.13-.33,10.53-.1,2.35-.67,5.23-.72,7.55-.03,1.63.52,3.55.39,4.86-.06.63-.65.46-.71.74-.7,2.98,1.36,2.28,3.44,3.21-3.01-10.59-1.81-21.13.13-31.76.09-.5.53-1.34-.12-1.67,1.47-4.21,3.08-8.13,5.86-11.72ZM106.63,167.54c3.94,4.94,5.91,12.68,5.86,18.96-.06,6.87-1.02,14.2-2.78,20.83-.39,1.44-1.53,3.69-1.7,4.85-.08.53,0,.6.52.52s3.45-1.24,3.57-1.6c.2-2.27-.11-4.58.05-6.84.41-5.89,1.04-11.84,1.38-17.75s1.06-12.19.34-18.27c-.15-1.26-.53-2.48-.34-3.79h-10c.6,1.23,2.35,2.16,3.1,3.1ZM101.8,168.91c-1.75-2.99-10.92-1.84-10.36,1.89.55,3.65,8.32-2.49,10.36-1.89ZM90.43,217.16c-.08-.02-.21-.55-.69-.2-2.18,1.61,1.05,5.87,2.86,6.82,2.32,1.22,6.29,1.47,6.79-1.79,2.05-1.36,3.57-4.55,4.13-6.89-2.12,1.48-3.62,4.4-6.4,4.79-4.32.62-3.74-1.91-6.69-2.73ZM138.7,219.92c-.09-.07.32-.61-.49-.72-2.37-.3-4.6.59-6.91.73-1.71.1-3.34-.03-5.01-.36-.24-.05-1.02-.77-1.38-.17,2.67,3.16,7.24,5.69,11.47,4.92,1.44-.26,4.2-2.53,3.19-4.07-.2-.31-.77-.24-.87-.33Z"/>
  <path class="cls-11" d="M251.09,220.61c1.12,1.73,3.77,6.98,5.17,2.41.29.48,1.37.73,1.65,1.97,1.27,5.53-6.34,8.72-10.62,9.92-12.82,3.61-25.85,2.74-38.96,1.9.6-5.39.35-10.93.36-16.38,0-.94-.36-1.83-.36-2.92,14.19,1.55,28.67.43,42.75,3.1Z"/>
  <path class="cls-11" d="M205.24,217.51c-.02,2.26,0,4.56,0,6.72v9.65c0,.54.67,2.17.69,2.93-13.74-1.09-33.71-2.33-44.13-11.72,3.26-.05,4.33-3.75,5.52-6.2,12.54-1.61,25.32-1.84,37.93-1.38Z"/>
  <path class="cls-13" d="M119.04,216.82s.43-.13.71.23c.08.1,1.14,2.09,1.19,2.21.16.47-.21.97-.17,1,.08.06.64-.11.92.09.98.7,2.53,3.21,3.93,4.2,5.94,4.22,15.94,4.67,16.87-4.29.06.1.59.28.83.7,1.54,2.76.06,5.66-2.59,7.02-3.66,1.88-11.75,2.15-15.98,2.29-8.51.29-30.03,1.02-37.05-2.63-2.77-1.44-5.44-5.28-1.41-7.03.04.17,1.49,2.62,1.72,2.93,2.92,3.87,8.79,5.34,12.76,2.08,3.41-2.81,3.65-6.86,7.92-9.49,3.49-.23,6.9.26,10.34.69Z"/>
  <path class="cls-11" d="M115.6,150.3c-.19-1.11.56-.6,1.21-.67,4.15-.51,11.88-2.48,11.55-7.94,2.37-.26,11.16.22,9.95,4.24-.53,1.77-7.33,3.03-9.13,3.3-4.01.62-9.55,1.13-13.58,1.08Z"/>
  <polygon class="cls-9" points="234.71 152.38 236.95 155.29 235.06 159.26 232.18 155.58 234.71 152.38"/>
  <path class="cls-3" d="M239.59,132.41l2.45,2.55-2.51,3.28c-.59.14-2.63-2.39-2.54-2.88l2.6-2.95Z"/>
  <path class="cls-18" d="M245.93,129.97l-2.03-2.86,2.54-2.99,2.56,2.88c-.65.39-2.43,3.42-3.07,2.97Z"/>
  <path class="cls-3" d="M242.69,136.2c.73-.12,2.03,2,2.48,2.56l-2.87,3.26-2.22-2.87,2.61-2.95Z"/>
  <path class="cls-9" d="M245.62,137.5l-1.78-2.54c.33-.66,1.86-3.02,2.55-2.9l2.3,2.56c-.47.72-2.07,3.46-3.07,2.88Z"/>
  <polygon class="cls-3" points="236.09 136.52 238.35 139.45 235.75 142.71 233.62 139.79 236.09 136.52"/>
  <path class="cls-18" d="M249.37,119.98c.58-.4,2.45,2.33,2.77,2.93l-2.25,2.92-2.53-2.63,2.02-3.22Z"/>
  <path class="cls-7" d="M210.4,150.65l1.36,1.94-.14.46c-1.77,1.86-1.95,3.82-5.02,3.11-.71-.71,2.32-4.51,2.95-5.15.28-.28.31-.49.83-.36Z"/>
  <path class="cls-3" d="M239.2,140.31c.56.72,2,2.03,1.92,2.91-.02.24-1.38,2.08-1.58,2.25-1.41,1.2-2.33-.82-2.94-1.89l2.6-3.27Z"/>
  <path class="cls-7" d="M242.48,133.76l-1.73-2.58c1.5-3.5,3.03-3.04,4.81-.05-.47.47-2.54,3-3.07,2.63Z"/>
  <path class="cls-7" d="M249.6,127.93c.74-.19,1.78.83,1.84,1.53.06.58-1.53,4.29-1.91,4.29l-2.25-2.92,2.32-2.9Z"/>
  <polygon class="cls-18" points="241.26 110.67 243.49 112.91 240.6 116.17 238.73 114.01 241.26 110.67"/>
  <path class="cls-18" d="M238.17,107.57c.68-.17,1.62,1.79,2.15,2.24l-2.5,3.27-2.18-2.23,2.53-3.28Z"/>
  <path class="cls-3" d="M236.79,128.93c3.08,1.83,1.57,3.77-.67,5.5l-1.82-2.23,2.49-3.27Z"/>
  <path class="cls-3" d="M231.62,149.27c.6-.15,1.96,1.94,2.19,2.52l-2.49,2.62c-3.09-2.3-1.52-2.8.3-5.14Z"/>
  <path class="cls-3" d="M246.79,116.87l2.21,2.19-2.86,2.95c-3.09-2.09-.87-3.04.65-5.14Z"/>
  <path class="cls-3" d="M232.48,101.36c.43-.3,2.47,1.7,2.38,2.19l-2.56,3.32-1.9-2.23,2.08-3.28Z"/>
  <path class="cls-3" d="M233.85,133.42l1.35,2.52-2.55,2.99-1.87-2.53c.6-.39,2.36-3.46,3.07-2.97Z"/>
  <path class="cls-9" d="M227.88,146.57c1.44-.5,2.42.48,3.19,1.54l-2.25,2.87c-2.01-.49-3.05-3.68-.94-4.41Z"/>
  <path class="cls-3" d="M228.67,125.14c-.49.34-2.29-1.63-2.29-2.24.36-.73,1.72-2.96,2.47-2.95l1.85,2.2-2.03,2.99Z"/>
  <polygon class="cls-3" points="224.72 131.7 226.63 133.93 224.03 137.2 222.25 134.97 224.72 131.7"/>
  <path class="cls-3" d="M228.38,143.02c-.08-.05-1.02-1.48-1.04-1.57-.17-.61,2.32-3.68,2.88-3.55l1.54,2.19c-.68.65-2.27,3.57-3.37,2.93Z"/>
  <path class="cls-9" d="M227.98,132.72c-.62.43-2.04-1.77-2.3-2.24l2.48-3.27,1.84,2.52-2.02,2.99Z"/>
  <path class="cls-3" d="M223.34,113.43l1.9,2.23-2.24,3.27-1.89-2.23c-.02-.86,1.66-2.54,2.24-3.28Z"/>
  <polygon class="cls-18" points="230.76 128.59 229.05 126.05 231.61 123.08 233.46 125.26 230.76 128.59"/>
  <path class="cls-3" d="M219.72,117.91c3.15,1.04,2.07,3.4.13,5.15l-2.17-1.93,2.04-3.22Z"/>
  <path class="cls-3" d="M226.95,140.31c-3.57-1.6-1.37-3.52.52-5.5,3.02,2.35.53,3.08-.52,5.5Z"/>
  <path class="cls-3" d="M221.99,128.6c3.06,1.61,1.45,3.64-.68,5.13-2.83-2-1.03-3.21.68-5.13Z"/>
  <polygon class="cls-3" points="225.23 129.62 224.52 129.4 223.17 127.39 225.41 124.12 227.25 126.41 225.23 129.62"/>
  <path class="cls-3" d="M216.79,122.05l1.84,2.52c-.31.61-1.87,3.15-2.52,2.99l-1.51-2.18,2.19-3.33Z"/>
  <path class="cls-3" d="M243.33,121.01l2.23,2.23c-.67.49-2.08,3.08-2.88,2.91-2.72-2.22-1.06-3.09.65-5.15Z"/>
  <path class="cls-9" d="M210.92,123.43l1.85,2.17-2.54,3.33c-2.81-2.11-.86-3.41.69-5.5Z"/>
  <path class="cls-9" d="M218.34,132.73c.49-.34,2.04,1.79,2.06,2.23.03.99-1.75,2.35-2.24,3.28l-1.86-2.53,2.04-2.98Z"/>
  <path class="cls-7" d="M252.48,116.18c2.57.45,1.82,3.88.85,5.51-.46.1-1.07-.71-1.38-1.03-2.35-2.46-.49-2.21.53-4.48Z"/>
  <path class="cls-20" d="M214.07,119.3l1.87,1.88c-.41.59-2,3.42-2.59,3.27l-1.51-2.18,2.24-2.98Z"/>
  <path class="cls-3" d="M244.08,114.15c3.24.91,1.19,3.57-.7,4.77l-1.61-1.87,2.31-2.9Z"/>
  <path class="cls-3" d="M231.62,115.84c3.36,1.73,1.96,2.96-.01,5.16l-1.85-2.52,1.86-2.64Z"/>
  <path class="cls-3" d="M221.09,141.34c-3.12-1.31-1.96-3.42.18-5.16l1.78,2.23-1.96,2.93Z"/>
  <path class="cls-3" d="M241.31,103.8l2.16,2.16-2.52,2.62c-2.25-1.8-1.68-3.13.35-4.78Z"/>
  <path class="cls-3" d="M223.52,139.28c.48-.34,2.04,1.79,2.06,2.23.06,1.88-3.03,3.8-4.1.99l2.04-3.22Z"/>
  <path class="cls-3" d="M235.75,104.47c2.83,1.84.88,3.56-1.01,5.15l-1.53-1.82,2.54-3.33Z"/>
  <path class="cls-3" d="M244.39,106.89c2.55,1.47,2.1,3.49-.32,4.79l-1.92-2.16,2.24-2.62Z"/>
  <path class="cls-3" d="M217.48,114.81c2.8,1.95,1.08,3.26-.69,5.16l-1.81-1.88,2.5-3.27Z"/>
  <path class="cls-9" d="M220.92,110.33l1.51,2.17-2.52,2.98c-2.97-1.91-.66-3.29,1.01-5.15Z"/>
  <path class="cls-3" d="M226.44,109.3l1.85,2.52-1.86,2.65c-.51.13-2.14-1.73-2.12-2.24l2.13-2.93Z"/>
  <path class="cls-9" d="M237.82,115.16l1.91,2.23c-.3.6-1.58,2.67-2.21,2.56l-1.9-2.15,2.2-2.64Z"/>
  <path class="cls-19" d="M211.61,116.19c2.99,2.08.72,3.3-.69,5.5-2.86-2.14-.75-3.33.69-5.5Z"/>
  <path class="cls-3" d="M212.48,131.69l-1.31-1.89,2.51-3.27c2.68,1.77,1.03,4.13-1.2,5.16Z"/>
  <path class="cls-17" d="M235.91,102.39c-.5.35-2.02-1.52-2.38-1.94l2.25-2.87c3.21,1.62,1.32,2.65.13,4.81Z"/>
  <path class="cls-3" d="M234.71,118.95c2.71,2.08,1.86,3.15-.34,5.16l-1.81-2.23,2.15-2.93Z"/>
  <path class="cls-3" d="M216.61,129.63l1.3,2.24-2.49,2.92c-2.87-2.02-.83-2.8.48-4.94l.71-.22Z"/>
  <path class="cls-20" d="M223.16,152.72c.11,1.11,1.77,1.81,1.73,2.94s-1.37,2.43-2.65,1.43c-1.89-1.47-.98-2.68.22-4.15l.71-.22Z"/>
  <path class="cls-20" d="M233.85,131.34c-.53.37-1.86-1.68-2.04-2.19l2.56-2.97,1.56,1.89-2.09,3.27Z"/>
  <path class="cls-7" d="M230.23,98.61c.52.62,1.75,1.27,1.52,2.17-.12.44-2.11,2.8-2.83,2.61-2.83-.74.25-3.72,1.31-4.78Z"/>
  <path class="cls-3" d="M239.89,125.15l2.18,2.23c-.41.54-1.83,2.76-2.52,2.59l-1.58-2.24,1.92-2.58Z"/>
  <path class="cls-3" d="M214.55,112.05c.41-.29,2.1,1.31,2.02,1.83l-2.54,3.33c-2.9-2.23-.53-2.87.52-5.16Z"/>
  <polygon class="cls-18" points="234.75 112.06 236.93 113.99 234.71 116.86 232.87 114.57 234.75 112.06"/>
  <path class="cls-3" d="M227.31,95.85c3.84,1.49.92,3.08-.52,5.16l-1.56-1.89,2.09-3.27Z"/>
  <path class="cls-19" d="M237.98,153.75c-.5.37-2.24-1.63-2.29-2.24.76-1.32,1.66-2.78,3.45-2.19,1.73.57-1.22,3.41-1.16,4.43Z"/>
  <path class="cls-9" d="M246.96,109.98c.5-.35,2.02,1.52,2.38,1.94l-2.22,2.88c-2.96-1.71-1.45-2.67-.16-4.82Z"/>
  <path class="cls-3" d="M222.99,121.01c2.67,1.81.82,3.64-1.03,5.16-2.66-2.06-.45-3.16,1.03-5.16Z"/>
  <path class="cls-3" d="M230.41,130.66c3.47,1.18,1.56,3.33-.48,4.8l-1.55-1.81,2.03-2.99Z"/>
  <path class="cls-7" d="M249.89,113.08c.43-.11,2.29,1.76,2.21,2.19l-2.22,2.62-1.91-2.23,1.92-2.58Z"/>
  <path class="cls-7" d="M240.59,118.25c3.28,1.41,1.27,3.38-.7,4.83l-1.47-1.89,2.16-2.93Z"/>
  <path class="cls-3" d="M219.54,125.49c2.91,2.05.78,3.1-.69,5.16-2.76-2.14-.98-3.14.69-5.16Z"/>
  <path class="cls-20" d="M215.59,104.81c.53-.37,1.86,1.68,2.04,2.19l-2.56,2.97-1.51-1.83,2.03-3.34Z"/>
  <polygon class="cls-3" points="229.21 105.84 231.42 107.79 229.2 110.66 227.32 108.13 229.21 105.84"/>
  <path class="cls-3" d="M243.86,99.99c.43-.3,2.42,1.66,2.42,2.24l-1.91,2.58-2.18-2.23,1.67-2.59Z"/>
  <path class="cls-9" d="M226.13,116.89c.71-.15,1.58,1.43,1.46,2.15-.08.47-1.69,2.76-2.16,2.65l-1.59-1.88,2.29-2.91Z"/>
  <path class="cls-8" d="M219.94,149.64l2.2,2.21-1.96,2.21c-2.3-1.03-2.31-3.1-.25-4.43Z"/>
  <path class="cls-18" d="M209.9,137.55c2.93,1.3,1.72,3.02-.01,4.82l-1.91-2.23,1.92-2.59Z"/>
  <path class="cls-3" d="M226.26,154.44c-.5.35-2.29-2.15-2.34-2.64-.08-.78.93-1.7,1.51-2.18l2.23,2.57-1.4,2.24Z"/>
  <path class="cls-20" d="M218.98,107.96l1.01,1.5-2.52,3.27c-.51-.62-1.75-1.27-1.52-2.17.07-.27,2.3-3.21,3.02-2.6Z"/>
  <path class="cls-19" d="M247.17,103.46c2.37,1.09,2.17,2.94.26,4.44-2.54-1.33-2.63-2.81-.26-4.44Z"/>
  <path class="cls-3" d="M228.34,157.88l-1.7-2.53,1.87-2.28c1.78,1.96,3.09,3.55-.17,4.82Z"/>
  <path class="cls-15" d="M204.55,167.88c-2.45,2.44-5.27,5.01-8.61,6.03,1.63-1.44,5.03-5.09,6.9-5.85.57-.23,1.11-.23,1.71-.18Z"/>
  <path class="cls-3" d="M213.16,140.65l1.34,2.18-1.85,2.64-1.91-2.23c.24-.57,1.82-3,2.42-2.58Z"/>
  <path class="cls-3" d="M238.52,100.67l1.89,1.89c-.2.67-1.51,2.68-2.2,2.56l-1.61-1.87,1.92-2.59Z"/>
  <path class="cls-20" d="M210.4,135.48c-.43.3-2.07-1.31-2.07-1.89l1.95-2.57,1.79,1.58-1.68,2.88Z"/>
  <polygon class="cls-3" points="215.41 136.87 217.26 139.15 215.41 141.68 213.56 139.51 215.41 136.87"/>
  <path class="cls-20" d="M228.34,117.56c-1.75-2.3-.66-2.87.86-4.82l1.81,1.88c-.3.59-2.03,3.38-2.67,2.93Z"/>
  <path class="cls-9" d="M223.52,106.53c3.41,1.22,1.47,2.94-.18,4.82l-1.5-2.17,1.68-2.64Z"/>
  <polygon class="cls-7" points="241.26 96.89 243.17 99.12 241.27 101.7 239.46 99.47 241.26 96.89"/>
  <path class="cls-3" d="M232.3,108.95l1.56,1.88c-1.07,2.31-2.3,3.75-3.77.75l2.21-2.63Z"/>
  <path class="cls-19" d="M237.52,122.41c.73-.13,1.63,1.52,1.46,2.14-.06.24-1.84,2.38-2.19,2.31-.33-.32-1.45-1.59-1.45-1.89s1.81-2.49,2.19-2.56Z"/>
  <path class="cls-8" d="M221.28,103.77l1.86,1.85c-1.03.98-2.47,4.12-3.61,1.58-.53-1.18,1.13-2.46,1.75-3.43Z"/>
  <path class="cls-9" d="M215.41,143.76l1.57,1.9-1.58,2.57c-2.78-1.29-1.98-2.85.01-4.47Z"/>
  <path class="cls-5" d="M209.72,168.57c-1.95,1.87-4.18,4.1-6.89,4.65.89-.87,3.97-4.46,4.83-4.84.72-.32,1.35.22,2.05.19Z"/>
  <path class="cls-20" d="M219.54,101.02l1.17,1.84-2.5,2.61c-2.75-1.72,0-2.88,1.33-4.45Z"/>
  <polygon class="cls-7" points="233.34 94.82 234.84 96.65 232.65 99.29 231.12 97.45 233.34 94.82"/>
  <path class="cls-3" d="M212.69,134.12c.48-.1,1.87,1.39,1.87,1.88l-1.91,2.58c-1.75-1.85-2.04-2.67.04-4.46Z"/>
  <path class="cls-9" d="M210.36,144.49l1.4,2.14-1.85,1.93-1.89-2.18c.62-.54,1.36-2.46,2.34-1.9Z"/>
  <path class="cls-7" d="M225.93,107.22l-1.01-2.17,1.86-2.3c2.46,1.58,1.47,3.57-.85,4.47Z"/>
  <path class="cls-7" d="M224.37,99.99l1.5,2.19c-.95,1.03-2.13,3.59-3.22,1.25-.61-1.32.97-2.43,1.73-3.43Z"/>
  <path class="cls-3" d="M218.33,144.79l-.71-.22-1.3-1.72,1.34-2.53c2.66,1.18,2.17,2.47.68,4.48Z"/>
  <polygon class="cls-18" points="238.51 94.13 240.32 96.02 238.51 98.6 236.63 96.41 238.51 94.13"/>
  <polygon class="cls-18" points="249.93 106.9 252.11 108.77 250.23 111.01 248.32 108.77 249.93 106.9"/>
  <path class="cls-3" d="M206.62,153.06v-5c0-1.67,2.49,1.16,2.69,1.72l-2.69,3.28Z"/>
  <path class="cls-3" d="M252.69,110c.49-.09,1.86,1.38,1.86,1.87l-1.56,2.23-1.91-2.23,1.61-1.87Z"/>
  <path class="cls-9" d="M212.14,151.68l-1.34-2.17c1.29-2.54,2.42-2.43,3.35.23-.4.37-1.43,2.35-2.01,1.95Z"/>
  <path class="cls-17" d="M212.99,109.3c2.48,1.8-.19,3.46-1.38,5.16-1.6-.62,1.09-5.15,1.38-5.16Z"/>
  <path class="cls-8" d="M206.62,139.27c.04-1.73-.39-3.43.86-4.82,2.51,1.57,1.5,3.86-.86,4.82Z"/>
  <path class="cls-8" d="M246.65,100.97l-1.44-2.19c.66-2.14,2.59-.92,3.4.39.01.8-1.12,2.29-1.97,1.8Z"/>
  <path class="cls-5" d="M194.2,167.54c-2.25,1.95-4.8,4.03-7.58,5.16l5.52-4.99,2.06-.18Z"/>
  <path class="cls-5" d="M198.68,167.54c.57.54-3.56,3.42-4.03,3.73-.97.64-2.04,1.4-3.2,1.62.78-.82,6.45-6.07,7.23-5.34Z"/>
  <path class="cls-17" d="M230.75,143.41l.34-.86,1.54-1.54,2.25,2.58c-1.15,1.31-2.75-.21-4.13-.18Z"/>
  <path class="cls-17" d="M207.31,132.72c-.54-1.31-.18-2.6.01-3.95.05-.34-.24-1.18.5-.87,2.56,1.07,1.32,3.64-.51,4.82Z"/>
  <path class="cls-14" d="M209.02,120.67c.09.08,1.07,1.8,1,2.16l-2.37,3.35.69-5.31.68-.2Z"/>
  <path class="cls-17" d="M249.23,100.69c.53-.11,1.69,1.52,1.8,1.97.28,1.13-.57,2.32-1.66,1.29-.85-.8-1.98-2.87-.14-3.26Z"/>
  <path class="cls-19" d="M206.62,141.34c.36-.41,2.13,1.57,2.38,1.94l-1.86,2.53c-.84,0-.43-3.73-.52-4.47Z"/>
  <path class="cls-5" d="M189.03,167.54l-5.33,3.8-1.56.51c2.12-1.6,3.97-4.9,6.89-4.31Z"/>
  <path class="cls-17" d="M223.07,147.6c.85-.17,1.35.12,1.8.85l-1.88,2.54-1.53-2.19c.08-.4,1.18-1.11,1.62-1.2Z"/>
  <path class="cls-12" d="M246.26,139.62c.57.64-1.92,4.62-2.56,4.47l-.86-1.15c.44-.31,2.87-3.94,3.42-3.32Z"/>
  <path class="cls-17" d="M217.48,153.07c.58.67,2.57,2.86.98,3.39-2.87.95-2.51-1.96-.98-3.39Z"/>
  <polygon class="cls-6" points="229.72 158.92 231.27 156.51 233.85 159.78 229.72 158.92"/>
  <path class="cls-6" d="M236.27,148.58c-.79,3.69-3.05,1.36-3.45-1.04l3.45,1.04Z"/>
  <path class="cls-5" d="M208,173.74l3.63-3.78c.34-.2,1.69-1.56,1.89-.52.18.95-4.38,4.14-5.51,4.3Z"/>
  <path class="cls-12" d="M223.51,98.61c.35.34-1.47,3.43-2.41,2.94-2.23-1.15,1.81-3.52,2.41-2.94Z"/>
  <path class="cls-6" d="M232.47,93.78l-1.92,2.78c-.44.07-.69-.14-1.03-.35-2-1.3.08-1.68,1.38-2.1.52-.17.99-.41,1.56-.33Z"/>
  <path class="cls-14" d="M210.41,156.16l1.73-2.76c2.79,1.94,1.17,3.23-1.73,2.76Z"/>
  <path class="cls-8" d="M244.53,97.91c-.37.26-3.09-1.91-2.07-2.59.98-.5,1.98.19,2.62.87l-.55,1.72Z"/>
  <path class="cls-8" d="M237.64,93.09c.41.38-1.57,2.11-1.94,2.39l-1.5-1.19c-.24-1.08,2.72-.96,3.44-1.2Z"/>
  <path class="cls-12" d="M221.78,145.13c-.77-.27-2.81,2.34-3.1.86-.14-.71,1.38-2.07,1.9-2.57l1.21,1.71Z"/>
  <path class="cls-6" d="M251.95,104.13c.46.47,2.22,3.19,1.03,3.44-.95.2-3-2.68-1.03-3.44Z"/>
  <path class="cls-6" d="M252.99,123.77c-.21,1.34-.32,5.88-2.21,3.2-.21-.79,1.6-2.53,2.21-3.2Z"/>
  <path class="cls-5" d="M182.83,168.23c-1.02,1.2-2.6,2.73-4.14,3.1-.51-.5,3.13-3.68,4.14-3.1Z"/>
  <path class="cls-14" d="M242.47,144.1l.34,1.71-2.41.35c-.38-.33,1.58-2.41,2.06-2.06Z"/>
  <path class="cls-5" d="M215.58,172.02c.96.97-2.85,2.28-3.44,2.24.4-.54,2.79-2.9,3.44-2.24Z"/>
  <path class="cls-21" d="M215.23,150.3c.1,1.15-.43,2.27-1.2,3.1l-.72-1.04,1.93-2.05Z"/>
  <path class="cls-5" d="M223.16,170.64c-.19.56-3.48,2.88-3.44,1.55.95-.98,1.99-1.79,3.44-1.55Z"/>
  <path class="cls-5" d="M207.48,173.74c.22.11.22.23,0,.34v-.34Z"/>
  <path class="cls-5" d="M178.17,171.33c.22.11.22.23,0,.34v-.34Z"/>
  <path class="cls-10" d="M152.83,153.75c.46-.42.79-1.09,1.56-1.37-.12,1.88-2.68,3.49-4.2,4.41-6.82,4.16-19.84,4.95-27.85,5.24-11.89.43-31.86.47-43.01-2.87-1.86-.56-6.07-2.76-6.82-4.56-.53-1.27,2.27.11,2.76.52,6.1,5.2,16.67,4.54,24.32,4.81,13.05.46,43.47,2.75,53.25-6.19Z"/>
  <path class="cls-11" d="M101.11,119.63c.97-1.4,1.59-3.86,3.99-2.44,2.22,1.31,1.21,4.82,1.11,6.85-3.04,2.02-6.37,3.71-9.93,4.55-.38-.98.55-1.08.69-1.38,1.54-.32,2.75-1.5,3.79-2.59l-2.76.17c.18-.36.22-.77.34-1.03l4.66-1.38c.49-.69-.62-.2-.86-.17-.99.13-1.8.19-2.76.52-.03-.52.12-.93.34-1.38,1.05-.53,2.18-.23,3.3-.66.8-.31,2.55-1.92.8-1.62-.86.15-1.75.7-2.72.56Z"/>
  <path class="cls-5" d="M118.01,179.25c.65.33.22,1.17.12,1.67-1.93,10.63-3.14,21.17-.13,31.76-2.08-.92-4.14-.23-3.44-3.21.07-.28.65-.11.71-.74.13-1.31-.42-3.22-.39-4.86.04-2.32.62-5.21.72-7.55.14-3.39-.46-7.34.33-10.53.54-2.17,1.33-4.43,2.07-6.55Z"/>
  <path class="cls-4" d="M116.63,129.28c.08-.17.19-1.07.18-1.37l-2.24,2.06c-.27-.72-1.18-1.73-1.38-3.1,1.72-.6,4.75-2.49,4.31-4.48-1.35,1.3-2.47,2.81-4.31,3.44-.02-.42-.05-.99,0-1.38,1.48-1.19,3.76-2.29,3.79-4.48.13-.06.05-.53.68-.19.24.13,1.37,1.31,1.55,1.59,1.46,2.32-.21,6.71-2.57,7.91Z"/>
  <path class="cls-16" d="M128.35,117.56c1.75,1.3,1.69,5.17,2.07,7.24-2.54-1.1-5.68-2.03-7.92-3.64-.32-.23-.31-.82-.35-.84l2.32-.96,3.54-.42c-2.75-1.33-4.66-1.41-7.24.34-.2-.2-.21.4-.69-.69,1.71-2.45,5.97-2.74,8.27-1.03ZM123.87,121.35l5.85,1.56c-1.28-1.57-2.82-2.43-4.9-2.16-.29.04-1.05.17-.95.61Z"/>
  <path class="cls-11" d="M103.87,109.29c.23,1.43,1.44,1.94,2.76,1.72.31,1.42-.41,2.67-.72,4.11-2.12-.02-4.15-.49-6.15-1.22l-3.48-2.9.17-.68c1.32-.2,2.63-.25,3.96-.34l4.31,2.76c.75-.57-.04-.59-.26-.79-.41-.38-1.85-1.9-1.97-1.97-.22-1,.51-.68,1.38-.69Z"/>
  <path class="cls-4" d="M115.6,118.25v-.69s-.51,0-.51,0c-.88.32-1.3,2.2-2.25,2.06-.26-1.4.15-3.4,0-5.17,1.72-.09,3.68-2.58,1.56-3.45l-1.56,1.72c-.19-1.18-1.57-2.47.94-3.03,3.98-.9,4.75,5.24,2.81,8-.37.52-.96.5-.99.54Z"/>
  <path class="cls-10" d="M115.94,167.88c-.09-.8-.67-1.99-.35-3.1,3.75.03,7.53.1,11.21-.68.66.72-.44.76-.88,1.18-.73.7-1.44,1.47-2.06,2.26-2.62.49-5.28.33-7.93.34Z"/>
  <path class="cls-15" d="M106.63,167.54c-.75-.94-2.51-1.87-3.1-3.1h10c-.19,1.31.2,2.53.34,3.79l-7.24-.69Z"/>
  <path class="cls-10" d="M90.43,217.16c.23,4.49,5.06,7.43,8.96,4.83-.51,3.27-4.47,3.01-6.79,1.79-1.81-.95-5.04-5.21-2.86-6.82.48-.35.61.18.69.2Z"/>
  <path class="cls-10" d="M126.28,219.58c1.17,1.69,4.02,2.93,6.02,3.12,2.16.2,6.62.33,6.39-2.77.1.08.66.01.87.33,1.01,1.55-1.75,3.81-3.19,4.07-4.22.77-8.8-1.76-11.47-4.92.35-.6,1.14.13,1.38.17Z"/>
  <path class="cls-11" d="M125.94,125.83c-.87.8-2.73.51-3.45,1.21-.35.34-.9,1.94-1.44,2.7-1.05,1.46-2.42,2.69-3.39,4.22l-2.07-.54c.74-.63,3.41-3.39,3.94-4.16.58-.83,1.25-3.1,1.71-3.46.42-.32,4.68-1.48,5.02-.44.06.23-.33.43-.33.48Z"/>
  <path class="cls-16" d="M123.86,104.82c-.01,2.89-1.05,6.12-4.13,6.88l.02-4.21c1.6-1.46,1.19-3.57,4.11-2.67Z"/>
  <path class="cls-10" d="M128.01,167.19c1.16-3.05,3.58-3.06,6.37-3.45.33,1.14.82,2.04.18,3.11-1.56.11-3.5.69-5.01.72-.71.01-1.17-.34-1.54-.37Z"/>
  <path class="cls-16" d="M101.89,108c-.08.04-.05.5-.34.58-.71.2-1.74.2-2.5.37-.7-3.02,6.49-3.21,6.89-1.54s-3.69.41-4.05.6Z"/>
  <path class="cls-11" d="M119.04,103.09c-.34.97-.18,2.22-.34,3.1-.2,1.05-.95,1.91-.69,3.1-.47-.36-1.43-.93-1.72-1.38-.4-.61-.75-2.32-1.03-3.1.71-.87.6-.58,1.38-1.03-.07.71,0,1.38.16,2.08.09.44.42,1.9.87,2.06l.35-4.82c.27-.08.74.07,1.03,0Z"/>
  <path class="cls-11" d="M109.04,125.83c-.28-.88-1.22-2.02-.17-2.75l2.76,2.41.51,3.78c-1.36.02-2.16-.87-2.67-1.99-.18-.4-.02-.92-.09-1.11l.18-.68-.52.34ZM110.77,127.21l-.17-1.03-.52.52v.51s.68,0,.68,0Z"/>
  <path class="cls-9" d="M126.97,115.84c.44.62.63,1.2,1.38,1.72-2.3-1.7-6.57-1.42-8.27,1.03-.31-.7-.23-.74-.34-1.38,1.69-2.84,4.51-2.33,7.24-1.38Z"/>
  <path class="cls-6" d="M110.42,101.71c2.82,2.26,3.12,1.8,2.07,5.86-1.11-.76-1.9-1.54-2.41-2.76.72-.71.21-2.13.34-3.1Z"/>
  <path class="cls-16" d="M125.25,113.77c1.25.83,1.08,1.16,1.72,2.07-2.73-.95-5.55-1.46-7.24,1.38-.07-.38-.37-.53-.34-1.38,1.66-1.79,3.52-2.02,5.86-2.07Z"/>
  <path class="cls-8" d="M120.77,119.28c2.58-1.75,4.49-1.67,7.24-.34l-3.54.42-2.32.96c-.1-.07-.67.08-1.03-.18s-.28-.78-.35-.86Z"/>
  <path class="cls-4" d="M100.42,116.87c.12,1.4-.53,2.83-2.07,2.76.81,1.3-.17.91-.34,1.27-.42.86-.54,2.31-1.37,2.86-.12-2.67.77-6.38,3.79-6.89Z"/>
  <path class="cls-11" d="M129.73,111.7c1.15,2.02,1.2,3.15,1.03,5.51-.92.19-.59-.24-.85-.68-.36-.61-.76-1.37-.87-2.08-.12-.84.08-1.88,0-2.76h.69Z"/>
  <path class="cls-12" d="M125.25,113.77c-2.34.04-4.21.28-5.86,2.07.09-3.92,3.15-3.87,5.86-2.07Z"/>
  <path class="cls-11" d="M127.66,109.63c.4,1.22.37,2.56.69,3.79-1.2,0-3.01-2.26-2.73-3.22.75-1.02,1.13-.88,2.04-.57Z"/>
  <path class="cls-2" d="M134.56,166.85c-1.43,2.38-5.58.77-7.75,1.73-.33-1.12.2-1.47,1.2-1.38.37.03.83.39,1.54.37,1.51-.03,3.45-.6,5.01-.72Z"/>
  <path class="cls-11" d="M108.36,112.74c.2-.71.51-1.36.71-2.06l1.7.34c-.81,1.6.25,1.26.34,1.61.15.55-.08,1.27,0,1.83-1.23-.06-1.81-1.13-2.76-1.72Z"/>
  <path class="cls-4" d="M109.73,104.12c-1.57-.59-2.58-2.95-2.07-4.48.53-.12.19.43.6.67.44.26.79.22,1.47.7-.49.74-.22,2.24,0,3.1Z"/>
  <path class="cls-14" d="M119.04,103.09c.91-.21,2.08-1.13,3.1-.52l-3.45,3.62c.17-.89,0-2.13.34-3.1Z"/>
  <path class="cls-4" d="M111.46,116.18c.05.45-.03.93,0,1.38-.97-.46-1.41-.72-2.41-1.03-.23-.31-.18-1.22-1.03-1.38,0-.43-.06-.98,0-1.38l3.45,2.41Z"/>
  <path class="cls-4" d="M109.04,116.53c.7.95,1.55,1.8,2.76,2.07,0,.46.02.92,0,1.38l-3.1-1.72c-.24-.7-.58-1.22-.69-2.07.38.01.69.24,1.03.34Z"/>
  <path class="cls-19" d="M111.8,119.97c-.04.8-.55,1.89-.52,2.76-1.35-1.14-2.02-2.84-2.59-4.48l3.1,1.72Z"/>
  <path class="cls-14" d="M113.18,126.87c-.05-.32.02-.7,0-1.03,1.85-.63,2.96-2.14,4.31-3.44.44,1.99-2.6,3.88-4.31,4.48Z"/>
  <path class="cls-20" d="M112.84,114.46c-.05-.55.08-1.21,0-1.72l1.56-1.72c2.13.87.17,3.35-1.56,3.45Z"/>
  <path class="cls-12" d="M101.11,119.63c.97.14,1.86-.41,2.72-.56,1.76-.31,0,1.31-.8,1.62-1.12.43-2.26.13-3.3.66.39-.78,1.01-1.19,1.38-1.72Z"/>
  <path class="cls-17" d="M98.01,124.8l2.76-.17c-1.04,1.09-2.25,2.27-3.79,2.59.35-.77.6-1.55,1.03-2.41Z"/>
  <path class="cls-3" d="M113.18,124.45c.18-1.27,2.64-3.9,3.79-4.48-.04,2.19-2.31,3.29-3.79,4.48Z"/>
  <path class="cls-20" d="M129.73,111.7h-.69c.08.87-.12,1.92,0,2.76-.61-.16-.56-.55-.69-1.03-.32-1.23-.29-2.57-.69-3.79,1.52.51,1.41.9,2.07,2.07Z"/>
  <path class="cls-14" d="M112.84,119.63c.94.14,1.37-1.74,2.25-2.06h.51s0,.69,0,.69c-.46.64-.69,2.2-1.9,2.75-.19,0-.81-1.08-.86-1.37Z"/>
  <path class="cls-12" d="M111.11,114.46c.08.53.26,1.02.34,1.72l-3.45-2.41c.06-.42.25-.7.34-1.03.94.59,1.53,1.67,2.76,1.72Z"/>
  <path class="cls-14" d="M116.28,107.91h-2.07c-.16-1.33.24-2.12,1.04-3.1.28.78.63,2.49,1.03,3.1Z"/>
  <path class="cls-6" d="M118.01,103.09l-.35,4.82c-.46-.15-.78-1.61-.87-2.06-.15-.7-.23-1.37-.16-2.08.63-.37.29-.37,1.38-.69Z"/>
  <path class="cls-6" d="M102.49,109.98c.12.07,1.56,1.59,1.97,1.97.22.2,1.02.22.26.79l-4.31-2.76c.48-.03,1.03-.63,2.07,0Z"/>
  <path class="cls-11" d="M106.63,103.09c.25.48.91.85.69,1.72-.77-.34-1.54-.69-2.41-.69-.18-.57-.32-.54-.34-1.38l2.07.34Z"/>
  <path class="cls-9" d="M106.63,111.01c-1.32.21-2.53-.29-2.76-1.72,1.88-.02,2.37-.06,2.76,1.72Z"/>
  <path class="cls-6" d="M106.63,103.09l-2.07-.34c-.02-.69-.02-2.43.69-2.75.3,1.08.87,2.11,1.38,3.1Z"/>
  <path class="cls-14" d="M99.39,122.73c.96-.32,1.77-.39,2.76-.52.24-.03,1.35-.51.86.17l-4.66,1.38c.14-.28.25-.81.43-.96.21-.17.47-.03.61-.08Z"/>
  <path class="cls-14" d="M116.63,129.28c-.23.5-1.23,1.11-1.05,2.05-1.67.33-.74-.6-1.01-1.36l2.24-2.06c.02.3-.1,1.2-.18,1.37Z"/>
  <path class="cls-8" d="M107.32,104.81c.37.16.88-.38.69.69-2.34-.11-2.41.78-3.1-1.38.87,0,1.64.35,2.41.69Z"/>
  <path class="cls-12" d="M110.42,101.71c-.13.97.37,2.4-.34,3.1-.09-.2-.25-.33-.34-.69-.22-.87-.49-2.36,0-3.1.36.26.5.53.69.69Z"/>
  <path class="cls-17" d="M111.46,117.56c.01.22.34.64.34,1.03-1.21-.27-2.05-1.12-2.76-2.07,1,.31,1.45.57,2.41,1.03Z"/>
  <path class="cls-17" d="M109.04,116.53c-.34-.11-.66-.33-1.03-.34-.04-.32,0-.7,0-1.03.85.16.8,1.07,1.03,1.38Z"/>
  <path class="cls-16" d="M109.39,126.18c-.03-.09-.3-.2-.34-.34l.52-.34-.18.68Z"/>
  <path class="cls-17" d="M123.87,121.35c-.1-.44.66-.57.95-.61,2.09-.27,3.62.59,4.9,2.16l-5.85-1.56Z"/>
  <polygon class="cls-16" points="110.77 127.21 110.08 127.21 110.08 126.7 110.6 126.18 110.77 127.21"/>
</svg>