<?xml version="1.0" encoding="UTF-8"?>
<svg id="Livello_1" data-name="Livello 1" xmlns="http://www.w3.org/2000/svg" viewBox="0 0 581.88 327.31">
  <defs>
    <style>
      .cls-1 {
        fill: #fb5e5d;
      }

      .cls-2 {
        fill: #fff;
      }
    </style>
  </defs>
  <rect class="cls-1" width="581.88" height="327.31"/>
  <g>
    <g>
      <path class="cls-2" d="M258.66,152.55v.99c0,4.03-2.05,7.31-6.38,8.93,4.9.93,7.87,4.4,7.87,9.24v1.12c0,6.82-4.34,11.65-15.37,11.65-3.04,0-5.83,0-10.23-.25-1.24,0-1.86-.68-1.86-1.86v-37.75c0-1.24.68-1.92,2.17-1.92,3.1-.19,7.13-.25,9.61-.25,9.48,0,14.2,4.46,14.2,10.1ZM241.43,150.14v9.36h3.53c3.29,0,4.96-1.8,4.96-4.59v-.87c0-2.6-1.61-4.03-5.76-4.03-.87,0-1.61,0-2.73.12ZM241.43,166.87v9.73c1.67.12,2.23.12,3.53.12,4.71,0,6.45-1.8,6.45-4.53v-1.05c0-2.67-1.8-4.28-6.14-4.28h-3.84Z"/>
      <path class="cls-2" d="M272.86,143.38v1.49c0,2.67-1.67,4.22-4.84,4.22s-4.83-1.55-4.83-4.22v-1.49c0-2.79,1.8-4.28,4.83-4.28s4.84,1.49,4.84,4.28ZM270.31,153.48c1.18,0,1.92.68,1.92,1.92v26.41c0,1.24-.74,1.92-1.92,1.92h-4.65c-1.24,0-1.92-.68-1.92-1.92v-26.41c0-1.24.68-1.92,1.92-1.92h4.65Z"/>
      <path class="cls-2" d="M285.56,145.43c1.18,0,1.86.68,1.86,1.92v6.14h5.21c1.18,0,1.86.68,1.86,1.92v3.6c0,1.24-.68,1.92-1.86,1.92h-5.21v12.65c0,2.42.81,3.35,2.98,3.35.81,0,2.05-.19,3.1-.43,1.24-.25,2.05.43,2.05,1.74l.06,3.66c.06,1.18-.5,1.74-1.61,1.98-1.43.37-3.47.62-4.9.62-7.19,0-10.17-2.91-10.17-11.16v-12.4h-1.67c-1.24,0-1.92-.68-1.92-1.92v-3.6c0-1.24.68-1.92,1.92-1.92h1.86l.87-6.26c.12-1.24.74-1.8,1.92-1.8h3.66Z"/>
      <path class="cls-2" d="M320.77,164.33v4.9c0,1.55-.74,2.42-2.29,2.42h-11.84v1.49c0,2.6,1.12,3.66,4.53,3.66,1.98,0,4.28-.25,6.51-.62,1.24-.19,1.98.37,2.05,1.61l.12,3.72c.06,1.18-.56,1.86-1.67,2.11-2.85.62-6.07.87-8,.87-8.55,0-11.96-3.53-11.96-12.46v-7.69c0-7.38,3.6-11.59,11.22-11.59s11.34,3.97,11.34,11.59ZM306.64,163.34v2.17h5.83v-1.98c0-2.36-1.05-3.41-2.98-3.41-1.8,0-2.85,1.05-2.85,3.22Z"/>
      <path class="cls-2" d="M354.98,183.73c-1.24,0-1.86-.62-1.92-1.92l-.37-23.12-4.71,18.78c-.25,1.05-.93,1.61-2.05,1.61h-5.64c-1.12,0-1.8-.56-2.05-1.61l-4.71-18.78-.31,23.12c-.06,1.3-.68,1.92-1.92,1.92h-4.46c-1.24,0-1.92-.68-1.92-1.92l.37-36.76c0-1.3.68-1.92,1.92-1.92h7.13c1.12,0,1.8.5,2.11,1.61l6.76,25.48,6.76-25.41c.31-1.18.99-1.67,2.05-1.67h7c1.3,0,1.92.62,1.92,1.92l.43,36.76c0,1.24-.68,1.92-1.92,1.92h-4.46Z"/>
      <path class="cls-2" d="M388.39,164.33v4.9c0,1.55-.74,2.42-2.29,2.42h-11.84v1.49c0,2.6,1.12,3.66,4.53,3.66,1.98,0,4.28-.25,6.51-.62,1.24-.19,1.98.37,2.05,1.61l.12,3.72c.06,1.18-.56,1.86-1.67,2.11-2.85.62-6.07.87-8,.87-8.55,0-11.96-3.53-11.96-12.46v-7.69c0-7.38,3.6-11.59,11.22-11.59s11.34,3.97,11.34,11.59ZM374.26,163.34v2.17h5.83v-1.98c0-2.36-1.05-3.41-2.98-3.41-1.8,0-2.85,1.05-2.85,3.22Z"/>
      <path class="cls-2" d="M409.9,143.13c1.24,0,1.92.68,1.92,1.92v36.76c0,1.24-.68,1.92-1.92,1.92h-4.96c-1.18,0-1.86-.68-1.86-1.92v-36.76c0-1.24.68-1.92,1.86-1.92h4.96Z"/>
      <path class="cls-2" d="M439.96,163.34v18.47c0,1.24-.68,1.92-1.92,1.92h-4.71c-1.18,0-1.86-.68-1.86-1.92v-17.67c0-2.73-.74-3.47-2.05-3.47-1.18,0-2.67,1.05-3.78,2.79v18.35c0,1.24-.74,1.92-1.92,1.92h-4.65c-1.24,0-1.92-.68-1.92-1.92v-26.41c0-1.24.68-1.92,1.92-1.92h3.97c1.18,0,1.86.68,1.86,1.92v2.05c2.17-3.35,4.71-4.71,7.62-4.71,4.65,0,7.44,3.22,7.44,10.6Z"/>
    </g>
    <polygon class="cls-2" points="190.6 153.44 190.6 164.95 171.26 155.21 171.26 146.41 171.26 136.91 187.37 144.99 180.77 151.56 174.97 143.72 171.26 146.41 180.46 158.13 190.6 147.99 190.6 147.99 195.6 142.99 195.6 142.99 202.4 136.19 199.27 133.13 195.08 137.31 168.76 123.94 166.26 125.19 166.26 155.21 141.92 167.47 141.92 193.95 144.42 195.21 146.92 193.95 146.92 173.46 166.26 183.2 166.26 206.21 168.76 207.47 171.26 206.21 171.26 183.2 190.6 173.46 190.6 193.95 193.1 195.21 195.6 193.95 195.6 167.47 195.6 148.44 190.6 153.44"/>
  </g>
  <g>
    <path class="cls-2" d="M236.43,201.25h-1.75v3.39h-1.99v-10.11h4.81c2.2,0,3.61,1.36,3.61,3.38,0,1.62-.91,2.79-2.47,3.19l2.99,3.54h-2.44l-2.76-3.39ZM237.37,196.31h-2.7v3.22h2.7c1.11,0,1.76-.59,1.76-1.6s-.65-1.62-1.76-1.62Z"/>
    <path class="cls-2" d="M250.8,202.9v1.75h-7.68v-10.11h7.55v1.73h-5.59v2.41h5.33v1.69h-5.33v2.53h5.72Z"/>
    <path class="cls-2" d="M252.07,203.45l1.04-1.49c.85.69,2.05,1.1,3.26,1.1,1.34,0,2.2-.51,2.2-1.31,0-.77-.71-1.17-2.3-1.36-2.76-.33-3.96-1.26-3.96-3.06s1.65-3,4.03-3c1.37,0,2.74.45,3.78,1.21l-.98,1.42c-.81-.59-1.79-.91-2.74-.91-1.26,0-2.12.52-2.12,1.26s.65,1.13,2.22,1.33c2.8.38,4.06,1.33,4.06,3.09,0,1.89-1.68,3.15-4.19,3.15-1.57,0-3.16-.51-4.3-1.42Z"/>
    <path class="cls-2" d="M269.61,196.33h-3.19v8.32h-2.01v-8.32h-3.19v-1.79h8.39v1.79Z"/>
    <path class="cls-2" d="M277.15,202.68h-5.21l-.84,1.96h-2.17l4.54-10.11h2.18l4.52,10.11h-2.18l-.84-1.96ZM272.67,200.92h3.76l-1.88-4.41-1.88,4.41Z"/>
    <path class="cls-2" d="M280.83,200.39v-5.85h1.99v5.82c0,1.66.94,2.69,2.46,2.69s2.44-1.02,2.44-2.69v-5.82h2.01v5.85c0,2.77-1.68,4.46-4.45,4.46s-4.45-1.69-4.45-4.46Z"/>
    <path class="cls-2" d="M295.68,201.25h-1.75v3.39h-1.99v-10.11h4.81c2.2,0,3.61,1.36,3.61,3.38,0,1.62-.91,2.79-2.47,3.19l2.99,3.54h-2.44l-2.76-3.39ZM296.62,196.31h-2.7v3.22h2.7c1.11,0,1.76-.59,1.76-1.6s-.65-1.62-1.76-1.62Z"/>
    <path class="cls-2" d="M309.4,202.68h-5.21l-.84,1.96h-2.17l4.54-10.11h2.18l4.52,10.11h-2.18l-.84-1.96ZM304.92,200.92h3.76l-1.88-4.41-1.88,4.41Z"/>
    <path class="cls-2" d="M322.43,194.54v10.11h-1.81l-5.05-6.77.03,3v3.77h-1.99v-10.11h1.79l5.06,6.79v-2.87s-.01-3.91-.01-3.91h1.99Z"/>
    <path class="cls-2" d="M332.22,196.33h-3.19v8.32h-2.01v-8.32h-3.19v-1.79h8.39v1.79Z"/>
    <path class="cls-2" d="M340.48,201.25h-1.75v3.39h-1.99v-10.11h4.81c2.2,0,3.61,1.36,3.61,3.38,0,1.62-.91,2.79-2.47,3.19l2.99,3.54h-2.44l-2.76-3.39ZM341.42,196.31h-2.7v3.22h2.7c1.11,0,1.76-.59,1.76-1.6s-.65-1.62-1.76-1.62Z"/>
    <path class="cls-2" d="M354.86,202.9v1.75h-7.68v-10.11h7.55v1.73h-5.59v2.41h5.33v1.69h-5.33v2.53h5.72Z"/>
    <path class="cls-2" d="M356.13,203.45l1.04-1.49c.85.69,2.05,1.1,3.26,1.1,1.34,0,2.2-.51,2.2-1.31,0-.77-.71-1.17-2.3-1.36-2.76-.33-3.96-1.26-3.96-3.06s1.65-3,4.03-3c1.37,0,2.74.45,3.78,1.21l-.98,1.42c-.81-.59-1.79-.91-2.74-.91-1.26,0-2.12.52-2.12,1.26s.65,1.13,2.22,1.33c2.8.38,4.06,1.33,4.06,3.09,0,1.89-1.68,3.15-4.19,3.15-1.57,0-3.16-.51-4.3-1.42Z"/>
    <path class="cls-2" d="M373.95,202.9v1.75h-7.68v-10.11h7.55v1.73h-5.59v2.41h5.33v1.69h-5.33v2.53h5.72Z"/>
    <path class="cls-2" d="M379.6,201.25h-1.75v3.39h-1.99v-10.11h4.81c2.2,0,3.61,1.36,3.61,3.38,0,1.62-.91,2.79-2.47,3.19l2.99,3.54h-2.44l-2.76-3.39ZM380.54,196.31h-2.7v3.22h2.7c1.11,0,1.76-.59,1.76-1.6s-.65-1.62-1.76-1.62Z"/>
    <path class="cls-2" d="M395.4,194.54l-4.17,10.11h-2.12l-4.19-10.11h2.2l1.55,3.84,1.5,3.94,1.53-3.94,1.52-3.84h2.2Z"/>
    <path class="cls-2" d="M403.03,202.68h-5.21l-.84,1.96h-2.17l4.54-10.11h2.18l4.52,10.11h-2.18l-.84-1.96ZM398.55,200.92h3.76l-1.88-4.41-1.88,4.41Z"/>
    <path class="cls-2" d="M413.76,196.33h-3.19v8.32h-2.01v-8.32h-3.19v-1.79h8.39v1.79Z"/>
    <path class="cls-2" d="M415.17,194.54h1.99v10.11h-1.99v-10.11Z"/>
    <path class="cls-2" d="M418.93,199.59c0-3.18,2.12-5.29,5.33-5.29s5.31,2.11,5.31,5.29-2.12,5.29-5.31,5.29-5.33-2.11-5.33-5.29ZM427.55,199.59c0-2.07-1.33-3.47-3.29-3.47s-3.31,1.4-3.31,3.47,1.33,3.47,3.31,3.47,3.29-1.4,3.29-3.47Z"/>
    <path class="cls-2" d="M440.16,194.54v10.11h-1.81l-5.05-6.77.03,3v3.77h-1.99v-10.11h1.79l5.06,6.79v-2.87s-.01-3.91-.01-3.91h1.99Z"/>
  </g>
</svg>