<?xml version="1.0" encoding="UTF-8"?>
<svg id="Livello_1" data-name="Livello 1" xmlns="http://www.w3.org/2000/svg" viewBox="0 0 327.31 327.31">
  <defs>
    <style>
      .cls-1 {
        fill: #fb5e5d;
      }

      .cls-2 {
        fill: #fff;
      }
    </style>
  </defs>
  <rect class="cls-1" width="327.31" height="327.31"/>
  <polygon class="cls-2" points="193.86 143.57 193.86 162.42 162.18 146.47 162.18 132.05 162.18 116.5 188.56 129.72 177.76 140.48 168.25 127.65 162.18 132.05 177.25 151.24 193.86 134.64 193.86 134.64 202.05 126.46 202.05 126.45 213.18 115.31 208.06 110.3 201.19 117.14 158.09 95.24 153.99 97.3 153.99 146.47 114.12 166.54 114.12 209.91 118.22 211.98 122.32 209.91 122.32 176.36 153.99 192.31 153.99 230 158.09 232.06 162.18 230 162.18 192.31 193.86 176.36 193.86 209.91 197.95 211.98 202.05 209.91 202.05 166.54 202.05 135.38 193.86 143.57"/>
</svg>